<ttFont>
<head>
    <!-- Most of this table will be recalculated by the compiler -->
    <tableVersion value="1.0"/>
    <fontRevision value="1.301"/>
    <checkSumAdjustment value="0x82dd87e"/>
    <magicNumber value="0x5f0f3cf5"/>
    <flags value="00000000 00001011"/>
    <unitsPerEm value="1000"/>
    <created value="Tue Oct  2 22:58:00 2007"/>
    <modified value="Thu Mar  6 18:39:25 2014"/>
    <xMin value="-58"/>
    <yMin value="-297"/>
    <xMax value="952"/>
    <yMax value="1103"/>
    <macStyle value="00000000 00000000"/>
    <lowestRecPPEM value="9"/>
    <fontDirectionHint value="2"/>
    <indexToLocFormat value="0"/>
    <glyphDataFormat value="0"/>
  </head>
    <TTGlyph name="A" xMin="1" yMin="0" xMax="537" yMax="740">
      <contour>
        <pt x="421" y="0" on="1"/>
        <pt x="371" y="160" on="1"/>
        <pt x="164" y="160" on="1"/>
        <pt x="114" y="0" on="1"/>
        <pt x="1" y="0" on="1"/>
        <pt x="245" y="740" on="1"/>
        <pt x="293" y="740" on="1"/>
        <pt x="537" y="0" on="1"/>
      </contour>
      <contour>
        <pt x="268" y="511" on="1"/>
        <pt x="194" y="255" on="1"/>
        <pt x="341" y="255" on="1"/>
      </contour>
    </TTGlyph>
    <TTGlyph name="AE" xMin="-1" yMin="0" xMax="739" yMax="733">
      <contour>
        <pt x="381" y="0" on="1"/>
        <pt x="381" y="165" on="1"/>
        <pt x="200" y="165" on="1"/>
        <pt x="119" y="0" on="1"/>
        <pt x="-1" y="0" on="1"/>
        <pt x="361" y="733" on="1"/>
        <pt x="739" y="733" on="1"/>
        <pt x="739" y="629" on="1"/>
        <pt x="494" y="629" on="1"/>
        <pt x="494" y="426" on="1"/>
        <pt x="715" y="426" on="1"/>
        <pt x="715" y="324" on="1"/>
        <pt x="494" y="324" on="1"/>
        <pt x="494" y="104" on="1"/>
        <pt x="739" y="104" on="1"/>
        <pt x="739" y="0" on="1"/>
      </contour>
      <contour>
        <pt x="382" y="554" on="1"/>
        <pt x="246" y="262" on="1"/>
        <pt x="382" y="262" on="1"/>
      </contour>
    </TTGlyph>
    <TTGlyph name="AEacute" xMin="-1" yMin="0" xMax="739" yMax="957">
      <component glyphName="acute" x="339" y="293" flags="0x4"/>
      <component glyphName="AE" x="0" y="0" flags="0x4"/>
    </TTGlyph>
    <TTGlyph name="Aacute" xMin="1" yMin="0" xMax="537" yMax="960">
      <component glyphName="A" x="0" y="0" flags="0x204"/>
      <component glyphName="acute" x="109" y="296" flags="0x4"/>
    </TTGlyph>
    <TTGlyph name="Abreve" xMin="1" yMin="0" xMax="537" yMax="922">
      <component glyphName="A" x="0" y="0" flags="0x204"/>
      <component glyphName="breve" x="53" y="296" flags="0x4"/>
    </TTGlyph>
    <TTGlyph name="Acircumflex" xMin="1" yMin="0" xMax="537" yMax="949">
      <component glyphName="A" x="0" y="0" flags="0x204"/>
      <component glyphName="circumflex" x="51" y="296" flags="0x4"/>
    </TTGlyph>
    <TTGlyph name="Adieresis" xMin="1" yMin="0" xMax="537" yMax="909">
      <component glyphName="A" x="0" y="0" flags="0x204"/>
      <component glyphName="dieresis" x="53" y="296" flags="0x4"/>
    </TTGlyph>
    <TTGlyph name="Agrave" xMin="1" yMin="0" xMax="537" yMax="960">
      <component glyphName="A" x="0" y="0" flags="0x204"/>
      <component glyphName="grave" x="-12" y="296" flags="0x4"/>
    </TTGlyph>
    <TTGlyph name="Amacron" xMin="1" yMin="0" xMax="537" yMax="877">
      <component glyphName="A" x="0" y="0" flags="0x204"/>
      <component glyphName="macron" x="53" y="296" flags="0x4"/>
    </TTGlyph>
    <TTGlyph name="Aogonek" xMin="1" yMin="-205" xMax="538" yMax="740">
      <contour>
        <pt x="538" y="-165" on="1"/>
        <pt x="522" y="-182" on="0"/>
        <pt x="478" y="-205" on="0"/>
        <pt x="449" y="-205" on="1"/>
        <pt x="412" y="-205" on="0"/>
        <pt x="370" y="-161" on="0"/>
        <pt x="370" y="-126" on="1"/>
        <pt x="370" y="-97" on="0"/>
        <pt x="399" y="-39" on="0"/>
        <pt x="431" y="0" on="1"/>
        <pt x="421" y="0" on="1"/>
        <pt x="371" y="160" on="1"/>
        <pt x="164" y="160" on="1"/>
        <pt x="114" y="0" on="1"/>
        <pt x="1" y="0" on="1"/>
        <pt x="245" y="740" on="1"/>
        <pt x="293" y="740" on="1"/>
        <pt x="537" y="0" on="1"/>
        <pt x="493" y="0" on="1"/>
        <pt x="465" y="-38" on="0"/>
        <pt x="443" y="-86" on="0"/>
        <pt x="443" y="-106" on="1"/>
        <pt x="443" y="-123" on="0"/>
        <pt x="460" y="-142" on="0"/>
        <pt x="474" y="-142" on="1"/>
        <pt x="496" y="-142" on="0"/>
        <pt x="513" y="-125" on="1"/>
      </contour>
      <contour>
        <pt x="268" y="511" on="1"/>
        <pt x="194" y="255" on="1"/>
        <pt x="341" y="255" on="1"/>
      </contour>
    </TTGlyph>
    <TTGlyph name="Aring" xMin="1" yMin="0" xMax="537" yMax="899">
      <contour>
        <pt x="376" y="797" on="1"/>
        <pt x="376" y="764" on="0"/>
        <pt x="339" y="711" on="0"/>
        <pt x="306" y="701" on="1"/>
        <pt x="537" y="0" on="1"/>
        <pt x="421" y="0" on="1"/>
        <pt x="371" y="160" on="1"/>
        <pt x="164" y="160" on="1"/>
        <pt x="114" y="0" on="1"/>
        <pt x="1" y="0" on="1"/>
        <pt x="232" y="701" on="1"/>
        <pt x="200" y="712" on="0"/>
        <pt x="163" y="764" on="0"/>
        <pt x="163" y="797" on="1"/>
        <pt x="163" y="817" on="0"/>
        <pt x="178" y="854" on="0"/>
        <pt x="206" y="882" on="0"/>
        <pt x="245" y="899" on="0"/>
        <pt x="270" y="899" on="1"/>
        <pt x="294" y="899" on="0"/>
        <pt x="334" y="882" on="0"/>
        <pt x="361" y="854" on="0"/>
        <pt x="376" y="817" on="0"/>
      </contour>
      <contour>
        <pt x="268" y="511" on="1"/>
        <pt x="194" y="255" on="1"/>
        <pt x="341" y="255" on="1"/>
      </contour>
      <contour>
        <pt x="315" y="797" on="1"/>
        <pt x="315" y="819" on="0"/>
        <pt x="290" y="848" on="0"/>
        <pt x="270" y="848" on="1"/>
        <pt x="250" y="848" on="0"/>
        <pt x="224" y="820" on="0"/>
        <pt x="224" y="797" on="1"/>
        <pt x="224" y="774" on="0"/>
        <pt x="250" y="745" on="0"/>
        <pt x="270" y="745" on="1"/>
        <pt x="290" y="745" on="0"/>
        <pt x="315" y="774" on="0"/>
      </contour>
    </TTGlyph>
    <TTGlyph name="Aringacute" xMin="1" yMin="0" xMax="537" yMax="1103">
      <component glyphName="acute" x="108" y="439" flags="0x4"/>
      <component glyphName="Aring" x="0" y="0" flags="0x4"/>
    </TTGlyph>
    <TTGlyph name="Atilde" xMin="1" yMin="0" xMax="537" yMax="907">
      <component glyphName="A" x="0" y="0" flags="0x204"/>
      <component glyphName="tilde" x="54" y="296" flags="0x4"/>
    </TTGlyph>
    <TTGlyph name="B" xMin="60" yMin="-6" xMax="468" yMax="739">
      <contour>
        <pt x="468" y="203" on="1"/>
        <pt x="468" y="158" on="0"/>
        <pt x="435" y="81" on="0"/>
        <pt x="371" y="26" on="0"/>
        <pt x="275" y="-6" on="0"/>
        <pt x="212" y="-6" on="1"/>
        <pt x="196" y="-6" on="0"/>
        <pt x="157" y="-5" on="0"/>
        <pt x="116" y="-2" on="0"/>
        <pt x="77" y="2" on="0"/>
        <pt x="60" y="4" on="1"/>
        <pt x="60" y="728" on="1"/>
        <pt x="76" y="730" on="0"/>
        <pt x="115" y="734" on="0"/>
        <pt x="155" y="737" on="0"/>
        <pt x="193" y="739" on="0"/>
        <pt x="208" y="739" on="1"/>
        <pt x="271" y="739" on="0"/>
        <pt x="364" y="707" on="0"/>
        <pt x="424" y="653" on="0"/>
        <pt x="453" y="584" on="0"/>
        <pt x="453" y="547" on="1"/>
        <pt x="453" y="489" on="0"/>
        <pt x="401" y="404" on="0"/>
        <pt x="347" y="378" on="1"/>
        <pt x="410" y="356" on="0"/>
        <pt x="468" y="263" on="0"/>
      </contour>
      <contour>
        <pt x="339" y="528" on="1"/>
        <pt x="339" y="579" on="0"/>
        <pt x="279" y="638" on="0"/>
        <pt x="223" y="638" on="1"/>
        <pt x="210" y="638" on="0"/>
        <pt x="182" y="636" on="0"/>
        <pt x="171" y="634" on="1"/>
        <pt x="171" y="417" on="1"/>
        <pt x="179" y="416" on="0"/>
        <pt x="205" y="415" on="0"/>
        <pt x="219" y="415" on="1"/>
        <pt x="279" y="415" on="0"/>
        <pt x="339" y="477" on="0"/>
      </contour>
      <contour>
        <pt x="351" y="215" on="1"/>
        <pt x="351" y="265" on="0"/>
        <pt x="283" y="333" on="0"/>
        <pt x="222" y="333" on="1"/>
        <pt x="210" y="333" on="0"/>
        <pt x="179" y="332" on="0"/>
        <pt x="171" y="330" on="1"/>
        <pt x="171" y="97" on="1"/>
        <pt x="182" y="95" on="0"/>
        <pt x="212" y="93" on="0"/>
        <pt x="229" y="93" on="1"/>
        <pt x="284" y="93" on="0"/>
        <pt x="351" y="155" on="0"/>
      </contour>
    </TTGlyph>
    <TTGlyph name="C" xMin="40" yMin="-11" xMax="507" yMax="744">
      <contour>
        <pt x="507" y="42" on="1"/>
        <pt x="470" y="16" on="0"/>
        <pt x="384" y="-11" on="0"/>
        <pt x="337" y="-11" on="1"/>
        <pt x="274" y="-11" on="0"/>
        <pt x="165" y="41" on="0"/>
        <pt x="85" y="139" on="0"/>
        <pt x="40" y="278" on="0"/>
        <pt x="40" y="364" on="1"/>
        <pt x="40" y="448" on="0"/>
        <pt x="84" y="588" on="0"/>
        <pt x="163" y="688" on="0"/>
        <pt x="273" y="744" on="0"/>
        <pt x="338" y="744" on="1"/>
        <pt x="387" y="744" on="0"/>
        <pt x="469" y="717" on="0"/>
        <pt x="506" y="692" on="1"/>
        <pt x="464" y="597" on="1"/>
        <pt x="435" y="616" on="0"/>
        <pt x="371" y="639" on="0"/>
        <pt x="337" y="639" on="1"/>
        <pt x="297" y="639" on="0"/>
        <pt x="232" y="602" on="0"/>
        <pt x="185" y="532" on="0"/>
        <pt x="159" y="432" on="0"/>
        <pt x="159" y="369" on="1"/>
        <pt x="159" y="304" on="0"/>
        <pt x="186" y="202" on="0"/>
        <pt x="234" y="131" on="0"/>
        <pt x="301" y="94" on="0"/>
        <pt x="342" y="94" on="1"/>
        <pt x="374" y="94" on="0"/>
        <pt x="439" y="117" on="0"/>
        <pt x="468" y="136" on="1"/>
      </contour>
    </TTGlyph>
    <TTGlyph name="Cacute" xMin="40" yMin="-11" xMax="507" yMax="960">
      <component glyphName="acute" x="158" y="296" flags="0x4"/>
      <component glyphName="C" x="0" y="0" flags="0x4"/>
    </TTGlyph>
    <TTGlyph name="Ccaron" xMin="40" yMin="-11" xMax="507" yMax="944">
      <component glyphName="caron" x="104" y="296" flags="0x4"/>
      <component glyphName="C" x="0" y="0" flags="0x4"/>
    </TTGlyph>
    <TTGlyph name="Ccedilla" xMin="40" yMin="-215" xMax="507" yMax="744">
      <contour>
        <pt x="422" y="-126" on="1"/>
        <pt x="422" y="-162" on="0"/>
        <pt x="372" y="-215" on="0"/>
        <pt x="322" y="-215" on="1"/>
        <pt x="297" y="-215" on="0"/>
        <pt x="246" y="-198" on="0"/>
        <pt x="219" y="-182" on="1"/>
        <pt x="243" y="-128" on="1"/>
        <pt x="286" y="-157" on="0"/>
        <pt x="325" y="-157" on="1"/>
        <pt x="339" y="-157" on="0"/>
        <pt x="357" y="-142" on="0"/>
        <pt x="357" y="-128" on="1"/>
        <pt x="357" y="-114" on="0"/>
        <pt x="321" y="-91" on="0"/>
        <pt x="273" y="-89" on="1"/>
        <pt x="270" y="-82" on="1"/>
        <pt x="290" y="-7" on="1"/>
        <pt x="236" y="2" on="0"/>
        <pt x="144" y="62" on="0"/>
        <pt x="77" y="157" on="0"/>
        <pt x="40" y="286" on="0"/>
        <pt x="40" y="364" on="1"/>
        <pt x="40" y="448" on="0"/>
        <pt x="84" y="588" on="0"/>
        <pt x="163" y="688" on="0"/>
        <pt x="273" y="744" on="0"/>
        <pt x="338" y="744" on="1"/>
        <pt x="387" y="744" on="0"/>
        <pt x="469" y="717" on="0"/>
        <pt x="506" y="692" on="1"/>
        <pt x="464" y="597" on="1"/>
        <pt x="435" y="616" on="0"/>
        <pt x="371" y="639" on="0"/>
        <pt x="337" y="639" on="1"/>
        <pt x="297" y="639" on="0"/>
        <pt x="232" y="602" on="0"/>
        <pt x="185" y="532" on="0"/>
        <pt x="159" y="432" on="0"/>
        <pt x="159" y="369" on="1"/>
        <pt x="159" y="304" on="0"/>
        <pt x="186" y="202" on="0"/>
        <pt x="234" y="131" on="0"/>
        <pt x="301" y="94" on="0"/>
        <pt x="342" y="94" on="1"/>
        <pt x="374" y="94" on="0"/>
        <pt x="439" y="117" on="0"/>
        <pt x="468" y="136" on="1"/>
        <pt x="507" y="42" on="1"/>
        <pt x="470" y="16" on="0"/>
        <pt x="384" y="-11" on="0"/>
        <pt x="337" y="-11" on="1"/>
        <pt x="336" y="-11" on="1"/>
        <pt x="329" y="-40" on="1"/>
        <pt x="381" y="-51" on="0"/>
        <pt x="422" y="-97" on="0"/>
      </contour>
    </TTGlyph>
    <TTGlyph name="Cdotaccent" xMin="40" yMin="-11" xMax="507" yMax="909">
      <component glyphName="C" x="0" y="0" flags="0x204"/>
      <component glyphName="dotaccent" x="108" y="296" flags="0x4"/>
    </TTGlyph>
    <TTGlyph name="D" xMin="62" yMin="-6" xMax="551" yMax="739">
      <contour>
        <pt x="551" y="371" on="1"/>
        <pt x="551" y="290" on="0"/>
        <pt x="508" y="151" on="0"/>
        <pt x="423" y="51" on="0"/>
        <pt x="296" y="-6" on="0"/>
        <pt x="212" y="-6" on="1"/>
        <pt x="170" y="-6" on="0"/>
        <pt x="100" y="-1" on="0"/>
        <pt x="62" y="4" on="1"/>
        <pt x="62" y="729" on="1"/>
        <pt x="98" y="734" on="0"/>
        <pt x="168" y="739" on="0"/>
        <pt x="209" y="739" on="1"/>
        <pt x="293" y="739" on="0"/>
        <pt x="421" y="684" on="0"/>
        <pt x="507" y="586" on="0"/>
        <pt x="551" y="451" on="0"/>
      </contour>
      <contour>
        <pt x="433" y="371" on="1"/>
        <pt x="433" y="431" on="0"/>
        <pt x="406" y="529" on="0"/>
        <pt x="353" y="599" on="0"/>
        <pt x="276" y="637" on="0"/>
        <pt x="227" y="637" on="1"/>
        <pt x="213" y="637" on="0"/>
        <pt x="186" y="635" on="0"/>
        <pt x="175" y="633" on="1"/>
        <pt x="175" y="99" on="1"/>
        <pt x="188" y="97" on="0"/>
        <pt x="213" y="96" on="0"/>
        <pt x="232" y="96" on="1"/>
        <pt x="281" y="96" on="0"/>
        <pt x="357" y="135" on="0"/>
        <pt x="407" y="206" on="0"/>
        <pt x="433" y="308" on="0"/>
      </contour>
    </TTGlyph>
    <TTGlyph name="Dcaron" xMin="62" yMin="-6" xMax="551" yMax="941">
      <component glyphName="caron" x="66" y="293" flags="0x4"/>
      <component glyphName="D" x="0" y="0" flags="0x4"/>
    </TTGlyph>
    <TTGlyph name="Dcroat" xMin="18" yMin="-6" xMax="568" yMax="739">
      <component glyphName="Eth" x="0" y="0" flags="0x204"/>
    </TTGlyph>
    <TTGlyph name="E" xMin="62" yMin="0" xMax="421" yMax="733">
      <contour>
        <pt x="62" y="0" on="1"/>
        <pt x="62" y="733" on="1"/>
        <pt x="421" y="733" on="1"/>
        <pt x="421" y="629" on="1"/>
        <pt x="175" y="629" on="1"/>
        <pt x="175" y="426" on="1"/>
        <pt x="397" y="426" on="1"/>
        <pt x="397" y="324" on="1"/>
        <pt x="175" y="324" on="1"/>
        <pt x="175" y="104" on="1"/>
        <pt x="421" y="104" on="1"/>
        <pt x="421" y="0" on="1"/>
      </contour>
    </TTGlyph>
    <TTGlyph name="Eacute" xMin="62" yMin="0" xMax="421" yMax="957">
      <component glyphName="acute" x="82" y="293" flags="0x4"/>
      <component glyphName="E" x="0" y="0" flags="0x4"/>
    </TTGlyph>
    <TTGlyph name="Ebreve" xMin="62" yMin="0" xMax="421" yMax="919">
      <component glyphName="E" x="0" y="0" flags="0x204"/>
      <component glyphName="breve" x="26" y="293" flags="0x4"/>
    </TTGlyph>
    <TTGlyph name="Ecaron" xMin="62" yMin="0" xMax="421" yMax="941">
      <component glyphName="caron" x="28" y="293" flags="0x4"/>
      <component glyphName="E" x="0" y="0" flags="0x4"/>
    </TTGlyph>
    <TTGlyph name="Ecircumflex" xMin="62" yMin="0" xMax="421" yMax="946">
      <component glyphName="circumflex" x="24" y="293" flags="0x4"/>
      <component glyphName="E" x="0" y="0" flags="0x4"/>
    </TTGlyph>
    <TTGlyph name="Edieresis" xMin="62" yMin="0" xMax="421" yMax="906">
      <component glyphName="dieresis" x="26" y="293" flags="0x4"/>
      <component glyphName="E" x="0" y="0" flags="0x4"/>
    </TTGlyph>
    <TTGlyph name="Edotaccent" xMin="62" yMin="0" xMax="421" yMax="906">
      <component glyphName="E" x="0" y="0" flags="0x204"/>
      <component glyphName="dotaccent" x="33" y="293" flags="0x4"/>
    </TTGlyph>
    <TTGlyph name="Egrave" xMin="62" yMin="0" xMax="421" yMax="957">
      <component glyphName="E" x="0" y="0" flags="0x204"/>
      <component glyphName="grave" x="-39" y="293" flags="0x4"/>
    </TTGlyph>
    <TTGlyph name="Emacron" xMin="62" yMin="0" xMax="421" yMax="874">
      <component glyphName="E" x="0" y="0" flags="0x204"/>
      <component glyphName="macron" x="27" y="293" flags="0x4"/>
    </TTGlyph>
    <TTGlyph name="Eogonek" xMin="62" yMin="-205" xMax="426" yMax="733">
      <contour>
        <pt x="381" y="0" on="1"/>
        <pt x="353" y="-38" on="0"/>
        <pt x="331" y="-86" on="0"/>
        <pt x="331" y="-106" on="1"/>
        <pt x="331" y="-123" on="0"/>
        <pt x="348" y="-142" on="0"/>
        <pt x="362" y="-142" on="1"/>
        <pt x="384" y="-142" on="0"/>
        <pt x="401" y="-125" on="1"/>
        <pt x="426" y="-165" on="1"/>
        <pt x="410" y="-182" on="0"/>
        <pt x="366" y="-205" on="0"/>
        <pt x="337" y="-205" on="1"/>
        <pt x="300" y="-205" on="0"/>
        <pt x="258" y="-161" on="0"/>
        <pt x="258" y="-126" on="1"/>
        <pt x="258" y="-97" on="0"/>
        <pt x="287" y="-39" on="0"/>
        <pt x="319" y="0" on="1"/>
        <pt x="62" y="0" on="1"/>
        <pt x="62" y="733" on="1"/>
        <pt x="421" y="733" on="1"/>
        <pt x="421" y="629" on="1"/>
        <pt x="175" y="629" on="1"/>
        <pt x="175" y="426" on="1"/>
        <pt x="397" y="426" on="1"/>
        <pt x="397" y="324" on="1"/>
        <pt x="175" y="324" on="1"/>
        <pt x="175" y="104" on="1"/>
        <pt x="421" y="104" on="1"/>
        <pt x="421" y="0" on="1"/>
      </contour>
    </TTGlyph>
    <TTGlyph name="Eth" xMin="18" yMin="-6" xMax="568" yMax="739">
      <contour>
        <pt x="568" y="371" on="1"/>
        <pt x="568" y="290" on="0"/>
        <pt x="525" y="151" on="0"/>
        <pt x="440" y="51" on="0"/>
        <pt x="313" y="-6" on="0"/>
        <pt x="229" y="-6" on="1"/>
        <pt x="187" y="-6" on="0"/>
        <pt x="117" y="-1" on="0"/>
        <pt x="79" y="4" on="1"/>
        <pt x="79" y="325" on="1"/>
        <pt x="18" y="325" on="1"/>
        <pt x="18" y="417" on="1"/>
        <pt x="79" y="417" on="1"/>
        <pt x="79" y="729" on="1"/>
        <pt x="115" y="734" on="0"/>
        <pt x="185" y="739" on="0"/>
        <pt x="226" y="739" on="1"/>
        <pt x="310" y="739" on="0"/>
        <pt x="438" y="684" on="0"/>
        <pt x="524" y="586" on="0"/>
        <pt x="568" y="451" on="0"/>
      </contour>
      <contour>
        <pt x="450" y="371" on="1"/>
        <pt x="450" y="431" on="0"/>
        <pt x="423" y="529" on="0"/>
        <pt x="370" y="599" on="0"/>
        <pt x="294" y="637" on="0"/>
        <pt x="245" y="637" on="1"/>
        <pt x="230" y="637" on="0"/>
        <pt x="204" y="635" on="0"/>
        <pt x="193" y="633" on="1"/>
        <pt x="193" y="417" on="1"/>
        <pt x="285" y="417" on="1"/>
        <pt x="285" y="325" on="1"/>
        <pt x="193" y="325" on="1"/>
        <pt x="193" y="99" on="1"/>
        <pt x="205" y="97" on="0"/>
        <pt x="231" y="96" on="0"/>
        <pt x="249" y="96" on="1"/>
        <pt x="299" y="96" on="0"/>
        <pt x="374" y="135" on="0"/>
        <pt x="425" y="206" on="0"/>
        <pt x="450" y="308" on="0"/>
      </contour>
    </TTGlyph>
    <TTGlyph name="Euro" xMin="20" yMin="-11" xMax="484" yMax="672">
      <contour>
        <pt x="20" y="370" on="1"/>
        <pt x="20" y="445" on="1"/>
        <pt x="87" y="445" on="1"/>
        <pt x="100" y="497" on="0"/>
        <pt x="147" y="581" on="0"/>
        <pt x="211" y="640" on="0"/>
        <pt x="291" y="672" on="0"/>
        <pt x="336" y="672" on="1"/>
        <pt x="378" y="672" on="0"/>
        <pt x="451" y="648" on="0"/>
        <pt x="484" y="625" on="1"/>
        <pt x="443" y="538" on="1"/>
        <pt x="418" y="555" on="0"/>
        <pt x="364" y="574" on="0"/>
        <pt x="335" y="574" on="1"/>
        <pt x="287" y="574" on="0"/>
        <pt x="216" y="508" on="0"/>
        <pt x="199" y="445" on="1"/>
        <pt x="397" y="445" on="1"/>
        <pt x="397" y="370" on="1"/>
        <pt x="184" y="370" on="1"/>
        <pt x="183" y="362" on="0"/>
        <pt x="183" y="343" on="0"/>
        <pt x="183" y="333" on="1"/>
        <pt x="183" y="322" on="0"/>
        <pt x="183" y="301" on="0"/>
        <pt x="184" y="290" on="1"/>
        <pt x="397" y="290" on="1"/>
        <pt x="397" y="216" on="1"/>
        <pt x="200" y="216" on="1"/>
        <pt x="217" y="153" on="0"/>
        <pt x="292" y="87" on="0"/>
        <pt x="341" y="87" on="1"/>
        <pt x="369" y="87" on="0"/>
        <pt x="423" y="106" on="0"/>
        <pt x="447" y="123" on="1"/>
        <pt x="484" y="36" on="1"/>
        <pt x="451" y="13" on="0"/>
        <pt x="376" y="-11" on="0"/>
        <pt x="335" y="-11" on="1"/>
        <pt x="245" y="-11" on="0"/>
        <pt x="111" y="107" on="0"/>
        <pt x="86" y="216" on="1"/>
        <pt x="20" y="216" on="1"/>
        <pt x="20" y="290" on="1"/>
        <pt x="74" y="290" on="1"/>
        <pt x="73" y="299" on="0"/>
        <pt x="73" y="317" on="0"/>
        <pt x="73" y="328" on="1"/>
        <pt x="73" y="339" on="0"/>
        <pt x="73" y="360" on="0"/>
        <pt x="74" y="370" on="1"/>
      </contour>
    </TTGlyph>
    <TTGlyph name="Euro.lin" xMin="25" yMin="-11" xMax="548" yMax="737">
      <contour>
        <pt x="25" y="408" on="1"/>
        <pt x="25" y="484" on="1"/>
        <pt x="100" y="484" on="1"/>
        <pt x="113" y="541" on="0"/>
        <pt x="165" y="635" on="0"/>
        <pt x="237" y="701" on="0"/>
        <pt x="328" y="737" on="0"/>
        <pt x="381" y="737" on="1"/>
        <pt x="431" y="737" on="0"/>
        <pt x="512" y="710" on="0"/>
        <pt x="547" y="685" on="1"/>
        <pt x="503" y="596" on="1"/>
        <pt x="474" y="615" on="0"/>
        <pt x="413" y="636" on="0"/>
        <pt x="379" y="636" on="1"/>
        <pt x="319" y="636" on="0"/>
        <pt x="234" y="556" on="0"/>
        <pt x="214" y="484" on="1"/>
        <pt x="451" y="484" on="1"/>
        <pt x="451" y="408" on="1"/>
        <pt x="200" y="408" on="1"/>
        <pt x="198" y="397" on="0"/>
        <pt x="198" y="377" on="0"/>
        <pt x="198" y="366" on="1"/>
        <pt x="198" y="353" on="0"/>
        <pt x="198" y="328" on="0"/>
        <pt x="200" y="316" on="1"/>
        <pt x="451" y="316" on="1"/>
        <pt x="451" y="240" on="1"/>
        <pt x="215" y="240" on="1"/>
        <pt x="235" y="169" on="0"/>
        <pt x="324" y="90" on="0"/>
        <pt x="386" y="90" on="1"/>
        <pt x="418" y="90" on="0"/>
        <pt x="479" y="113" on="0"/>
        <pt x="508" y="131" on="1"/>
        <pt x="548" y="42" on="1"/>
        <pt x="512" y="17" on="0"/>
        <pt x="427" y="-11" on="0"/>
        <pt x="378" y="-11" on="1"/>
        <pt x="327" y="-11" on="0"/>
        <pt x="238" y="23" on="0"/>
        <pt x="166" y="88" on="0"/>
        <pt x="113" y="181" on="0"/>
        <pt x="100" y="240" on="1"/>
        <pt x="25" y="240" on="1"/>
        <pt x="25" y="316" on="1"/>
        <pt x="88" y="316" on="1"/>
        <pt x="86" y="327" on="0"/>
        <pt x="86" y="349" on="0"/>
        <pt x="86" y="360" on="1"/>
        <pt x="86" y="373" on="0"/>
        <pt x="86" y="396" on="0"/>
        <pt x="88" y="408" on="1"/>
      </contour>
    </TTGlyph>
    <TTGlyph name="F" xMin="62" yMin="0" xMax="416" yMax="733">
      <contour>
        <pt x="175" y="629" on="1"/>
        <pt x="175" y="411" on="1"/>
        <pt x="387" y="411" on="1"/>
        <pt x="387" y="310" on="1"/>
        <pt x="175" y="310" on="1"/>
        <pt x="175" y="0" on="1"/>
        <pt x="62" y="0" on="1"/>
        <pt x="62" y="733" on="1"/>
        <pt x="416" y="733" on="1"/>
        <pt x="416" y="629" on="1"/>
      </contour>
    </TTGlyph>
    <TTGlyph name="G" xMin="40" yMin="-11" xMax="532" yMax="744">
      <contour>
        <pt x="532" y="402" on="1"/>
        <pt x="532" y="48" on="1"/>
        <pt x="449" y="-11" on="0"/>
        <pt x="337" y="-11" on="1"/>
        <pt x="274" y="-11" on="0"/>
        <pt x="165" y="40" on="0"/>
        <pt x="86" y="137" on="0"/>
        <pt x="40" y="277" on="0"/>
        <pt x="40" y="365" on="1"/>
        <pt x="40" y="451" on="0"/>
        <pt x="86" y="591" on="0"/>
        <pt x="167" y="690" on="0"/>
        <pt x="276" y="744" on="0"/>
        <pt x="339" y="744" on="1"/>
        <pt x="397" y="744" on="0"/>
        <pt x="488" y="709" on="0"/>
        <pt x="526" y="680" on="1"/>
        <pt x="476" y="589" on="1"/>
        <pt x="445" y="612" on="0"/>
        <pt x="379" y="639" on="0"/>
        <pt x="342" y="639" on="1"/>
        <pt x="300" y="639" on="0"/>
        <pt x="232" y="601" on="0"/>
        <pt x="184" y="530" on="0"/>
        <pt x="159" y="430" on="0"/>
        <pt x="159" y="367" on="1"/>
        <pt x="159" y="301" on="0"/>
        <pt x="187" y="197" on="0"/>
        <pt x="236" y="126" on="0"/>
        <pt x="303" y="89" on="0"/>
        <pt x="342" y="89" on="1"/>
        <pt x="368" y="89" on="0"/>
        <pt x="407" y="98" on="0"/>
        <pt x="425" y="108" on="1"/>
        <pt x="425" y="300" on="1"/>
        <pt x="307" y="300" on="1"/>
        <pt x="307" y="402" on="1"/>
      </contour>
    </TTGlyph>
    <TTGlyph name="G.alt" xMin="40" yMin="-12" xMax="579" yMax="744">
      <contour>
        <pt x="575" y="397" on="1"/>
        <pt x="579" y="299" on="0"/>
        <pt x="546" y="147" on="0"/>
        <pt x="480" y="43" on="0"/>
        <pt x="382" y="-12" on="0"/>
        <pt x="320" y="-12" on="1"/>
        <pt x="258" y="-12" on="0"/>
        <pt x="156" y="43" on="0"/>
        <pt x="81" y="142" on="0"/>
        <pt x="40" y="281" on="0"/>
        <pt x="40" y="365" on="1"/>
        <pt x="40" y="451" on="0"/>
        <pt x="84" y="591" on="0"/>
        <pt x="162" y="690" on="0"/>
        <pt x="268" y="744" on="0"/>
        <pt x="330" y="744" on="1"/>
        <pt x="392" y="744" on="0"/>
        <pt x="489" y="696" on="0"/>
        <pt x="527" y="659" on="1"/>
        <pt x="467" y="574" on="1"/>
        <pt x="435" y="604" on="0"/>
        <pt x="368" y="639" on="0"/>
        <pt x="330" y="639" on="1"/>
        <pt x="290" y="639" on="0"/>
        <pt x="226" y="601" on="0"/>
        <pt x="182" y="530" on="0"/>
        <pt x="159" y="430" on="0"/>
        <pt x="159" y="367" on="1"/>
        <pt x="159" y="301" on="0"/>
        <pt x="184" y="198" on="0"/>
        <pt x="228" y="128" on="0"/>
        <pt x="287" y="91" on="0"/>
        <pt x="321" y="91" on="1"/>
        <pt x="383" y="91" on="0"/>
        <pt x="457" y="193" on="0"/>
        <pt x="462" y="296" on="1"/>
        <pt x="301" y="296" on="1"/>
        <pt x="301" y="397" on="1"/>
      </contour>
    </TTGlyph>
    <TTGlyph name="Gbreve" xMin="40" yMin="-11" xMax="532" yMax="922">
      <component glyphName="G" x="0" y="0" flags="0x204"/>
      <component glyphName="breve" x="107" y="296" flags="0x4"/>
    </TTGlyph>
    <TTGlyph name="Gbreve.alt" xMin="40" yMin="-12" xMax="579" yMax="922">
      <component glyphName="G.alt" x="0" y="0" flags="0x4"/>
      <component glyphName="breve" x="111" y="296" flags="0x4"/>
    </TTGlyph>
    <TTGlyph name="Gcommaaccent" xMin="40" yMin="-297" xMax="532" yMax="744">
      <component glyphName="commaaccent" x="230" y="0" flags="0x4"/>
      <component glyphName="G" x="0" y="0" flags="0x4"/>
    </TTGlyph>
    <TTGlyph name="Gcommaaccent.alt" xMin="40" yMin="-297" xMax="579" yMax="744">
      <component glyphName="commaaccent" x="234" y="0" flags="0x4"/>
      <component glyphName="G.alt" x="0" y="0" flags="0x4"/>
    </TTGlyph>
    <TTGlyph name="Gdotaccent" xMin="40" yMin="-11" xMax="532" yMax="909">
      <component glyphName="G" x="0" y="0" flags="0x204"/>
      <component glyphName="dotaccent" x="114" y="296" flags="0x4"/>
    </TTGlyph>
    <TTGlyph name="Gdotaccent.alt" xMin="40" yMin="-12" xMax="579" yMax="909">
      <component glyphName="G.alt" x="0" y="0" flags="0x4"/>
      <component glyphName="dotaccent" x="118" y="296" flags="0x4"/>
    </TTGlyph>
    <TTGlyph name="H" xMin="62" yMin="0" xMax="523" yMax="733">
      <contour>
        <pt x="409" y="0" on="1"/>
        <pt x="409" y="320" on="1"/>
        <pt x="175" y="320" on="1"/>
        <pt x="175" y="0" on="1"/>
        <pt x="62" y="0" on="1"/>
        <pt x="62" y="733" on="1"/>
        <pt x="175" y="733" on="1"/>
        <pt x="175" y="423" on="1"/>
        <pt x="409" y="423" on="1"/>
        <pt x="409" y="733" on="1"/>
        <pt x="523" y="733" on="1"/>
        <pt x="523" y="0" on="1"/>
      </contour>
    </TTGlyph>
    <TTGlyph name="Hbar" xMin="3" yMin="0" xMax="582" yMax="733">
      <contour>
        <pt x="409" y="0" on="1"/>
        <pt x="409" y="310" on="1"/>
        <pt x="175" y="310" on="1"/>
        <pt x="175" y="0" on="1"/>
        <pt x="62" y="0" on="1"/>
        <pt x="62" y="539" on="1"/>
        <pt x="3" y="539" on="1"/>
        <pt x="3" y="615" on="1"/>
        <pt x="62" y="615" on="1"/>
        <pt x="62" y="733" on="1"/>
        <pt x="175" y="733" on="1"/>
        <pt x="175" y="615" on="1"/>
        <pt x="409" y="615" on="1"/>
        <pt x="409" y="733" on="1"/>
        <pt x="523" y="733" on="1"/>
        <pt x="523" y="615" on="1"/>
        <pt x="582" y="615" on="1"/>
        <pt x="582" y="539" on="1"/>
        <pt x="523" y="539" on="1"/>
        <pt x="523" y="0" on="1"/>
      </contour>
      <contour>
        <pt x="409" y="413" on="1"/>
        <pt x="409" y="539" on="1"/>
        <pt x="175" y="539" on="1"/>
        <pt x="175" y="413" on="1"/>
      </contour>
    </TTGlyph>
    <TTGlyph name="I" xMin="66" yMin="0" xMax="179" yMax="733">
      <contour>
        <pt x="66" y="0" on="1"/>
        <pt x="66" y="733" on="1"/>
        <pt x="179" y="733" on="1"/>
        <pt x="179" y="0" on="1"/>
      </contour>
    </TTGlyph>
    <TTGlyph name="Iacute" xMin="66" yMin="0" xMax="277" yMax="961">
      <component glyphName="I" x="0" y="0" flags="0x204"/>
      <component glyphName="acute" x="-35" y="297" flags="0x4"/>
    </TTGlyph>
    <TTGlyph name="Ibreve" xMin="-3" yMin="0" xMax="251" yMax="919">
      <component glyphName="I" x="0" y="0" flags="0x204"/>
      <component glyphName="breve" x="-91" y="293" flags="0x4"/>
    </TTGlyph>
    <TTGlyph name="Icircumflex" xMin="-20" yMin="0" xMax="268" yMax="946">
      <component glyphName="I" x="0" y="0" flags="0x204"/>
      <component glyphName="circumflex" x="-93" y="293" flags="0x4"/>
    </TTGlyph>
    <TTGlyph name="Idieresis" xMin="-11" yMin="0" xMax="260" yMax="906">
      <component glyphName="I" x="0" y="0" flags="0x204"/>
      <component glyphName="dieresis" x="-91" y="293" flags="0x4"/>
    </TTGlyph>
    <TTGlyph name="Idotaccent" xMin="66" yMin="0" xMax="180" yMax="906">
      <component glyphName="I" x="0" y="0" flags="0x204"/>
      <component glyphName="dotaccent" x="-85" y="293" flags="0x4"/>
    </TTGlyph>
    <TTGlyph name="Igrave" xMin="-37" yMin="0" xMax="179" yMax="957">
      <component glyphName="I" x="0" y="0" flags="0x204"/>
      <component glyphName="grave" x="-159" y="293" flags="0x4"/>
    </TTGlyph>
    <TTGlyph name="Imacron" xMin="-1" yMin="0" xMax="249" yMax="874">
      <component glyphName="I" x="0" y="0" flags="0x204"/>
      <component glyphName="macron" x="-91" y="293" flags="0x4"/>
    </TTGlyph>
    <TTGlyph name="Iogonek" xMin="31" yMin="-206" xMax="199" yMax="733">
      <contour>
        <pt x="199" y="-165" on="1"/>
        <pt x="184" y="-182" on="0"/>
        <pt x="139" y="-205" on="0"/>
        <pt x="110" y="-206" on="1"/>
        <pt x="73" y="-206" on="0"/>
        <pt x="31" y="-161" on="0"/>
        <pt x="32" y="-126" on="1"/>
        <pt x="32" y="-97" on="0"/>
        <pt x="61" y="-40" on="0"/>
        <pt x="93" y="0" on="1"/>
        <pt x="66" y="0" on="1"/>
        <pt x="66" y="733" on="1"/>
        <pt x="179" y="733" on="1"/>
        <pt x="179" y="0" on="1"/>
        <pt x="155" y="0" on="1"/>
        <pt x="126" y="-38" on="0"/>
        <pt x="104" y="-87" on="0"/>
        <pt x="104" y="-107" on="1"/>
        <pt x="104" y="-124" on="0"/>
        <pt x="122" y="-142" on="0"/>
        <pt x="136" y="-142" on="1"/>
        <pt x="156" y="-142" on="0"/>
        <pt x="175" y="-126" on="1"/>
      </contour>
    </TTGlyph>
    <TTGlyph name="J" xMin="5" yMin="-11" xMax="338" yMax="734">
      <contour>
        <pt x="338" y="187" on="1"/>
        <pt x="338" y="97" on="0"/>
        <pt x="249" y="-11" on="0"/>
        <pt x="154" y="-11" on="1"/>
        <pt x="112" y="-11" on="0"/>
        <pt x="38" y="13" on="0"/>
        <pt x="5" y="36" on="1"/>
        <pt x="51" y="128" on="1"/>
        <pt x="74" y="113" on="0"/>
        <pt x="124" y="94" on="0"/>
        <pt x="150" y="94" on="1"/>
        <pt x="189" y="94" on="0"/>
        <pt x="225" y="142" on="0"/>
        <pt x="225" y="190" on="1"/>
        <pt x="225" y="734" on="1"/>
        <pt x="338" y="734" on="1"/>
      </contour>
    </TTGlyph>
    <TTGlyph name="K" xMin="62" yMin="0" xMax="521" yMax="733">
      <contour>
        <pt x="390" y="0" on="1"/>
        <pt x="175" y="354" on="1"/>
        <pt x="175" y="0" on="1"/>
        <pt x="62" y="0" on="1"/>
        <pt x="62" y="733" on="1"/>
        <pt x="175" y="733" on="1"/>
        <pt x="175" y="400" on="1"/>
        <pt x="382" y="733" on="1"/>
        <pt x="510" y="733" on="1"/>
        <pt x="280" y="382" on="1"/>
        <pt x="521" y="0" on="1"/>
      </contour>
    </TTGlyph>
    <TTGlyph name="Kcommaaccent" xMin="62" yMin="-289" xMax="521" yMax="733">
      <component glyphName="commaaccent" x="183" y="8" flags="0x4"/>
      <component glyphName="K" x="0" y="0" flags="0x4"/>
    </TTGlyph>
    <TTGlyph name="L" xMin="62" yMin="0" xMax="409" yMax="733">
      <contour>
        <pt x="62" y="0" on="1"/>
        <pt x="62" y="733" on="1"/>
        <pt x="175" y="733" on="1"/>
        <pt x="175" y="104" on="1"/>
        <pt x="409" y="104" on="1"/>
        <pt x="409" y="0" on="1"/>
      </contour>
    </TTGlyph>
    <TTGlyph name="Lacute" xMin="62" yMin="0" xMax="409" yMax="961">
      <component glyphName="acute" x="-14" y="297" flags="0x4"/>
      <component glyphName="L" x="0" y="0" flags="0x4"/>
    </TTGlyph>
    <TTGlyph name="Lcaron" xMin="62" yMin="0" xMax="409" yMax="734">
      <component glyphName="caron.alt" x="182" y="-5" flags="0x4"/>
      <component glyphName="L" x="0" y="0" flags="0x4"/>
    </TTGlyph>
    <TTGlyph name="Lcommaaccent" xMin="62" yMin="-297" xMax="409" yMax="733">
      <component glyphName="commaaccent" x="141" y="0" flags="0x4"/>
      <component glyphName="L" x="0" y="0" flags="0x4"/>
    </TTGlyph>
    <TTGlyph name="Ldot" xMin="62" yMin="0" xMax="409" yMax="733">
      <component glyphName="L" x="0" y="0" flags="0x204"/>
      <component glyphName="dotaccent" x="125" y="-181" flags="0x4"/>
    </TTGlyph>
    <TTGlyph name="Lslash" xMin="13" yMin="0" xMax="417" yMax="733">
      <contour>
        <pt x="71" y="0" on="1"/>
        <pt x="71" y="273" on="1"/>
        <pt x="13" y="247" on="1"/>
        <pt x="13" y="350" on="1"/>
        <pt x="71" y="376" on="1"/>
        <pt x="71" y="733" on="1"/>
        <pt x="184" y="733" on="1"/>
        <pt x="184" y="428" on="1"/>
        <pt x="281" y="472" on="1"/>
        <pt x="281" y="369" on="1"/>
        <pt x="184" y="325" on="1"/>
        <pt x="184" y="104" on="1"/>
        <pt x="417" y="104" on="1"/>
        <pt x="417" y="0" on="1"/>
      </contour>
    </TTGlyph>
    <TTGlyph name="M" xMin="54" yMin="0" xMax="630" yMax="739">
      <contour>
        <pt x="520" y="0" on="1"/>
        <pt x="512" y="429" on="1"/>
        <pt x="352" y="114" on="1"/>
        <pt x="334" y="114" on="1"/>
        <pt x="171" y="431" on="1"/>
        <pt x="164" y="0" on="1"/>
        <pt x="54" y="0" on="1"/>
        <pt x="77" y="737" on="1"/>
        <pt x="116" y="739" on="1"/>
        <pt x="346" y="300" on="1"/>
        <pt x="568" y="739" on="1"/>
        <pt x="607" y="737" on="1"/>
        <pt x="630" y="0" on="1"/>
      </contour>
    </TTGlyph>
    <TTGlyph name="M.alt" xMin="54" yMin="0" xMax="630" yMax="739">
      <contour>
        <pt x="520" y="0" on="1"/>
        <pt x="512" y="436" on="1"/>
        <pt x="352" y="131" on="1"/>
        <pt x="334" y="131" on="1"/>
        <pt x="171" y="437" on="1"/>
        <pt x="164" y="0" on="1"/>
        <pt x="54" y="0" on="1"/>
        <pt x="77" y="737" on="1"/>
        <pt x="116" y="739" on="1"/>
        <pt x="346" y="315" on="1"/>
        <pt x="568" y="739" on="1"/>
        <pt x="607" y="737" on="1"/>
        <pt x="630" y="0" on="1"/>
      </contour>
    </TTGlyph>
    <TTGlyph name="N" xMin="62" yMin="-7" xMax="527" yMax="740">
      <contour>
        <pt x="493" y="-7" on="1"/>
        <pt x="174" y="450" on="1"/>
        <pt x="174" y="0" on="1"/>
        <pt x="62" y="0" on="1"/>
        <pt x="62" y="737" on="1"/>
        <pt x="99" y="740" on="1"/>
        <pt x="415" y="290" on="1"/>
        <pt x="415" y="733" on="1"/>
        <pt x="527" y="733" on="1"/>
        <pt x="527" y="-5" on="1"/>
      </contour>
    </TTGlyph>
    <TTGlyph name="Nacute" xMin="62" yMin="-7" xMax="527" yMax="954">
      <component glyphName="acute" x="135" y="290" flags="0x4"/>
      <component glyphName="N" x="0" y="0" flags="0x4"/>
    </TTGlyph>
    <TTGlyph name="Ncaron" xMin="62" yMin="-7" xMax="527" yMax="938">
      <component glyphName="caron" x="81" y="290" flags="0x4"/>
      <component glyphName="N" x="0" y="0" flags="0x4"/>
    </TTGlyph>
    <TTGlyph name="Ncommaaccent" xMin="62" yMin="-289" xMax="527" yMax="740">
      <component glyphName="commaaccent" x="202" y="8" flags="0x4"/>
      <component glyphName="N" x="0" y="0" flags="0x4"/>
    </TTGlyph>
    <TTGlyph name="Ntilde" xMin="62" yMin="-7" xMax="527" yMax="901">
      <component glyphName="N" x="0" y="0" flags="0x204"/>
      <component glyphName="tilde" x="80" y="290" flags="0x4"/>
    </TTGlyph>
    <TTGlyph name="O" xMin="40" yMin="-11" xMax="589" yMax="744">
      <contour>
        <pt x="589" y="368" on="1"/>
        <pt x="589" y="288" on="0"/>
        <pt x="550" y="150" on="0"/>
        <pt x="478" y="48" on="0"/>
        <pt x="375" y="-11" on="0"/>
        <pt x="311" y="-11" on="1"/>
        <pt x="248" y="-11" on="0"/>
        <pt x="148" y="47" on="0"/>
        <pt x="78" y="148" on="0"/>
        <pt x="40" y="286" on="0"/>
        <pt x="40" y="366" on="1"/>
        <pt x="40" y="446" on="0"/>
        <pt x="79" y="584" on="0"/>
        <pt x="151" y="686" on="0"/>
        <pt x="254" y="744" on="0"/>
        <pt x="318" y="744" on="1"/>
        <pt x="381" y="744" on="0"/>
        <pt x="481" y="687" on="0"/>
        <pt x="551" y="586" on="0"/>
        <pt x="589" y="448" on="0"/>
      </contour>
      <contour>
        <pt x="471" y="367" on="1"/>
        <pt x="471" y="429" on="0"/>
        <pt x="449" y="531" on="0"/>
        <pt x="408" y="604" on="0"/>
        <pt x="350" y="644" on="0"/>
        <pt x="315" y="644" on="1"/>
        <pt x="279" y="644" on="0"/>
        <pt x="222" y="604" on="0"/>
        <pt x="181" y="531" on="0"/>
        <pt x="159" y="429" on="0"/>
        <pt x="159" y="367" on="1"/>
        <pt x="159" y="305" on="0"/>
        <pt x="181" y="202" on="0"/>
        <pt x="222" y="128" on="0"/>
        <pt x="279" y="88" on="0"/>
        <pt x="315" y="88" on="1"/>
        <pt x="350" y="88" on="0"/>
        <pt x="408" y="128" on="0"/>
        <pt x="449" y="202" on="0"/>
        <pt x="471" y="305" on="0"/>
      </contour>
    </TTGlyph>
    <TTGlyph name="OE" xMin="40" yMin="-5" xMax="772" yMax="738">
      <contour>
        <pt x="483" y="0" on="1"/>
        <pt x="457" y="-3" on="0"/>
        <pt x="405" y="-5" on="0"/>
        <pt x="380" y="-5" on="1"/>
        <pt x="298" y="-5" on="0"/>
        <pt x="172" y="49" on="0"/>
        <pt x="85" y="147" on="0"/>
        <pt x="40" y="282" on="0"/>
        <pt x="40" y="362" on="1"/>
        <pt x="40" y="443" on="0"/>
        <pt x="84" y="581" on="0"/>
        <pt x="169" y="682" on="0"/>
        <pt x="295" y="738" on="0"/>
        <pt x="377" y="738" on="1"/>
        <pt x="403" y="738" on="0"/>
        <pt x="456" y="735" on="0"/>
        <pt x="478" y="733" on="1"/>
        <pt x="772" y="733" on="1"/>
        <pt x="772" y="629" on="1"/>
        <pt x="527" y="629" on="1"/>
        <pt x="527" y="426" on="1"/>
        <pt x="748" y="426" on="1"/>
        <pt x="748" y="324" on="1"/>
        <pt x="527" y="324" on="1"/>
        <pt x="527" y="104" on="1"/>
        <pt x="772" y="104" on="1"/>
        <pt x="772" y="0" on="1"/>
      </contour>
      <contour>
        <pt x="414" y="633" on="1"/>
        <pt x="401" y="635" on="0"/>
        <pt x="376" y="637" on="0"/>
        <pt x="357" y="637" on="1"/>
        <pt x="309" y="637" on="0"/>
        <pt x="236" y="598" on="0"/>
        <pt x="185" y="526" on="0"/>
        <pt x="159" y="425" on="0"/>
        <pt x="159" y="362" on="1"/>
        <pt x="159" y="302" on="0"/>
        <pt x="187" y="204" on="0"/>
        <pt x="239" y="134" on="0"/>
        <pt x="315" y="96" on="0"/>
        <pt x="362" y="96" on="1"/>
        <pt x="391" y="96" on="0"/>
        <pt x="414" y="99" on="1"/>
      </contour>
    </TTGlyph>
    <TTGlyph name="Oacute" xMin="40" yMin="-11" xMax="589" yMax="960">
      <component glyphName="acute" x="155" y="296" flags="0x4"/>
      <component glyphName="O" x="0" y="0" flags="0x4"/>
    </TTGlyph>
    <TTGlyph name="Obreve" xMin="40" yMin="-11" xMax="589" yMax="922">
      <component glyphName="O" x="0" y="0" flags="0x204"/>
      <component glyphName="breve" x="99" y="296" flags="0x4"/>
    </TTGlyph>
    <TTGlyph name="Ocircumflex" xMin="40" yMin="-11" xMax="589" yMax="949">
      <component glyphName="circumflex" x="97" y="296" flags="0x4"/>
      <component glyphName="O" x="0" y="0" flags="0x4"/>
    </TTGlyph>
    <TTGlyph name="Odieresis" xMin="40" yMin="-11" xMax="589" yMax="909">
      <component glyphName="dieresis" x="99" y="296" flags="0x4"/>
      <component glyphName="O" x="0" y="0" flags="0x4"/>
    </TTGlyph>
    <TTGlyph name="Ograve" xMin="40" yMin="-11" xMax="589" yMax="960">
      <component glyphName="O" x="0" y="0" flags="0x204"/>
      <component glyphName="grave" x="31" y="296" flags="0x4"/>
    </TTGlyph>
    <TTGlyph name="Ohungarumlaut" xMin="40" yMin="-11" xMax="589" yMax="994">
      <component glyphName="hungarumlaut" x="136" y="296" flags="0x4"/>
      <component glyphName="O" x="0" y="0" flags="0x4"/>
    </TTGlyph>
    <TTGlyph name="Omacron" xMin="40" yMin="-11" xMax="589" yMax="877">
      <component glyphName="macron" x="99" y="296" flags="0x4"/>
      <component glyphName="O" x="0" y="0" flags="0x4"/>
    </TTGlyph>
    <TTGlyph name="Oslash" xMin="34" yMin="-11" xMax="591" yMax="744">
      <contour>
        <pt x="589" y="368" on="1"/>
        <pt x="589" y="288" on="0"/>
        <pt x="550" y="150" on="0"/>
        <pt x="478" y="48" on="0"/>
        <pt x="375" y="-11" on="0"/>
        <pt x="311" y="-11" on="1"/>
        <pt x="260" y="-11" on="0"/>
        <pt x="174" y="27" on="0"/>
        <pt x="140" y="62" on="1"/>
        <pt x="137" y="59" on="0"/>
        <pt x="121" y="36" on="0"/>
        <pt x="112" y="23" on="1"/>
        <pt x="101" y="8" on="0"/>
        <pt x="89" y="-9" on="1"/>
        <pt x="34" y="33" on="1"/>
        <pt x="95" y="122" on="1"/>
        <pt x="68" y="171" on="0"/>
        <pt x="40" y="295" on="0"/>
        <pt x="40" y="366" on="1"/>
        <pt x="40" y="446" on="0"/>
        <pt x="79" y="584" on="0"/>
        <pt x="151" y="686" on="0"/>
        <pt x="254" y="744" on="0"/>
        <pt x="318" y="744" on="1"/>
        <pt x="369" y="744" on="0"/>
        <pt x="453" y="708" on="0"/>
        <pt x="487" y="674" on="1"/>
        <pt x="536" y="741" on="1"/>
        <pt x="591" y="700" on="1"/>
        <pt x="532" y="615" on="1"/>
        <pt x="560" y="566" on="0"/>
        <pt x="589" y="440" on="0"/>
      </contour>
      <contour>
        <pt x="471" y="367" on="1"/>
        <pt x="471" y="405" on="0"/>
        <pt x="461" y="471" on="0"/>
        <pt x="452" y="500" on="1"/>
        <pt x="384" y="405" on="0"/>
        <pt x="331" y="329" on="1"/>
        <pt x="211" y="157" on="1"/>
        <pt x="231" y="125" on="0"/>
        <pt x="283" y="88" on="0"/>
        <pt x="315" y="88" on="1"/>
        <pt x="350" y="88" on="0"/>
        <pt x="408" y="128" on="0"/>
        <pt x="449" y="202" on="0"/>
        <pt x="471" y="305" on="0"/>
      </contour>
      <contour>
        <pt x="417" y="580" on="1"/>
        <pt x="397" y="611" on="0"/>
        <pt x="346" y="644" on="0"/>
        <pt x="315" y="644" on="1"/>
        <pt x="279" y="644" on="0"/>
        <pt x="222" y="604" on="0"/>
        <pt x="181" y="531" on="0"/>
        <pt x="159" y="429" on="0"/>
        <pt x="159" y="367" on="1"/>
        <pt x="159" y="295" on="0"/>
        <pt x="177" y="241" on="1"/>
      </contour>
    </TTGlyph>
    <TTGlyph name="Oslashacute" xMin="34" yMin="-11" xMax="591" yMax="960">
      <component glyphName="Oslash" x="0" y="0" flags="0x204"/>
      <component glyphName="acute" x="154" y="296" flags="0x4"/>
    </TTGlyph>
    <TTGlyph name="Otilde" xMin="40" yMin="-11" xMax="589" yMax="907">
      <component glyphName="O" x="0" y="0" flags="0x204"/>
      <component glyphName="tilde" x="100" y="296" flags="0x4"/>
    </TTGlyph>
    <TTGlyph name="P" xMin="62" yMin="0" xMax="469" yMax="739">
      <contour>
        <pt x="469" y="494" on="1"/>
        <pt x="469" y="443" on="0"/>
        <pt x="438" y="353" on="0"/>
        <pt x="376" y="284" on="0"/>
        <pt x="283" y="244" on="0"/>
        <pt x="222" y="244" on="1"/>
        <pt x="210" y="244" on="0"/>
        <pt x="187" y="245" on="0"/>
        <pt x="175" y="246" on="1"/>
        <pt x="175" y="0" on="1"/>
        <pt x="62" y="0" on="1"/>
        <pt x="62" y="729" on="1"/>
        <pt x="97" y="734" on="0"/>
        <pt x="167" y="739" on="0"/>
        <pt x="207" y="739" on="1"/>
        <pt x="274" y="739" on="0"/>
        <pt x="372" y="700" on="0"/>
        <pt x="437" y="632" on="0"/>
        <pt x="469" y="543" on="0"/>
      </contour>
      <contour>
        <pt x="353" y="490" on="1"/>
        <pt x="353" y="555" on="0"/>
        <pt x="286" y="635" on="0"/>
        <pt x="225" y="635" on="1"/>
        <pt x="210" y="635" on="0"/>
        <pt x="189" y="633" on="0"/>
        <pt x="175" y="631" on="1"/>
        <pt x="175" y="347" on="1"/>
        <pt x="197" y="344" on="0"/>
        <pt x="219" y="344" on="1"/>
        <pt x="285" y="344" on="0"/>
        <pt x="353" y="422" on="0"/>
      </contour>
    </TTGlyph>
    <TTGlyph name="Q" xMin="40" yMin="-25" xMax="604" yMax="744">
      <contour>
        <pt x="536" y="-25" on="1"/>
        <pt x="520" y="-7" on="0"/>
        <pt x="506" y="8" on="1"/>
        <pt x="494" y="21" on="0"/>
        <pt x="472" y="43" on="0"/>
        <pt x="468" y="47" on="1"/>
        <pt x="436" y="19" on="0"/>
        <pt x="356" y="-11" on="0"/>
        <pt x="311" y="-11" on="1"/>
        <pt x="248" y="-11" on="0"/>
        <pt x="148" y="47" on="0"/>
        <pt x="78" y="148" on="0"/>
        <pt x="40" y="286" on="0"/>
        <pt x="40" y="366" on="1"/>
        <pt x="40" y="446" on="0"/>
        <pt x="79" y="584" on="0"/>
        <pt x="151" y="686" on="0"/>
        <pt x="254" y="744" on="0"/>
        <pt x="318" y="744" on="1"/>
        <pt x="381" y="744" on="0"/>
        <pt x="481" y="687" on="0"/>
        <pt x="551" y="586" on="0"/>
        <pt x="589" y="448" on="0"/>
        <pt x="589" y="368" on="1"/>
        <pt x="589" y="299" on="0"/>
        <pt x="560" y="174" on="0"/>
        <pt x="532" y="125" on="1"/>
        <pt x="535" y="121" on="0"/>
        <pt x="558" y="98" on="0"/>
        <pt x="571" y="84" on="1"/>
        <pt x="586" y="68" on="0"/>
        <pt x="604" y="49" on="1"/>
      </contour>
      <contour>
        <pt x="471" y="364" on="1"/>
        <pt x="471" y="427" on="0"/>
        <pt x="449" y="531" on="0"/>
        <pt x="408" y="604" on="0"/>
        <pt x="350" y="644" on="0"/>
        <pt x="315" y="644" on="1"/>
        <pt x="279" y="644" on="0"/>
        <pt x="222" y="604" on="0"/>
        <pt x="181" y="531" on="0"/>
        <pt x="159" y="429" on="0"/>
        <pt x="159" y="367" on="1"/>
        <pt x="159" y="304" on="0"/>
        <pt x="181" y="202" on="0"/>
        <pt x="222" y="128" on="0"/>
        <pt x="280" y="88" on="0"/>
        <pt x="316" y="88" on="1"/>
        <pt x="361" y="88" on="0"/>
        <pt x="396" y="121" on="1"/>
        <pt x="389" y="128" on="0"/>
        <pt x="381" y="137" on="1"/>
        <pt x="374" y="145" on="0"/>
        <pt x="356" y="163" on="0"/>
        <pt x="347" y="174" on="1"/>
        <pt x="325" y="197" on="0"/>
        <pt x="297" y="227" on="1"/>
        <pt x="361" y="304" on="1"/>
        <pt x="385" y="277" on="0"/>
        <pt x="404" y="257" on="1"/>
        <pt x="412" y="248" on="0"/>
        <pt x="427" y="232" on="0"/>
        <pt x="433" y="225" on="1"/>
        <pt x="440" y="217" on="0"/>
        <pt x="447" y="210" on="1"/>
        <pt x="458" y="242" on="0"/>
        <pt x="471" y="319" on="0"/>
      </contour>
    </TTGlyph>
    <TTGlyph name="R" xMin="63" yMin="0" xMax="501" yMax="739">
      <contour>
        <pt x="376" y="0" on="1"/>
        <pt x="256" y="272" on="1"/>
        <pt x="248" y="271" on="0"/>
        <pt x="231" y="271" on="0"/>
        <pt x="223" y="271" on="1"/>
        <pt x="212" y="271" on="0"/>
        <pt x="187" y="271" on="0"/>
        <pt x="176" y="272" on="1"/>
        <pt x="176" y="0" on="1"/>
        <pt x="63" y="0" on="1"/>
        <pt x="63" y="729" on="1"/>
        <pt x="95" y="733" on="0"/>
        <pt x="168" y="739" on="0"/>
        <pt x="209" y="739" on="1"/>
        <pt x="278" y="739" on="0"/>
        <pt x="377" y="702" on="0"/>
        <pt x="441" y="638" on="0"/>
        <pt x="472" y="554" on="0"/>
        <pt x="472" y="508" on="1"/>
        <pt x="472" y="436" on="0"/>
        <pt x="411" y="335" on="0"/>
        <pt x="356" y="305" on="1"/>
        <pt x="501" y="0" on="1"/>
      </contour>
      <contour>
        <pt x="356" y="502" on="1"/>
        <pt x="356" y="564" on="0"/>
        <pt x="287" y="636" on="0"/>
        <pt x="223" y="636" on="1"/>
        <pt x="199" y="636" on="0"/>
        <pt x="176" y="632" on="1"/>
        <pt x="176" y="367" on="1"/>
        <pt x="198" y="364" on="0"/>
        <pt x="221" y="364" on="1"/>
        <pt x="287" y="364" on="0"/>
        <pt x="356" y="434" on="0"/>
      </contour>
    </TTGlyph>
    <TTGlyph name="Racute" xMin="63" yMin="0" xMax="501" yMax="957">
      <component glyphName="acute" x="97" y="293" flags="0x4"/>
      <component glyphName="R" x="0" y="0" flags="0x4"/>
    </TTGlyph>
    <TTGlyph name="Rcaron" xMin="63" yMin="0" xMax="501" yMax="941">
      <component glyphName="caron" x="43" y="293" flags="0x4"/>
      <component glyphName="R" x="0" y="0" flags="0x4"/>
    </TTGlyph>
    <TTGlyph name="Rcommaaccent" xMin="63" yMin="-289" xMax="501" yMax="739">
      <component glyphName="commaaccent" x="164" y="8" flags="0x4"/>
      <component glyphName="R" x="0" y="0" flags="0x4"/>
    </TTGlyph>
    <TTGlyph name="S" xMin="16" yMin="-11" xMax="413" yMax="744">
      <contour>
        <pt x="413" y="192" on="1"/>
        <pt x="413" y="150" on="0"/>
        <pt x="385" y="76" on="0"/>
        <pt x="333" y="21" on="0"/>
        <pt x="258" y="-11" on="0"/>
        <pt x="211" y="-11" on="1"/>
        <pt x="160" y="-11" on="0"/>
        <pt x="59" y="25" on="0"/>
        <pt x="16" y="54" on="1"/>
        <pt x="56" y="155" on="1"/>
        <pt x="91" y="128" on="0"/>
        <pt x="171" y="94" on="0"/>
        <pt x="209" y="94" on="1"/>
        <pt x="256" y="94" on="0"/>
        <pt x="299" y="146" on="0"/>
        <pt x="299" y="184" on="1"/>
        <pt x="299" y="204" on="0"/>
        <pt x="287" y="239" on="0"/>
        <pt x="260" y="275" on="0"/>
        <pt x="215" y="313" on="0"/>
        <pt x="182" y="337" on="1"/>
        <pt x="110" y="387" on="0"/>
        <pt x="39" y="488" on="0"/>
        <pt x="39" y="551" on="1"/>
        <pt x="39" y="590" on="0"/>
        <pt x="67" y="660" on="0"/>
        <pt x="120" y="713" on="0"/>
        <pt x="194" y="744" on="0"/>
        <pt x="240" y="744" on="1"/>
        <pt x="289" y="744" on="0"/>
        <pt x="369" y="716" on="0"/>
        <pt x="401" y="693" on="1"/>
        <pt x="362" y="593" on="1"/>
        <pt x="333" y="615" on="0"/>
        <pt x="273" y="641" on="0"/>
        <pt x="241" y="641" on="1"/>
        <pt x="197" y="641" on="0"/>
        <pt x="153" y="592" on="0"/>
        <pt x="153" y="556" on="1"/>
        <pt x="153" y="519" on="0"/>
        <pt x="206" y="459" on="0"/>
        <pt x="262" y="419" on="1"/>
        <pt x="301" y="392" on="0"/>
        <pt x="358" y="340" on="0"/>
        <pt x="395" y="286" on="0"/>
        <pt x="413" y="226" on="0"/>
      </contour>
    </TTGlyph>
    <TTGlyph name="Sacute" xMin="16" yMin="-11" xMax="413" yMax="960">
      <component glyphName="acute" x="66" y="296" flags="0x4"/>
      <component glyphName="S" x="0" y="0" flags="0x4"/>
    </TTGlyph>
    <TTGlyph name="Scaron" xMin="16" yMin="-11" xMax="413" yMax="944">
      <component glyphName="caron" x="12" y="296" flags="0x4"/>
      <component glyphName="S" x="0" y="0" flags="0x4"/>
    </TTGlyph>
    <TTGlyph name="Scedilla" xMin="16" yMin="-215" xMax="413" yMax="744">
      <contour>
        <pt x="316" y="-126" on="1"/>
        <pt x="316" y="-162" on="0"/>
        <pt x="266" y="-215" on="0"/>
        <pt x="216" y="-215" on="1"/>
        <pt x="191" y="-215" on="0"/>
        <pt x="140" y="-198" on="0"/>
        <pt x="113" y="-182" on="1"/>
        <pt x="137" y="-128" on="1"/>
        <pt x="180" y="-157" on="0"/>
        <pt x="219" y="-157" on="1"/>
        <pt x="233" y="-157" on="0"/>
        <pt x="251" y="-142" on="0"/>
        <pt x="251" y="-128" on="1"/>
        <pt x="251" y="-114" on="0"/>
        <pt x="215" y="-91" on="0"/>
        <pt x="167" y="-89" on="1"/>
        <pt x="164" y="-82" on="1"/>
        <pt x="183" y="-10" on="1"/>
        <pt x="139" y="-5" on="0"/>
        <pt x="53" y="28" on="0"/>
        <pt x="16" y="54" on="1"/>
        <pt x="56" y="155" on="1"/>
        <pt x="91" y="128" on="0"/>
        <pt x="171" y="94" on="0"/>
        <pt x="209" y="94" on="1"/>
        <pt x="256" y="94" on="0"/>
        <pt x="299" y="146" on="0"/>
        <pt x="299" y="184" on="1"/>
        <pt x="299" y="204" on="0"/>
        <pt x="287" y="239" on="0"/>
        <pt x="260" y="275" on="0"/>
        <pt x="215" y="313" on="0"/>
        <pt x="182" y="337" on="1"/>
        <pt x="110" y="387" on="0"/>
        <pt x="39" y="488" on="0"/>
        <pt x="39" y="551" on="1"/>
        <pt x="39" y="590" on="0"/>
        <pt x="67" y="660" on="0"/>
        <pt x="120" y="713" on="0"/>
        <pt x="194" y="744" on="0"/>
        <pt x="240" y="744" on="1"/>
        <pt x="289" y="744" on="0"/>
        <pt x="369" y="716" on="0"/>
        <pt x="401" y="693" on="1"/>
        <pt x="362" y="593" on="1"/>
        <pt x="333" y="615" on="0"/>
        <pt x="273" y="641" on="0"/>
        <pt x="241" y="641" on="1"/>
        <pt x="197" y="641" on="0"/>
        <pt x="153" y="592" on="0"/>
        <pt x="153" y="556" on="1"/>
        <pt x="153" y="519" on="0"/>
        <pt x="206" y="459" on="0"/>
        <pt x="262" y="419" on="1"/>
        <pt x="301" y="392" on="0"/>
        <pt x="358" y="340" on="0"/>
        <pt x="395" y="286" on="0"/>
        <pt x="413" y="226" on="0"/>
        <pt x="413" y="192" on="1"/>
        <pt x="413" y="152" on="0"/>
        <pt x="388" y="81" on="0"/>
        <pt x="341" y="27" on="0"/>
        <pt x="273" y="-7" on="0"/>
        <pt x="230" y="-10" on="1"/>
        <pt x="223" y="-40" on="1"/>
        <pt x="275" y="-51" on="0"/>
        <pt x="316" y="-97" on="0"/>
      </contour>
    </TTGlyph>
    <TTGlyph name="Scommaaccent" xMin="16" yMin="-297" xMax="413" yMax="744">
      <component glyphName="commaaccent" x="127" y="0" flags="0x4"/>
      <component glyphName="S" x="0" y="0" flags="0x4"/>
    </TTGlyph>
    <TTGlyph name="T" xMin="20" yMin="0" xMax="465" yMax="733">
      <contour>
        <pt x="299" y="628" on="1"/>
        <pt x="299" y="0" on="1"/>
        <pt x="186" y="0" on="1"/>
        <pt x="186" y="628" on="1"/>
        <pt x="20" y="628" on="1"/>
        <pt x="20" y="733" on="1"/>
        <pt x="465" y="733" on="1"/>
        <pt x="465" y="628" on="1"/>
      </contour>
    </TTGlyph>
    <TTGlyph name="Tcaron" xMin="20" yMin="0" xMax="465" yMax="941">
      <component glyphName="caron" x="28" y="293" flags="0x4"/>
      <component glyphName="T" x="0" y="0" flags="0x4"/>
    </TTGlyph>
    <TTGlyph name="Tcommaaccent" xMin="20" yMin="-297" xMax="465" yMax="733">
      <component glyphName="commaaccent" x="150" y="0" flags="0x4"/>
      <component glyphName="T" x="0" y="0" flags="0x4"/>
    </TTGlyph>
    <TTGlyph name="Thorn" xMin="62" yMin="0" xMax="469" yMax="733">
      <contour>
        <pt x="469" y="378" on="1"/>
        <pt x="469" y="328" on="0"/>
        <pt x="438" y="237" on="0"/>
        <pt x="376" y="169" on="0"/>
        <pt x="283" y="129" on="0"/>
        <pt x="222" y="129" on="1"/>
        <pt x="210" y="129" on="0"/>
        <pt x="187" y="129" on="0"/>
        <pt x="175" y="131" on="1"/>
        <pt x="175" y="0" on="1"/>
        <pt x="62" y="0" on="1"/>
        <pt x="62" y="733" on="1"/>
        <pt x="175" y="733" on="1"/>
        <pt x="175" y="623" on="1"/>
        <pt x="182" y="623" on="0"/>
        <pt x="204" y="624" on="0"/>
        <pt x="212" y="624" on="1"/>
        <pt x="277" y="623" on="0"/>
        <pt x="374" y="583" on="0"/>
        <pt x="438" y="516" on="0"/>
        <pt x="469" y="427" on="0"/>
      </contour>
      <contour>
        <pt x="353" y="375" on="1"/>
        <pt x="353" y="440" on="0"/>
        <pt x="286" y="519" on="0"/>
        <pt x="225" y="519" on="1"/>
        <pt x="210" y="519" on="0"/>
        <pt x="189" y="518" on="0"/>
        <pt x="175" y="516" on="1"/>
        <pt x="175" y="231" on="1"/>
        <pt x="186" y="230" on="0"/>
        <pt x="208" y="228" on="0"/>
        <pt x="219" y="228" on="1"/>
        <pt x="285" y="228" on="0"/>
        <pt x="353" y="306" on="0"/>
      </contour>
    </TTGlyph>
    <TTGlyph name="U" xMin="58" yMin="-11" xMax="515" yMax="733">
      <contour>
        <pt x="515" y="230" on="1"/>
        <pt x="515" y="170" on="0"/>
        <pt x="481" y="79" on="0"/>
        <pt x="420" y="19" on="0"/>
        <pt x="335" y="-11" on="0"/>
        <pt x="284" y="-11" on="1"/>
        <pt x="181" y="-11" on="0"/>
        <pt x="58" y="109" on="0"/>
        <pt x="58" y="230" on="1"/>
        <pt x="58" y="733" on="1"/>
        <pt x="171" y="733" on="1"/>
        <pt x="171" y="228" on="1"/>
        <pt x="171" y="157" on="0"/>
        <pt x="233" y="91" on="0"/>
        <pt x="287" y="91" on="1"/>
        <pt x="340" y="91" on="0"/>
        <pt x="402" y="157" on="0"/>
        <pt x="402" y="228" on="1"/>
        <pt x="402" y="733" on="1"/>
        <pt x="515" y="733" on="1"/>
      </contour>
    </TTGlyph>
    <TTGlyph name="Uacute" xMin="58" yMin="-11" xMax="515" yMax="954">
      <component glyphName="acute" x="127" y="290" flags="0x4"/>
      <component glyphName="U" x="0" y="0" flags="0x4"/>
    </TTGlyph>
    <TTGlyph name="Ubreve" xMin="58" yMin="-11" xMax="515" yMax="916">
      <component glyphName="U" x="0" y="0" flags="0x204"/>
      <component glyphName="breve" x="71" y="290" flags="0x4"/>
    </TTGlyph>
    <TTGlyph name="Ucircumflex" xMin="58" yMin="-11" xMax="515" yMax="943">
      <component glyphName="circumflex" x="69" y="290" flags="0x4"/>
      <component glyphName="U" x="0" y="0" flags="0x4"/>
    </TTGlyph>
    <TTGlyph name="Udieresis" xMin="58" yMin="-11" xMax="515" yMax="903">
      <component glyphName="dieresis" x="71" y="290" flags="0x4"/>
      <component glyphName="U" x="0" y="0" flags="0x4"/>
    </TTGlyph>
    <TTGlyph name="Ugrave" xMin="58" yMin="-11" xMax="515" yMax="954">
      <component glyphName="U" x="0" y="0" flags="0x204"/>
      <component glyphName="grave" x="3" y="290" flags="0x4"/>
    </TTGlyph>
    <TTGlyph name="Uhungarumlaut" xMin="58" yMin="-11" xMax="515" yMax="988">
      <component glyphName="U" x="0" y="0" flags="0x204"/>
      <component glyphName="hungarumlaut" x="108" y="290" flags="0x4"/>
    </TTGlyph>
    <TTGlyph name="Umacron" xMin="58" yMin="-11" xMax="515" yMax="871">
      <component glyphName="U" x="0" y="0" flags="0x204"/>
      <component glyphName="macron" x="71" y="290" flags="0x4"/>
    </TTGlyph>
    <TTGlyph name="Uogonek" xMin="58" yMin="-205" xMax="515" yMax="733">
      <contour>
        <pt x="515" y="230" on="1"/>
        <pt x="515" y="176" on="0"/>
        <pt x="488" y="92" on="0"/>
        <pt x="438" y="33" on="0"/>
        <pt x="369" y="-2" on="0"/>
        <pt x="326" y="-8" on="1"/>
        <pt x="302" y="-42" on="0"/>
        <pt x="282" y="-88" on="0"/>
        <pt x="282" y="-106" on="1"/>
        <pt x="282" y="-123" on="0"/>
        <pt x="299" y="-142" on="0"/>
        <pt x="313" y="-142" on="1"/>
        <pt x="335" y="-142" on="0"/>
        <pt x="352" y="-125" on="1"/>
        <pt x="377" y="-165" on="1"/>
        <pt x="361" y="-182" on="0"/>
        <pt x="317" y="-205" on="0"/>
        <pt x="288" y="-205" on="1"/>
        <pt x="251" y="-205" on="0"/>
        <pt x="209" y="-161" on="0"/>
        <pt x="209" y="-126" on="1"/>
        <pt x="209" y="-98" on="0"/>
        <pt x="234" y="-45" on="0"/>
        <pt x="262" y="-10" on="1"/>
        <pt x="168" y="-4" on="0"/>
        <pt x="58" y="115" on="0"/>
        <pt x="58" y="230" on="1"/>
        <pt x="58" y="733" on="1"/>
        <pt x="171" y="733" on="1"/>
        <pt x="171" y="228" on="1"/>
        <pt x="171" y="157" on="0"/>
        <pt x="233" y="91" on="0"/>
        <pt x="287" y="91" on="1"/>
        <pt x="340" y="91" on="0"/>
        <pt x="402" y="157" on="0"/>
        <pt x="402" y="228" on="1"/>
        <pt x="402" y="733" on="1"/>
        <pt x="515" y="733" on="1"/>
      </contour>
    </TTGlyph>
    <TTGlyph name="Uring" xMin="58" yMin="-11" xMax="515" yMax="992">
      <component glyphName="ring" x="71" y="290" flags="0x4"/>
      <component glyphName="U" x="0" y="0" flags="0x4"/>
    </TTGlyph>
    <TTGlyph name="V" xMin="5" yMin="-8" xMax="532" yMax="733">
      <contour>
        <pt x="294" y="-8" on="1"/>
        <pt x="243" y="-8" on="1"/>
        <pt x="5" y="733" on="1"/>
        <pt x="126" y="733" on="1"/>
        <pt x="270" y="238" on="1"/>
        <pt x="412" y="733" on="1"/>
        <pt x="532" y="733" on="1"/>
      </contour>
    </TTGlyph>
    <TTGlyph name="W" xMin="8" yMin="-7" xMax="745" yMax="736">
      <contour>
        <pt x="581" y="-6" on="1"/>
        <pt x="538" y="-7" on="1"/>
        <pt x="375" y="479" on="1"/>
        <pt x="217" y="-7" on="1"/>
        <pt x="174" y="-6" on="1"/>
        <pt x="8" y="733" on="1"/>
        <pt x="128" y="733" on="1"/>
        <pt x="216" y="272" on="1"/>
        <pt x="358" y="736" on="1"/>
        <pt x="396" y="736" on="1"/>
        <pt x="540" y="274" on="1"/>
        <pt x="627" y="733" on="1"/>
        <pt x="745" y="733" on="1"/>
      </contour>
    </TTGlyph>
    <TTGlyph name="Wacute" xMin="8" yMin="-7" xMax="745" yMax="957">
      <component glyphName="acute" x="217" y="293" flags="0x4"/>
      <component glyphName="W" x="0" y="0" flags="0x4"/>
    </TTGlyph>
    <TTGlyph name="Wcircumflex" xMin="8" yMin="-7" xMax="745" yMax="946">
      <component glyphName="circumflex" x="159" y="293" flags="0x4"/>
      <component glyphName="W" x="0" y="0" flags="0x4"/>
    </TTGlyph>
    <TTGlyph name="Wdieresis" xMin="8" yMin="-7" xMax="745" yMax="906">
      <component glyphName="dieresis" x="161" y="293" flags="0x4"/>
      <component glyphName="W" x="0" y="0" flags="0x4"/>
    </TTGlyph>
    <TTGlyph name="Wgrave" xMin="8" yMin="-7" xMax="745" yMax="957">
      <component glyphName="W" x="0" y="0" flags="0x204"/>
      <component glyphName="grave" x="94" y="293" flags="0x4"/>
    </TTGlyph>
    <TTGlyph name="X" xMin="9" yMin="0" xMax="521" yMax="733">
      <contour>
        <pt x="199" y="366" on="1"/>
        <pt x="12" y="733" on="1"/>
        <pt x="138" y="733" on="1"/>
        <pt x="267" y="467" on="1"/>
        <pt x="395" y="733" on="1"/>
        <pt x="518" y="733" on="1"/>
        <pt x="332" y="371" on="1"/>
        <pt x="521" y="0" on="1"/>
        <pt x="395" y="0" on="1"/>
        <pt x="265" y="271" on="1"/>
        <pt x="132" y="0" on="1"/>
        <pt x="9" y="0" on="1"/>
      </contour>
    </TTGlyph>
    <TTGlyph name="Y" xMin="4" yMin="0" xMax="512" yMax="733">
      <contour>
        <pt x="315" y="287" on="1"/>
        <pt x="315" y="0" on="1"/>
        <pt x="202" y="0" on="1"/>
        <pt x="202" y="288" on="1"/>
        <pt x="4" y="733" on="1"/>
        <pt x="126" y="733" on="1"/>
        <pt x="259" y="412" on="1"/>
        <pt x="391" y="733" on="1"/>
        <pt x="512" y="733" on="1"/>
      </contour>
    </TTGlyph>
    <TTGlyph name="Yacute" xMin="4" yMin="0" xMax="512" yMax="954">
      <component glyphName="Y" x="0" y="0" flags="0x204"/>
      <component glyphName="acute" x="98" y="290" flags="0x4"/>
    </TTGlyph>
    <TTGlyph name="Ycircumflex" xMin="4" yMin="0" xMax="512" yMax="943">
      <component glyphName="Y" x="0" y="0" flags="0x204"/>
      <component glyphName="circumflex" x="40" y="290" flags="0x4"/>
    </TTGlyph>
    <TTGlyph name="Ydieresis" xMin="4" yMin="0" xMax="512" yMax="903">
      <component glyphName="Y" x="0" y="0" flags="0x204"/>
      <component glyphName="dieresis" x="42" y="290" flags="0x4"/>
    </TTGlyph>
    <TTGlyph name="Ygrave" xMin="4" yMin="0" xMax="512" yMax="954">
      <component glyphName="Y" x="0" y="0" flags="0x204"/>
      <component glyphName="grave" x="-23" y="290" flags="0x4"/>
    </TTGlyph>
    <TTGlyph name="Z" xMin="19" yMin="0" xMax="473" yMax="733">
      <contour>
        <pt x="183" y="104" on="1"/>
        <pt x="465" y="104" on="1"/>
        <pt x="465" y="0" on="1"/>
        <pt x="23" y="0" on="1"/>
        <pt x="19" y="15" on="1"/>
        <pt x="311" y="628" on="1"/>
        <pt x="39" y="628" on="1"/>
        <pt x="39" y="733" on="1"/>
        <pt x="469" y="733" on="1"/>
        <pt x="473" y="717" on="1"/>
      </contour>
    </TTGlyph>
    <TTGlyph name="Zacute" xMin="19" yMin="0" xMax="473" yMax="957">
      <component glyphName="acute" x="88" y="293" flags="0x4"/>
      <component glyphName="Z" x="0" y="0" flags="0x4"/>
    </TTGlyph>
    <TTGlyph name="Zcaron" xMin="19" yMin="0" xMax="473" yMax="941">
      <component glyphName="caron" x="34" y="293" flags="0x4"/>
      <component glyphName="Z" x="0" y="0" flags="0x4"/>
    </TTGlyph>
    <TTGlyph name="Zdotaccent" xMin="19" yMin="0" xMax="473" yMax="906">
      <component glyphName="Z" x="0" y="0" flags="0x204"/>
      <component glyphName="dotaccent" x="39" y="293" flags="0x4"/>
    </TTGlyph>
    <TTGlyph name="a" xMin="22" yMin="-8" xMax="351" yMax="455">
      <contour>
        <pt x="253" y="0" on="1"/>
        <pt x="253" y="44" on="1"/>
        <pt x="233" y="21" on="0"/>
        <pt x="180" y="-8" on="0"/>
        <pt x="146" y="-8" on="1"/>
        <pt x="120" y="-8" on="0"/>
        <pt x="75" y="11" on="0"/>
        <pt x="42" y="47" on="0"/>
        <pt x="22" y="100" on="0"/>
        <pt x="22" y="134" on="1"/>
        <pt x="22" y="164" on="0"/>
        <pt x="41" y="217" on="0"/>
        <pt x="76" y="255" on="0"/>
        <pt x="126" y="277" on="0"/>
        <pt x="156" y="277" on="1"/>
        <pt x="187" y="277" on="0"/>
        <pt x="230" y="263" on="0"/>
        <pt x="249" y="250" on="1"/>
        <pt x="249" y="293" on="1"/>
        <pt x="249" y="332" on="0"/>
        <pt x="210" y="367" on="0"/>
        <pt x="169" y="367" on="1"/>
        <pt x="121" y="367" on="0"/>
        <pt x="75" y="349" on="1"/>
        <pt x="63" y="433" on="1"/>
        <pt x="91" y="443" on="0"/>
        <pt x="155" y="455" on="0"/>
        <pt x="186" y="455" on="1"/>
        <pt x="268" y="455" on="0"/>
        <pt x="351" y="379" on="0"/>
        <pt x="351" y="294" on="1"/>
        <pt x="351" y="0" on="1"/>
      </contour>
      <contour>
        <pt x="249" y="188" on="1"/>
        <pt x="233" y="199" on="0"/>
        <pt x="205" y="210" on="0"/>
        <pt x="185" y="210" on="1"/>
        <pt x="158" y="210" on="0"/>
        <pt x="121" y="175" on="0"/>
        <pt x="121" y="138" on="1"/>
        <pt x="121" y="103" on="0"/>
        <pt x="157" y="66" on="0"/>
        <pt x="185" y="66" on="1"/>
        <pt x="207" y="66" on="0"/>
        <pt x="238" y="86" on="0"/>
        <pt x="249" y="100" on="1"/>
      </contour>
    </TTGlyph>
    <TTGlyph name="aacute" xMin="22" yMin="-8" xMax="352" yMax="664">
      <component glyphName="a" x="0" y="0" flags="0x204"/>
      <component glyphName="acute" x="40" y="0" flags="0x4"/>
    </TTGlyph>
    <TTGlyph name="abreve" xMin="22" yMin="-8" xMax="351" yMax="626">
      <component glyphName="a" x="0" y="0" flags="0x204"/>
      <component glyphName="breve" x="-14" y="0" flags="0x4"/>
    </TTGlyph>
    <TTGlyph name="acircumflex" xMin="22" yMin="-8" xMax="351" yMax="653">
      <component glyphName="a" x="0" y="0" flags="0x204"/>
      <component glyphName="circumflex" x="-16" y="0" flags="0x4"/>
    </TTGlyph>
    <TTGlyph name="acute" xMin="108" yMin="492" xMax="312" yMax="664">
      <contour>
        <pt x="137" y="492" on="1"/>
        <pt x="108" y="539" on="1"/>
        <pt x="262" y="664" on="1"/>
        <pt x="312" y="579" on="1"/>
      </contour>
    </TTGlyph>
    <TTGlyph name="adieresis" xMin="22" yMin="-8" xMax="351" yMax="613">
      <component glyphName="a" x="0" y="0" flags="0x204"/>
      <component glyphName="dieresis" x="-14" y="0" flags="0x4"/>
    </TTGlyph>
    <TTGlyph name="ae" xMin="25" yMin="-9" xMax="594" yMax="455">
      <contour>
        <pt x="252" y="293" on="1"/>
        <pt x="252" y="332" on="0"/>
        <pt x="213" y="367" on="0"/>
        <pt x="172" y="367" on="1"/>
        <pt x="126" y="367" on="0"/>
        <pt x="78" y="349" on="1"/>
        <pt x="66" y="433" on="1"/>
        <pt x="94" y="443" on="0"/>
        <pt x="157" y="455" on="0"/>
        <pt x="188" y="455" on="1"/>
        <pt x="238" y="455" on="0"/>
        <pt x="296" y="425" on="0"/>
        <pt x="313" y="394" on="1"/>
        <pt x="333" y="422" on="0"/>
        <pt x="394" y="455" on="0"/>
        <pt x="435" y="455" on="1"/>
        <pt x="474" y="455" on="0"/>
        <pt x="533" y="422" on="0"/>
        <pt x="574" y="364" on="0"/>
        <pt x="594" y="285" on="0"/>
        <pt x="594" y="240" on="1"/>
        <pt x="594" y="229" on="0"/>
        <pt x="593" y="201" on="0"/>
        <pt x="591" y="190" on="1"/>
        <pt x="349" y="190" on="1"/>
        <pt x="351" y="138" on="0"/>
        <pt x="403" y="76" on="0"/>
        <pt x="459" y="76" on="1"/>
        <pt x="481" y="76" on="0"/>
        <pt x="532" y="89" on="0"/>
        <pt x="559" y="99" on="1"/>
        <pt x="572" y="18" on="1"/>
        <pt x="538" y="5" on="0"/>
        <pt x="476" y="-9" on="0"/>
        <pt x="447" y="-9" on="1"/>
        <pt x="392" y="-9" on="0"/>
        <pt x="317" y="35" on="0"/>
        <pt x="297" y="76" on="1"/>
        <pt x="274" y="33" on="0"/>
        <pt x="203" y="-8" on="0"/>
        <pt x="158" y="-8" on="1"/>
        <pt x="101" y="-8" on="0"/>
        <pt x="25" y="65" on="0"/>
        <pt x="25" y="134" on="1"/>
        <pt x="25" y="164" on="0"/>
        <pt x="44" y="217" on="0"/>
        <pt x="79" y="255" on="0"/>
        <pt x="129" y="277" on="0"/>
        <pt x="159" y="277" on="1"/>
        <pt x="189" y="277" on="0"/>
        <pt x="234" y="262" on="0"/>
        <pt x="252" y="248" on="1"/>
      </contour>
      <contour>
        <pt x="503" y="256" on="1"/>
        <pt x="501" y="307" on="0"/>
        <pt x="465" y="371" on="0"/>
        <pt x="430" y="371" on="1"/>
        <pt x="397" y="371" on="0"/>
        <pt x="356" y="313" on="0"/>
        <pt x="351" y="256" on="1"/>
      </contour>
      <contour>
        <pt x="258" y="179" on="1"/>
        <pt x="244" y="193" on="0"/>
        <pt x="210" y="211" on="0"/>
        <pt x="187" y="211" on="1"/>
        <pt x="161" y="211" on="0"/>
        <pt x="124" y="176" on="0"/>
        <pt x="124" y="139" on="1"/>
        <pt x="124" y="104" on="0"/>
        <pt x="157" y="68" on="0"/>
        <pt x="183" y="68" on="1"/>
        <pt x="209" y="68" on="0"/>
        <pt x="251" y="116" on="0"/>
      </contour>
    </TTGlyph>
    <TTGlyph name="aeacute" xMin="25" yMin="-9" xMax="594" yMax="664">
      <component glyphName="acute" x="157" y="0" flags="0x4"/>
      <component glyphName="ae" x="0" y="0" flags="0x4"/>
    </TTGlyph>
    <TTGlyph name="agrave" xMin="22" yMin="-8" xMax="351" yMax="664">
      <component glyphName="a" x="0" y="0" flags="0x204"/>
      <component glyphName="grave" x="-81" y="0" flags="0x4"/>
    </TTGlyph>
    <TTGlyph name="amacron" xMin="22" yMin="-8" xMax="351" yMax="581">
      <component glyphName="a" x="0" y="0" flags="0x204"/>
      <component glyphName="macron" x="-13" y="0" flags="0x4"/>
    </TTGlyph>
    <TTGlyph name="ampersand" xMin="29" yMin="-15" xMax="514" yMax="676">
      <contour>
        <pt x="514" y="280" on="1"/>
        <pt x="494" y="238" on="0"/>
        <pt x="452" y="162" on="0"/>
        <pt x="430" y="130" on="1"/>
        <pt x="470" y="83" on="0"/>
        <pt x="509" y="45" on="1"/>
        <pt x="435" y="-15" on="1"/>
        <pt x="366" y="58" on="1"/>
        <pt x="332" y="25" on="0"/>
        <pt x="256" y="-11" on="0"/>
        <pt x="211" y="-11" on="1"/>
        <pt x="173" y="-11" on="0"/>
        <pt x="106" y="14" on="0"/>
        <pt x="57" y="61" on="0"/>
        <pt x="29" y="128" on="0"/>
        <pt x="29" y="170" on="1"/>
        <pt x="29" y="226" on="0"/>
        <pt x="91" y="326" on="0"/>
        <pt x="150" y="359" on="1"/>
        <pt x="132" y="395" on="0"/>
        <pt x="110" y="465" on="0"/>
        <pt x="110" y="500" on="1"/>
        <pt x="110" y="533" on="0"/>
        <pt x="131" y="597" on="0"/>
        <pt x="171" y="646" on="0"/>
        <pt x="229" y="676" on="0"/>
        <pt x="266" y="676" on="1"/>
        <pt x="302" y="676" on="0"/>
        <pt x="356" y="650" on="0"/>
        <pt x="394" y="607" on="0"/>
        <pt x="413" y="553" on="0"/>
        <pt x="413" y="525" on="1"/>
        <pt x="413" y="467" on="0"/>
        <pt x="345" y="367" on="0"/>
        <pt x="275" y="330" on="1"/>
        <pt x="294" y="300" on="0"/>
        <pt x="341" y="234" on="0"/>
        <pt x="368" y="202" on="1"/>
        <pt x="386" y="230" on="0"/>
        <pt x="421" y="294" on="0"/>
        <pt x="438" y="329" on="1"/>
      </contour>
      <contour>
        <pt x="307" y="126" on="1"/>
        <pt x="274" y="167" on="0"/>
        <pt x="216" y="247" on="0"/>
        <pt x="192" y="286" on="1"/>
        <pt x="165" y="268" on="0"/>
        <pt x="134" y="208" on="0"/>
        <pt x="134" y="176" on="1"/>
        <pt x="134" y="135" on="0"/>
        <pt x="179" y="80" on="0"/>
        <pt x="219" y="80" on="1"/>
        <pt x="266" y="80" on="0"/>
      </contour>
      <contour>
        <pt x="319" y="519" on="1"/>
        <pt x="319" y="551" on="0"/>
        <pt x="290" y="590" on="0"/>
        <pt x="266" y="590" on="1"/>
        <pt x="238" y="590" on="0"/>
        <pt x="208" y="536" on="0"/>
        <pt x="208" y="500" on="1"/>
        <pt x="208" y="474" on="0"/>
        <pt x="223" y="422" on="0"/>
        <pt x="237" y="396" on="1"/>
        <pt x="282" y="425" on="0"/>
        <pt x="319" y="485" on="0"/>
      </contour>
    </TTGlyph>
    <TTGlyph name="ampersand.cap" xMin="25" yMin="-16" xMax="566" yMax="739">
      <contour>
        <pt x="293" y="356" on="1"/>
        <pt x="336" y="288" on="0"/>
        <pt x="399" y="216" on="1"/>
        <pt x="444" y="278" on="0"/>
        <pt x="484" y="359" on="1"/>
        <pt x="566" y="306" on="1"/>
        <pt x="543" y="259" on="0"/>
        <pt x="494" y="175" on="0"/>
        <pt x="468" y="140" on="1"/>
        <pt x="514" y="90" on="0"/>
        <pt x="557" y="48" on="1"/>
        <pt x="479" y="-16" on="1"/>
        <pt x="400" y="64" on="1"/>
        <pt x="362" y="29" on="0"/>
        <pt x="276" y="-11" on="0"/>
        <pt x="228" y="-11" on="1"/>
        <pt x="184" y="-11" on="0"/>
        <pt x="110" y="17" on="0"/>
        <pt x="56" y="69" on="0"/>
        <pt x="25" y="142" on="0"/>
        <pt x="25" y="187" on="1"/>
        <pt x="25" y="248" on="0"/>
        <pt x="94" y="355" on="0"/>
        <pt x="156" y="390" on="1"/>
        <pt x="136" y="430" on="0"/>
        <pt x="113" y="507" on="0"/>
        <pt x="113" y="546" on="1"/>
        <pt x="113" y="583" on="0"/>
        <pt x="137" y="653" on="0"/>
        <pt x="182" y="707" on="0"/>
        <pt x="246" y="739" on="0"/>
        <pt x="286" y="739" on="1"/>
        <pt x="326" y="739" on="0"/>
        <pt x="387" y="710" on="0"/>
        <pt x="429" y="662" on="0"/>
        <pt x="450" y="602" on="0"/>
        <pt x="450" y="571" on="1"/>
        <pt x="450" y="505" on="0"/>
        <pt x="370" y="396" on="0"/>
      </contour>
      <contour>
        <pt x="335" y="135" on="1"/>
        <pt x="258" y="224" on="0"/>
        <pt x="201" y="313" on="1"/>
        <pt x="174" y="293" on="0"/>
        <pt x="137" y="230" on="0"/>
        <pt x="137" y="194" on="1"/>
        <pt x="137" y="148" on="0"/>
        <pt x="189" y="85" on="0"/>
        <pt x="236" y="85" on="1"/>
        <pt x="261" y="85" on="0"/>
        <pt x="311" y="111" on="0"/>
      </contour>
      <contour>
        <pt x="251" y="428" on="1"/>
        <pt x="299" y="458" on="0"/>
        <pt x="348" y="525" on="0"/>
        <pt x="348" y="567" on="1"/>
        <pt x="348" y="603" on="0"/>
        <pt x="315" y="646" on="0"/>
        <pt x="287" y="646" on="1"/>
        <pt x="254" y="646" on="0"/>
        <pt x="219" y="587" on="0"/>
        <pt x="219" y="545" on="1"/>
        <pt x="219" y="486" on="0"/>
      </contour>
    </TTGlyph>
    <TTGlyph name="aogonek" xMin="22" yMin="-203" xMax="360" yMax="455">
      <contour>
        <pt x="360" y="-163" on="1"/>
        <pt x="344" y="-180" on="0"/>
        <pt x="300" y="-203" on="0"/>
        <pt x="271" y="-203" on="1"/>
        <pt x="234" y="-203" on="0"/>
        <pt x="192" y="-159" on="0"/>
        <pt x="192" y="-124" on="1"/>
        <pt x="192" y="-95" on="0"/>
        <pt x="221" y="-37" on="0"/>
        <pt x="253" y="2" on="1"/>
        <pt x="253" y="44" on="1"/>
        <pt x="233" y="21" on="0"/>
        <pt x="180" y="-8" on="0"/>
        <pt x="146" y="-8" on="1"/>
        <pt x="120" y="-8" on="0"/>
        <pt x="75" y="11" on="0"/>
        <pt x="42" y="47" on="0"/>
        <pt x="22" y="100" on="0"/>
        <pt x="22" y="134" on="1"/>
        <pt x="22" y="164" on="0"/>
        <pt x="41" y="217" on="0"/>
        <pt x="76" y="255" on="0"/>
        <pt x="126" y="277" on="0"/>
        <pt x="156" y="277" on="1"/>
        <pt x="187" y="277" on="0"/>
        <pt x="230" y="263" on="0"/>
        <pt x="249" y="250" on="1"/>
        <pt x="249" y="293" on="1"/>
        <pt x="249" y="332" on="0"/>
        <pt x="210" y="367" on="0"/>
        <pt x="169" y="367" on="1"/>
        <pt x="121" y="367" on="0"/>
        <pt x="75" y="349" on="1"/>
        <pt x="63" y="433" on="1"/>
        <pt x="91" y="443" on="0"/>
        <pt x="155" y="455" on="0"/>
        <pt x="186" y="455" on="1"/>
        <pt x="268" y="455" on="0"/>
        <pt x="351" y="379" on="0"/>
        <pt x="351" y="294" on="1"/>
        <pt x="351" y="0" on="1"/>
        <pt x="313" y="0" on="1"/>
        <pt x="287" y="-37" on="0"/>
        <pt x="265" y="-84" on="0"/>
        <pt x="265" y="-104" on="1"/>
        <pt x="265" y="-121" on="0"/>
        <pt x="282" y="-140" on="0"/>
        <pt x="296" y="-140" on="1"/>
        <pt x="318" y="-140" on="0"/>
        <pt x="335" y="-123" on="1"/>
      </contour>
      <contour>
        <pt x="249" y="188" on="1"/>
        <pt x="233" y="199" on="0"/>
        <pt x="205" y="210" on="0"/>
        <pt x="185" y="210" on="1"/>
        <pt x="158" y="210" on="0"/>
        <pt x="121" y="175" on="0"/>
        <pt x="121" y="138" on="1"/>
        <pt x="121" y="103" on="0"/>
        <pt x="157" y="66" on="0"/>
        <pt x="185" y="66" on="1"/>
        <pt x="207" y="66" on="0"/>
        <pt x="238" y="86" on="0"/>
        <pt x="249" y="100" on="1"/>
      </contour>
    </TTGlyph>
    <TTGlyph name="aring" xMin="22" yMin="-8" xMax="351" yMax="702">
      <component glyphName="a" x="0" y="0" flags="0x204"/>
      <component glyphName="ring" x="-14" y="0" flags="0x4"/>
    </TTGlyph>
    <TTGlyph name="aringacute" xMin="22" yMin="-8" xMax="351" yMax="907">
      <component glyphName="a" x="0" y="0" flags="0x204"/>
      <component glyphName="acute" x="36" y="243" flags="0x4"/>
      <component glyphName="ring" x="-16" y="0" flags="0x4"/>
    </TTGlyph>
    <TTGlyph name="arrowleft" xMin="25" yMin="39" xMax="506" yMax="497">
      <contour>
        <pt x="168" y="223" on="1"/>
        <pt x="281" y="97" on="1"/>
        <pt x="214" y="39" on="1"/>
        <pt x="25" y="261" on="1"/>
        <pt x="25" y="275" on="1"/>
        <pt x="214" y="497" on="1"/>
        <pt x="281" y="438" on="1"/>
        <pt x="168" y="312" on="1"/>
        <pt x="506" y="312" on="1"/>
        <pt x="506" y="223" on="1"/>
      </contour>
    </TTGlyph>
    <TTGlyph name="arrowleft.cap" xMin="25" yMin="142" xMax="506" yMax="600">
      <component glyphName="arrowleft" x="0" y="103" flags="0x204"/>
    </TTGlyph>
    <TTGlyph name="arrowright" xMin="39" yMin="39" xMax="520" yMax="497">
      <contour>
        <pt x="377" y="312" on="1"/>
        <pt x="264" y="438" on="1"/>
        <pt x="331" y="497" on="1"/>
        <pt x="520" y="275" on="1"/>
        <pt x="520" y="261" on="1"/>
        <pt x="331" y="39" on="1"/>
        <pt x="264" y="97" on="1"/>
        <pt x="377" y="223" on="1"/>
        <pt x="39" y="223" on="1"/>
        <pt x="39" y="312" on="1"/>
      </contour>
    </TTGlyph>
    <TTGlyph name="arrowright.cap" xMin="39" yMin="142" xMax="520" yMax="600">
      <component glyphName="arrowright" x="0" y="103" flags="0x204"/>
    </TTGlyph>
    <TTGlyph name="asciicircum" xMin="69" yMin="533" xMax="367" yMax="695">
      <contour>
        <pt x="272" y="533" on="1"/>
        <pt x="216" y="614" on="1"/>
        <pt x="159" y="533" on="1"/>
        <pt x="69" y="533" on="1"/>
        <pt x="196" y="695" on="1"/>
        <pt x="243" y="695" on="1"/>
        <pt x="367" y="533" on="1"/>
      </contour>
    </TTGlyph>
    <TTGlyph name="asciitilde" xMin="62" yMin="243" xMax="372" yMax="358">
      <contour>
        <pt x="372" y="297" on="1"/>
        <pt x="352" y="274" on="0"/>
        <pt x="300" y="243" on="0"/>
        <pt x="274" y="243" on="1"/>
        <pt x="255" y="243" on="0"/>
        <pt x="227" y="252" on="0"/>
        <pt x="213" y="260" on="1"/>
        <pt x="196" y="270" on="0"/>
        <pt x="174" y="278" on="0"/>
        <pt x="160" y="278" on="1"/>
        <pt x="127" y="278" on="0"/>
        <pt x="98" y="243" on="1"/>
        <pt x="62" y="302" on="1"/>
        <pt x="81" y="327" on="0"/>
        <pt x="134" y="357" on="0"/>
        <pt x="160" y="357" on="1"/>
        <pt x="178" y="357" on="0"/>
        <pt x="207" y="347" on="0"/>
        <pt x="221" y="339" on="1"/>
        <pt x="236" y="331" on="0"/>
        <pt x="258" y="323" on="0"/>
        <pt x="271" y="323" on="1"/>
        <pt x="304" y="323" on="0"/>
        <pt x="332" y="358" on="1"/>
      </contour>
    </TTGlyph>
    <TTGlyph name="asterisk" xMin="20" yMin="489" xMax="276" yMax="732">
      <contour>
        <pt x="189" y="594" on="1"/>
        <pt x="247" y="525" on="1"/>
        <pt x="195" y="489" on="1"/>
        <pt x="148" y="565" on="1"/>
        <pt x="101" y="489" on="1"/>
        <pt x="49" y="525" on="1"/>
        <pt x="106" y="594" on="1"/>
        <pt x="20" y="616" on="1"/>
        <pt x="40" y="676" on="1"/>
        <pt x="122" y="642" on="1"/>
        <pt x="115" y="732" on="1"/>
        <pt x="180" y="732" on="1"/>
        <pt x="174" y="642" on="1"/>
        <pt x="256" y="676" on="1"/>
        <pt x="276" y="616" on="1"/>
      </contour>
    </TTGlyph>
    <TTGlyph name="at" xMin="44" yMin="-11" xMax="552" yMax="625">
      <contour>
        <pt x="552" y="336" on="1"/>
        <pt x="552" y="279" on="0"/>
        <pt x="524" y="196" on="0"/>
        <pt x="493" y="170" on="1"/>
        <pt x="469" y="151" on="0"/>
        <pt x="440" y="151" on="1"/>
        <pt x="414" y="151" on="0"/>
        <pt x="378" y="179" on="0"/>
        <pt x="368" y="205" on="1"/>
        <pt x="351" y="180" on="0"/>
        <pt x="303" y="155" on="0"/>
        <pt x="277" y="155" on="1"/>
        <pt x="239" y="155" on="0"/>
        <pt x="190" y="203" on="0"/>
        <pt x="190" y="245" on="1"/>
        <pt x="190" y="283" on="0"/>
        <pt x="237" y="334" on="0"/>
        <pt x="279" y="334" on="1"/>
        <pt x="299" y="334" on="0"/>
        <pt x="328" y="324" on="0"/>
        <pt x="339" y="316" on="1"/>
        <pt x="339" y="338" on="1"/>
        <pt x="339" y="364" on="0"/>
        <pt x="314" y="384" on="0"/>
        <pt x="288" y="384" on="1"/>
        <pt x="259" y="384" on="0"/>
        <pt x="226" y="373" on="1"/>
        <pt x="217" y="430" on="1"/>
        <pt x="257" y="446" on="0"/>
        <pt x="300" y="446" on="1"/>
        <pt x="354" y="446" on="0"/>
        <pt x="408" y="396" on="0"/>
        <pt x="408" y="339" on="1"/>
        <pt x="408" y="260" on="1"/>
        <pt x="408" y="225" on="0"/>
        <pt x="430" y="200" on="0"/>
        <pt x="444" y="200" on="1"/>
        <pt x="460" y="200" on="0"/>
        <pt x="469" y="209" on="1"/>
        <pt x="486" y="225" on="0"/>
        <pt x="503" y="287" on="0"/>
        <pt x="503" y="329" on="1"/>
        <pt x="503" y="369" on="0"/>
        <pt x="482" y="457" on="0"/>
        <pt x="434" y="530" on="0"/>
        <pt x="359" y="577" on="0"/>
        <pt x="305" y="577" on="1"/>
        <pt x="259" y="577" on="0"/>
        <pt x="182" y="533" on="0"/>
        <pt x="126" y="459" on="0"/>
        <pt x="95" y="361" on="0"/>
        <pt x="95" y="306" on="1"/>
        <pt x="95" y="250" on="0"/>
        <pt x="124" y="153" on="0"/>
        <pt x="182" y="79" on="0"/>
        <pt x="267" y="37" on="0"/>
        <pt x="324" y="37" on="1"/>
        <pt x="350" y="37" on="0"/>
        <pt x="403" y="51" on="0"/>
        <pt x="428" y="62" on="1"/>
        <pt x="440" y="16" on="1"/>
        <pt x="411" y="4" on="0"/>
        <pt x="349" y="-11" on="0"/>
        <pt x="322" y="-11" on="1"/>
        <pt x="256" y="-11" on="0"/>
        <pt x="153" y="38" on="0"/>
        <pt x="82" y="123" on="0"/>
        <pt x="44" y="239" on="0"/>
        <pt x="44" y="306" on="1"/>
        <pt x="44" y="372" on="0"/>
        <pt x="83" y="489" on="0"/>
        <pt x="153" y="575" on="0"/>
        <pt x="249" y="625" on="0"/>
        <pt x="306" y="625" on="1"/>
        <pt x="368" y="625" on="0"/>
        <pt x="460" y="574" on="0"/>
        <pt x="522" y="491" on="0"/>
        <pt x="552" y="388" on="0"/>
      </contour>
      <contour>
        <pt x="339" y="272" on="1"/>
        <pt x="322" y="288" on="0"/>
        <pt x="298" y="288" on="1"/>
        <pt x="281" y="288" on="0"/>
        <pt x="259" y="267" on="0"/>
        <pt x="259" y="248" on="1"/>
        <pt x="259" y="229" on="0"/>
        <pt x="280" y="207" on="0"/>
        <pt x="297" y="207" on="1"/>
        <pt x="311" y="207" on="0"/>
        <pt x="332" y="220" on="0"/>
        <pt x="339" y="230" on="1"/>
      </contour>
    </TTGlyph>
    <TTGlyph name="at.cap" xMin="49" yMin="-12" xMax="621" yMax="745">
      <contour>
        <pt x="621" y="399" on="1"/>
        <pt x="621" y="337" on="0"/>
        <pt x="590" y="233" on="0"/>
        <pt x="555" y="204" on="1"/>
        <pt x="529" y="184" on="0"/>
        <pt x="495" y="184" on="1"/>
        <pt x="466" y="184" on="0"/>
        <pt x="425" y="213" on="0"/>
        <pt x="415" y="244" on="1"/>
        <pt x="395" y="216" on="0"/>
        <pt x="343" y="188" on="0"/>
        <pt x="314" y="188" on="1"/>
        <pt x="272" y="188" on="0"/>
        <pt x="217" y="242" on="0"/>
        <pt x="217" y="293" on="1"/>
        <pt x="217" y="338" on="0"/>
        <pt x="270" y="399" on="0"/>
        <pt x="316" y="399" on="1"/>
        <pt x="339" y="399" on="0"/>
        <pt x="370" y="388" on="0"/>
        <pt x="384" y="379" on="1"/>
        <pt x="384" y="412" on="1"/>
        <pt x="384" y="440" on="0"/>
        <pt x="357" y="467" on="0"/>
        <pt x="324" y="467" on="1"/>
        <pt x="289" y="467" on="0"/>
        <pt x="256" y="454" on="1"/>
        <pt x="246" y="518" on="1"/>
        <pt x="267" y="525" on="0"/>
        <pt x="315" y="534" on="0"/>
        <pt x="337" y="534" on="1"/>
        <pt x="400" y="534" on="0"/>
        <pt x="458" y="476" on="0"/>
        <pt x="458" y="413" on="1"/>
        <pt x="458" y="304" on="1"/>
        <pt x="458" y="266" on="0"/>
        <pt x="483" y="237" on="0"/>
        <pt x="500" y="237" on="1"/>
        <pt x="518" y="237" on="0"/>
        <pt x="529" y="248" on="1"/>
        <pt x="548" y="265" on="0"/>
        <pt x="567" y="346" on="0"/>
        <pt x="567" y="390" on="1"/>
        <pt x="567" y="439" on="0"/>
        <pt x="545" y="546" on="0"/>
        <pt x="493" y="635" on="0"/>
        <pt x="407" y="693" on="0"/>
        <pt x="343" y="693" on="1"/>
        <pt x="290" y="693" on="0"/>
        <pt x="202" y="640" on="0"/>
        <pt x="139" y="550" on="0"/>
        <pt x="104" y="431" on="0"/>
        <pt x="104" y="365" on="1"/>
        <pt x="104" y="299" on="0"/>
        <pt x="136" y="181" on="0"/>
        <pt x="201" y="92" on="0"/>
        <pt x="299" y="40" on="0"/>
        <pt x="365" y="40" on="1"/>
        <pt x="394" y="40" on="0"/>
        <pt x="454" y="55" on="0"/>
        <pt x="481" y="68" on="1"/>
        <pt x="495" y="17" on="1"/>
        <pt x="462" y="4" on="0"/>
        <pt x="393" y="-12" on="0"/>
        <pt x="364" y="-12" on="1"/>
        <pt x="288" y="-12" on="0"/>
        <pt x="170" y="47" on="0"/>
        <pt x="90" y="150" on="0"/>
        <pt x="49" y="287" on="0"/>
        <pt x="49" y="365" on="1"/>
        <pt x="49" y="443" on="0"/>
        <pt x="93" y="581" on="0"/>
        <pt x="171" y="685" on="0"/>
        <pt x="279" y="745" on="0"/>
        <pt x="343" y="745" on="1"/>
        <pt x="415" y="745" on="0"/>
        <pt x="520" y="683" on="0"/>
        <pt x="588" y="584" on="0"/>
        <pt x="621" y="460" on="0"/>
      </contour>
      <contour>
        <pt x="384" y="329" on="1"/>
        <pt x="373" y="338" on="0"/>
        <pt x="353" y="347" on="0"/>
        <pt x="339" y="347" on="1"/>
        <pt x="319" y="347" on="0"/>
        <pt x="293" y="322" on="0"/>
        <pt x="293" y="296" on="1"/>
        <pt x="293" y="271" on="0"/>
        <pt x="317" y="245" on="0"/>
        <pt x="337" y="245" on="1"/>
        <pt x="353" y="245" on="0"/>
        <pt x="376" y="262" on="0"/>
        <pt x="384" y="273" on="1"/>
      </contour>
    </TTGlyph>
    <TTGlyph name="atilde" xMin="22" yMin="-8" xMax="353" yMax="611">
      <component glyphName="a" x="0" y="0" flags="0x204"/>
      <component glyphName="tilde" x="-13" y="0" flags="0x4"/>
    </TTGlyph>
    <TTGlyph name="b" xMin="46" yMin="-7" xMax="409" yMax="733">
      <contour>
        <pt x="409" y="230" on="1"/>
        <pt x="409" y="179" on="0"/>
        <pt x="382" y="92" on="0"/>
        <pt x="337" y="29" on="0"/>
        <pt x="278" y="-7" on="0"/>
        <pt x="246" y="-7" on="1"/>
        <pt x="218" y="-7" on="0"/>
        <pt x="165" y="15" on="0"/>
        <pt x="145" y="36" on="1"/>
        <pt x="145" y="0" on="1"/>
        <pt x="46" y="0" on="1"/>
        <pt x="46" y="733" on="1"/>
        <pt x="149" y="733" on="1"/>
        <pt x="149" y="414" on="1"/>
        <pt x="170" y="432" on="0"/>
        <pt x="220" y="454" on="0"/>
        <pt x="252" y="454" on="1"/>
        <pt x="285" y="454" on="0"/>
        <pt x="342" y="424" on="0"/>
        <pt x="384" y="367" on="0"/>
        <pt x="409" y="283" on="0"/>
      </contour>
      <contour>
        <pt x="306" y="229" on="1"/>
        <pt x="306" y="302" on="0"/>
        <pt x="261" y="370" on="0"/>
        <pt x="221" y="370" on="1"/>
        <pt x="200" y="370" on="0"/>
        <pt x="163" y="352" on="0"/>
        <pt x="149" y="338" on="1"/>
        <pt x="149" y="109" on="1"/>
        <pt x="163" y="94" on="0"/>
        <pt x="197" y="76" on="0"/>
        <pt x="218" y="76" on="1"/>
        <pt x="258" y="76" on="0"/>
        <pt x="306" y="154" on="0"/>
      </contour>
    </TTGlyph>
    <TTGlyph name="backslash" xMin="-1" yMin="-216" xMax="263" yMax="733">
      <contour>
        <pt x="181" y="-216" on="1"/>
        <pt x="-1" y="733" on="1"/>
        <pt x="81" y="733" on="1"/>
        <pt x="263" y="-216" on="1"/>
      </contour>
    </TTGlyph>
    <TTGlyph name="backslash.cap" xMin="10" yMin="-110" xMax="274" yMax="839">
      <component glyphName="backslash" x="11" y="106" flags="0x204"/>
    </TTGlyph>
    <TTGlyph name="bar" xMin="71" yMin="-215" xMax="150" yMax="734">
      <contour>
        <pt x="71" y="-215" on="1"/>
        <pt x="71" y="734" on="1"/>
        <pt x="150" y="734" on="1"/>
        <pt x="150" y="-215" on="1"/>
      </contour>
    </TTGlyph>
    <TTGlyph name="bar.cap" xMin="71" yMin="-110" xMax="150" yMax="839">
      <component glyphName="bar" x="0" y="105" flags="0x204"/>
    </TTGlyph>
    <TTGlyph name="braceleft" xMin="19" yMin="-223" xMax="263" yMax="740">
      <contour>
        <pt x="263" y="-223" on="1"/>
        <pt x="187" y="-223" on="0"/>
        <pt x="96" y="-141" on="0"/>
        <pt x="96" y="-61" on="1"/>
        <pt x="96" y="158" on="1"/>
        <pt x="96" y="190" on="0"/>
        <pt x="65" y="217" on="0"/>
        <pt x="37" y="217" on="1"/>
        <pt x="19" y="217" on="1"/>
        <pt x="19" y="299" on="1"/>
        <pt x="37" y="299" on="1"/>
        <pt x="65" y="299" on="0"/>
        <pt x="96" y="326" on="0"/>
        <pt x="96" y="359" on="1"/>
        <pt x="96" y="578" on="1"/>
        <pt x="96" y="657" on="0"/>
        <pt x="187" y="740" on="0"/>
        <pt x="263" y="740" on="1"/>
        <pt x="263" y="653" on="1"/>
        <pt x="228" y="653" on="0"/>
        <pt x="186" y="616" on="0"/>
        <pt x="186" y="568" on="1"/>
        <pt x="186" y="366" on="1"/>
        <pt x="186" y="319" on="0"/>
        <pt x="152" y="274" on="0"/>
        <pt x="118" y="258" on="1"/>
        <pt x="152" y="243" on="0"/>
        <pt x="186" y="198" on="0"/>
        <pt x="186" y="151" on="1"/>
        <pt x="186" y="-52" on="1"/>
        <pt x="186" y="-100" on="0"/>
        <pt x="228" y="-136" on="0"/>
        <pt x="263" y="-136" on="1"/>
      </contour>
    </TTGlyph>
    <TTGlyph name="braceleft.cap" xMin="19" yMin="-117" xMax="263" yMax="846">
      <component glyphName="braceleft" x="0" y="106" flags="0x204"/>
    </TTGlyph>
    <TTGlyph name="braceright" xMin="9" yMin="-223" xMax="253" yMax="740">
      <contour>
        <pt x="235" y="217" on="1"/>
        <pt x="206" y="217" on="0"/>
        <pt x="176" y="190" on="0"/>
        <pt x="176" y="158" on="1"/>
        <pt x="176" y="-61" on="1"/>
        <pt x="176" y="-141" on="0"/>
        <pt x="85" y="-223" on="0"/>
        <pt x="9" y="-223" on="1"/>
        <pt x="9" y="-136" on="1"/>
        <pt x="44" y="-136" on="0"/>
        <pt x="86" y="-100" on="0"/>
        <pt x="86" y="-52" on="1"/>
        <pt x="86" y="151" on="1"/>
        <pt x="86" y="198" on="0"/>
        <pt x="119" y="243" on="0"/>
        <pt x="154" y="258" on="1"/>
        <pt x="119" y="274" on="0"/>
        <pt x="86" y="319" on="0"/>
        <pt x="86" y="366" on="1"/>
        <pt x="86" y="568" on="1"/>
        <pt x="86" y="616" on="0"/>
        <pt x="44" y="653" on="0"/>
        <pt x="9" y="653" on="1"/>
        <pt x="9" y="740" on="1"/>
        <pt x="85" y="740" on="0"/>
        <pt x="176" y="657" on="0"/>
        <pt x="176" y="578" on="1"/>
        <pt x="176" y="359" on="1"/>
        <pt x="176" y="326" on="0"/>
        <pt x="206" y="299" on="0"/>
        <pt x="235" y="299" on="1"/>
        <pt x="253" y="299" on="1"/>
        <pt x="253" y="217" on="1"/>
      </contour>
    </TTGlyph>
    <TTGlyph name="braceright.cap" xMin="9" yMin="-117" xMax="253" yMax="846">
      <component glyphName="braceright" x="0" y="106" flags="0x204"/>
    </TTGlyph>
    <TTGlyph name="bracketleft" xMin="54" yMin="-216" xMax="253" yMax="733">
      <contour>
        <pt x="54" y="-216" on="1"/>
        <pt x="54" y="733" on="1"/>
        <pt x="253" y="733" on="1"/>
        <pt x="253" y="651" on="1"/>
        <pt x="143" y="651" on="1"/>
        <pt x="143" y="-134" on="1"/>
        <pt x="253" y="-134" on="1"/>
        <pt x="253" y="-216" on="1"/>
      </contour>
    </TTGlyph>
    <TTGlyph name="bracketleft.cap" xMin="54" yMin="-110" xMax="253" yMax="839">
      <component glyphName="bracketleft" x="0" y="106" flags="0x204"/>
    </TTGlyph>
    <TTGlyph name="bracketright" xMin="13" yMin="-216" xMax="212" yMax="733">
      <contour>
        <pt x="13" y="-216" on="1"/>
        <pt x="13" y="-134" on="1"/>
        <pt x="123" y="-134" on="1"/>
        <pt x="123" y="651" on="1"/>
        <pt x="13" y="651" on="1"/>
        <pt x="13" y="733" on="1"/>
        <pt x="212" y="733" on="1"/>
        <pt x="212" y="-216" on="1"/>
      </contour>
    </TTGlyph>
    <TTGlyph name="bracketright.cap" xMin="13" yMin="-110" xMax="212" yMax="839">
      <component glyphName="bracketright" x="0" y="106" flags="0x204"/>
    </TTGlyph>
    <TTGlyph name="breve" xMin="88" yMin="498" xMax="342" yMax="626">
      <contour>
        <pt x="342" y="620" on="1"/>
        <pt x="342" y="595" on="0"/>
        <pt x="325" y="551" on="0"/>
        <pt x="292" y="518" on="0"/>
        <pt x="245" y="498" on="0"/>
        <pt x="215" y="498" on="1"/>
        <pt x="185" y="498" on="0"/>
        <pt x="138" y="518" on="0"/>
        <pt x="105" y="551" on="0"/>
        <pt x="88" y="595" on="0"/>
        <pt x="88" y="620" on="1"/>
        <pt x="167" y="626" on="1"/>
        <pt x="167" y="597" on="0"/>
        <pt x="192" y="565" on="0"/>
        <pt x="215" y="565" on="1"/>
        <pt x="264" y="565" on="0"/>
        <pt x="264" y="626" on="1"/>
      </contour>
    </TTGlyph>
    <TTGlyph name="bullet" xMin="41" yMin="229" xMax="311" yMax="503">
      <contour>
        <pt x="311" y="366" on="1"/>
        <pt x="311" y="337" on="0"/>
        <pt x="290" y="288" on="0"/>
        <pt x="253" y="250" on="0"/>
        <pt x="204" y="229" on="0"/>
        <pt x="176" y="229" on="1"/>
        <pt x="148" y="229" on="0"/>
        <pt x="99" y="250" on="0"/>
        <pt x="62" y="288" on="0"/>
        <pt x="41" y="337" on="0"/>
        <pt x="41" y="366" on="1"/>
        <pt x="41" y="394" on="0"/>
        <pt x="62" y="444" on="0"/>
        <pt x="99" y="482" on="0"/>
        <pt x="148" y="503" on="0"/>
        <pt x="176" y="503" on="1"/>
        <pt x="204" y="503" on="0"/>
        <pt x="253" y="482" on="0"/>
        <pt x="290" y="444" on="0"/>
        <pt x="311" y="394" on="0"/>
      </contour>
    </TTGlyph>
    <TTGlyph name="c" xMin="28" yMin="-9" xMax="343" yMax="455">
      <contour>
        <pt x="342" y="29" on="1"/>
        <pt x="319" y="12" on="0"/>
        <pt x="260" y="-9" on="0"/>
        <pt x="226" y="-9" on="1"/>
        <pt x="179" y="-9" on="0"/>
        <pt x="106" y="27" on="0"/>
        <pt x="55" y="89" on="0"/>
        <pt x="28" y="173" on="0"/>
        <pt x="28" y="221" on="1"/>
        <pt x="28" y="269" on="0"/>
        <pt x="55" y="355" on="0"/>
        <pt x="106" y="418" on="0"/>
        <pt x="179" y="455" on="0"/>
        <pt x="226" y="455" on="1"/>
        <pt x="261" y="455" on="0"/>
        <pt x="319" y="434" on="0"/>
        <pt x="343" y="417" on="1"/>
        <pt x="307" y="342" on="1"/>
        <pt x="288" y="353" on="0"/>
        <pt x="250" y="367" on="0"/>
        <pt x="227" y="367" on="1"/>
        <pt x="185" y="367" on="0"/>
        <pt x="130" y="290" on="0"/>
        <pt x="130" y="221" on="1"/>
        <pt x="130" y="155" on="0"/>
        <pt x="188" y="79" on="0"/>
        <pt x="230" y="79" on="1"/>
        <pt x="253" y="79" on="0"/>
        <pt x="292" y="93" on="0"/>
        <pt x="309" y="104" on="1"/>
      </contour>
    </TTGlyph>
    <TTGlyph name="cacute" xMin="28" yMin="-9" xMax="360" yMax="664">
      <component glyphName="acute" x="48" y="0" flags="0x4"/>
      <component glyphName="c" x="0" y="0" flags="0x4"/>
    </TTGlyph>
    <TTGlyph name="caron" xMin="69" yMin="494" xMax="357" yMax="648">
      <contour>
        <pt x="235" y="494" on="1"/>
        <pt x="190" y="494" on="1"/>
        <pt x="69" y="648" on="1"/>
        <pt x="159" y="648" on="1"/>
        <pt x="215" y="573" on="1"/>
        <pt x="269" y="648" on="1"/>
        <pt x="357" y="648" on="1"/>
      </contour>
    </TTGlyph>
    <TTGlyph name="caron.alt" xMin="38" yMin="521" xMax="164" yMax="739">
      <contour>
        <pt x="163" y="728" on="1"/>
        <pt x="164" y="662" on="0"/>
        <pt x="120" y="558" on="0"/>
        <pt x="82" y="521" on="1"/>
        <pt x="38" y="547" on="1"/>
        <pt x="64" y="588" on="0"/>
        <pt x="82" y="682" on="0"/>
        <pt x="82" y="739" on="1"/>
      </contour>
    </TTGlyph>
    <TTGlyph name="ccaron" xMin="28" yMin="-9" xMax="353" yMax="648">
      <component glyphName="caron" x="-4" y="0" flags="0x4"/>
      <component glyphName="c" x="0" y="0" flags="0x4"/>
    </TTGlyph>
    <TTGlyph name="ccedilla" xMin="28" yMin="-215" xMax="343" yMax="455">
      <contour>
        <pt x="308" y="-126" on="1"/>
        <pt x="308" y="-162" on="0"/>
        <pt x="258" y="-215" on="0"/>
        <pt x="208" y="-215" on="1"/>
        <pt x="183" y="-215" on="0"/>
        <pt x="132" y="-198" on="0"/>
        <pt x="105" y="-182" on="1"/>
        <pt x="129" y="-128" on="1"/>
        <pt x="172" y="-157" on="0"/>
        <pt x="211" y="-157" on="1"/>
        <pt x="225" y="-157" on="0"/>
        <pt x="243" y="-142" on="0"/>
        <pt x="243" y="-128" on="1"/>
        <pt x="243" y="-114" on="0"/>
        <pt x="207" y="-91" on="0"/>
        <pt x="159" y="-89" on="1"/>
        <pt x="156" y="-82" on="1"/>
        <pt x="177" y="-3" on="1"/>
        <pt x="105" y="14" on="0"/>
        <pt x="28" y="137" on="0"/>
        <pt x="28" y="221" on="1"/>
        <pt x="28" y="269" on="0"/>
        <pt x="55" y="355" on="0"/>
        <pt x="106" y="418" on="0"/>
        <pt x="179" y="455" on="0"/>
        <pt x="226" y="455" on="1"/>
        <pt x="261" y="455" on="0"/>
        <pt x="319" y="434" on="0"/>
        <pt x="343" y="417" on="1"/>
        <pt x="307" y="342" on="1"/>
        <pt x="288" y="353" on="0"/>
        <pt x="250" y="367" on="0"/>
        <pt x="227" y="367" on="1"/>
        <pt x="185" y="367" on="0"/>
        <pt x="130" y="290" on="0"/>
        <pt x="130" y="221" on="1"/>
        <pt x="130" y="155" on="0"/>
        <pt x="188" y="79" on="0"/>
        <pt x="230" y="79" on="1"/>
        <pt x="253" y="79" on="0"/>
        <pt x="292" y="93" on="0"/>
        <pt x="309" y="104" on="1"/>
        <pt x="342" y="29" on="1"/>
        <pt x="319" y="12" on="0"/>
        <pt x="260" y="-9" on="0"/>
        <pt x="226" y="-9" on="1"/>
        <pt x="222" y="-9" on="1"/>
        <pt x="215" y="-40" on="1"/>
        <pt x="267" y="-51" on="0"/>
        <pt x="308" y="-97" on="0"/>
      </contour>
    </TTGlyph>
    <TTGlyph name="cdotaccent" xMin="28" yMin="-9" xMax="343" yMax="613">
      <component glyphName="c" x="0" y="0" flags="0x204"/>
      <component glyphName="dotaccent" x="0" y="0" flags="0x4"/>
    </TTGlyph>
    <TTGlyph name="cedilla" xMin="116" yMin="-217" xMax="319" yMax="17">
      <contour>
        <pt x="319" y="-128" on="1"/>
        <pt x="319" y="-164" on="0"/>
        <pt x="269" y="-217" on="0"/>
        <pt x="219" y="-217" on="1"/>
        <pt x="194" y="-217" on="0"/>
        <pt x="143" y="-200" on="0"/>
        <pt x="116" y="-184" on="1"/>
        <pt x="140" y="-130" on="1"/>
        <pt x="183" y="-159" on="0"/>
        <pt x="222" y="-159" on="1"/>
        <pt x="236" y="-159" on="0"/>
        <pt x="254" y="-144" on="0"/>
        <pt x="254" y="-130" on="1"/>
        <pt x="254" y="-116" on="0"/>
        <pt x="218" y="-93" on="0"/>
        <pt x="170" y="-91" on="1"/>
        <pt x="167" y="-84" on="1"/>
        <pt x="194" y="17" on="1"/>
        <pt x="237" y="5" on="1"/>
        <pt x="226" y="-42" on="1"/>
        <pt x="278" y="-53" on="0"/>
        <pt x="319" y="-99" on="0"/>
      </contour>
    </TTGlyph>
    <TTGlyph name="cent" xMin="28" yMin="-80" xMax="350" yMax="528">
      <contour>
        <pt x="171" y="-2" on="1"/>
        <pt x="103" y="17" on="0"/>
        <pt x="28" y="139" on="0"/>
        <pt x="28" y="221" on="1"/>
        <pt x="28" y="267" on="0"/>
        <pt x="53" y="350" on="0"/>
        <pt x="101" y="413" on="0"/>
        <pt x="169" y="451" on="0"/>
        <pt x="212" y="454" on="1"/>
        <pt x="219" y="528" on="1"/>
        <pt x="277" y="527" on="1"/>
        <pt x="270" y="450" on="1"/>
        <pt x="294" y="445" on="0"/>
        <pt x="333" y="426" on="0"/>
        <pt x="350" y="415" on="1"/>
        <pt x="314" y="340" on="1"/>
        <pt x="303" y="346" on="0"/>
        <pt x="277" y="360" on="0"/>
        <pt x="262" y="365" on="1"/>
        <pt x="236" y="76" on="1"/>
        <pt x="273" y="77" on="0"/>
        <pt x="310" y="104" on="1"/>
        <pt x="342" y="29" on="1"/>
        <pt x="316" y="12" on="0"/>
        <pt x="260" y="-8" on="0"/>
        <pt x="228" y="-9" on="1"/>
        <pt x="222" y="-80" on="1"/>
        <pt x="164" y="-78" on="1"/>
      </contour>
      <contour>
        <pt x="126" y="218" on="1"/>
        <pt x="126" y="174" on="0"/>
        <pt x="153" y="107" on="0"/>
        <pt x="179" y="90" on="1"/>
        <pt x="204" y="368" on="1"/>
        <pt x="169" y="358" on="0"/>
        <pt x="126" y="281" on="0"/>
      </contour>
    </TTGlyph>
    <TTGlyph name="cent.lin" xMin="28" yMin="67" xMax="350" yMax="675">
      <component glyphName="cent" x="0" y="147" flags="0x4"/>
    </TTGlyph>
    <TTGlyph name="circumflex" xMin="73" yMin="500" xMax="361" yMax="653">
      <contour>
        <pt x="270" y="500" on="1"/>
        <pt x="215" y="575" on="1"/>
        <pt x="160" y="500" on="1"/>
        <pt x="73" y="500" on="1"/>
        <pt x="196" y="653" on="1"/>
        <pt x="241" y="653" on="1"/>
        <pt x="361" y="500" on="1"/>
      </contour>
    </TTGlyph>
    <TTGlyph name="colon" xMin="38" yMin="-9" xMax="162" yMax="402">
      <contour>
        <pt x="38" y="54" on="1"/>
        <pt x="38" y="80" on="0"/>
        <pt x="74" y="116" on="0"/>
        <pt x="100" y="116" on="1"/>
        <pt x="126" y="116" on="0"/>
        <pt x="162" y="80" on="0"/>
        <pt x="162" y="54" on="1"/>
        <pt x="162" y="28" on="0"/>
        <pt x="126" y="-9" on="0"/>
        <pt x="100" y="-9" on="1"/>
        <pt x="74" y="-9" on="0"/>
        <pt x="38" y="28" on="0"/>
      </contour>
      <contour>
        <pt x="38" y="339" on="1"/>
        <pt x="38" y="365" on="0"/>
        <pt x="74" y="402" on="0"/>
        <pt x="100" y="402" on="1"/>
        <pt x="126" y="402" on="0"/>
        <pt x="162" y="365" on="0"/>
        <pt x="162" y="339" on="1"/>
        <pt x="162" y="313" on="0"/>
        <pt x="126" y="276" on="0"/>
        <pt x="100" y="276" on="1"/>
        <pt x="74" y="276" on="0"/>
        <pt x="38" y="313" on="0"/>
      </contour>
    </TTGlyph>
    <TTGlyph name="comma" xMin="37" yMin="-117" xMax="162" yMax="115">
      <contour>
        <pt x="162" y="41" on="1"/>
        <pt x="162" y="20" on="0"/>
        <pt x="144" y="-27" on="0"/>
        <pt x="114" y="-70" on="0"/>
        <pt x="73" y="-106" on="0"/>
        <pt x="49" y="-117" on="1"/>
        <pt x="37" y="-99" on="1"/>
        <pt x="66" y="-74" on="0"/>
        <pt x="94" y="-29" on="0"/>
        <pt x="100" y="-3" on="1"/>
        <pt x="72" y="-1" on="0"/>
        <pt x="38" y="33" on="0"/>
        <pt x="38" y="57" on="1"/>
        <pt x="38" y="81" on="0"/>
        <pt x="73" y="115" on="0"/>
        <pt x="97" y="115" on="1"/>
        <pt x="128" y="115" on="0"/>
        <pt x="162" y="73" on="0"/>
      </contour>
    </TTGlyph>
    <TTGlyph name="commaaccent" xMin="31" yMin="-297" xMax="153" yMax="-70">
      <contour>
        <pt x="153" y="-143" on="1"/>
        <pt x="153" y="-164" on="0"/>
        <pt x="136" y="-209" on="0"/>
        <pt x="106" y="-251" on="0"/>
        <pt x="66" y="-286" on="0"/>
        <pt x="43" y="-297" on="1"/>
        <pt x="31" y="-280" on="1"/>
        <pt x="60" y="-256" on="0"/>
        <pt x="87" y="-212" on="0"/>
        <pt x="93" y="-186" on="1"/>
        <pt x="65" y="-184" on="0"/>
        <pt x="32" y="-150" on="0"/>
        <pt x="32" y="-127" on="1"/>
        <pt x="32" y="-104" on="0"/>
        <pt x="66" y="-70" on="0"/>
        <pt x="89" y="-70" on="1"/>
        <pt x="120" y="-70" on="0"/>
        <pt x="153" y="-111" on="0"/>
      </contour>
    </TTGlyph>
    <TTGlyph name="copyright" xMin="37" yMin="-12" xMax="613" yMax="745">
      <contour>
        <pt x="613" y="366" on="1"/>
        <pt x="613" y="288" on="0"/>
        <pt x="569" y="150" on="0"/>
        <pt x="492" y="47" on="0"/>
        <pt x="387" y="-12" on="0"/>
        <pt x="325" y="-12" on="1"/>
        <pt x="263" y="-12" on="0"/>
        <pt x="158" y="47" on="0"/>
        <pt x="81" y="150" on="0"/>
        <pt x="37" y="288" on="0"/>
        <pt x="37" y="366" on="1"/>
        <pt x="37" y="444" on="0"/>
        <pt x="81" y="582" on="0"/>
        <pt x="158" y="685" on="0"/>
        <pt x="263" y="745" on="0"/>
        <pt x="325" y="745" on="1"/>
        <pt x="387" y="745" on="0"/>
        <pt x="492" y="685" on="0"/>
        <pt x="569" y="582" on="0"/>
        <pt x="613" y="444" on="0"/>
      </contour>
      <contour>
        <pt x="560" y="366" on="1"/>
        <pt x="560" y="432" on="0"/>
        <pt x="525" y="552" on="0"/>
        <pt x="462" y="643" on="0"/>
        <pt x="376" y="697" on="0"/>
        <pt x="325" y="697" on="1"/>
        <pt x="274" y="697" on="0"/>
        <pt x="188" y="643" on="0"/>
        <pt x="125" y="552" on="0"/>
        <pt x="90" y="432" on="0"/>
        <pt x="90" y="366" on="1"/>
        <pt x="90" y="300" on="0"/>
        <pt x="125" y="180" on="0"/>
        <pt x="188" y="90" on="0"/>
        <pt x="274" y="36" on="0"/>
        <pt x="325" y="36" on="1"/>
        <pt x="376" y="36" on="0"/>
        <pt x="462" y="90" on="0"/>
        <pt x="525" y="180" on="0"/>
        <pt x="560" y="300" on="0"/>
      </contour>
      <contour>
        <pt x="429" y="207" on="1"/>
        <pt x="388" y="180" on="0"/>
        <pt x="341" y="180" on="1"/>
        <pt x="308" y="180" on="0"/>
        <pt x="252" y="207" on="0"/>
        <pt x="210" y="256" on="0"/>
        <pt x="187" y="326" on="0"/>
        <pt x="187" y="368" on="1"/>
        <pt x="187" y="410" on="0"/>
        <pt x="210" y="481" on="0"/>
        <pt x="251" y="532" on="0"/>
        <pt x="308" y="560" on="0"/>
        <pt x="342" y="560" on="1"/>
        <pt x="367" y="560" on="0"/>
        <pt x="408" y="547" on="0"/>
        <pt x="428" y="534" on="1"/>
        <pt x="403" y="477" on="1"/>
        <pt x="374" y="496" on="0"/>
        <pt x="343" y="496" on="1"/>
        <pt x="306" y="496" on="0"/>
        <pt x="259" y="431" on="0"/>
        <pt x="259" y="372" on="1"/>
        <pt x="259" y="311" on="0"/>
        <pt x="307" y="244" on="0"/>
        <pt x="345" y="244" on="1"/>
        <pt x="361" y="244" on="0"/>
        <pt x="392" y="255" on="0"/>
        <pt x="406" y="263" on="1"/>
      </contour>
    </TTGlyph>
    <TTGlyph name="d" xMin="29" yMin="-8" xMax="392" yMax="733">
      <contour>
        <pt x="293" y="0" on="1"/>
        <pt x="293" y="38" on="1"/>
        <pt x="273" y="17" on="0"/>
        <pt x="221" y="-8" on="0"/>
        <pt x="189" y="-8" on="1"/>
        <pt x="155" y="-8" on="0"/>
        <pt x="96" y="23" on="0"/>
        <pt x="53" y="81" on="0"/>
        <pt x="29" y="165" on="0"/>
        <pt x="29" y="219" on="1"/>
        <pt x="29" y="270" on="0"/>
        <pt x="56" y="357" on="0"/>
        <pt x="102" y="419" on="0"/>
        <pt x="162" y="454" on="0"/>
        <pt x="195" y="454" on="1"/>
        <pt x="226" y="454" on="0"/>
        <pt x="269" y="437" on="0"/>
        <pt x="289" y="421" on="1"/>
        <pt x="289" y="733" on="1"/>
        <pt x="392" y="733" on="1"/>
        <pt x="392" y="0" on="1"/>
      </contour>
      <contour>
        <pt x="289" y="338" on="1"/>
        <pt x="276" y="352" on="0"/>
        <pt x="242" y="371" on="0"/>
        <pt x="220" y="371" on="1"/>
        <pt x="182" y="371" on="0"/>
        <pt x="132" y="295" on="0"/>
        <pt x="132" y="220" on="1"/>
        <pt x="132" y="144" on="0"/>
        <pt x="179" y="76" on="0"/>
        <pt x="219" y="76" on="1"/>
        <pt x="241" y="76" on="0"/>
        <pt x="275" y="93" on="0"/>
        <pt x="289" y="109" on="1"/>
      </contour>
    </TTGlyph>
    <TTGlyph name="dagger" xMin="28" yMin="187" xMax="346" yMax="733">
      <contour>
        <pt x="235" y="509" on="1"/>
        <pt x="235" y="187" on="1"/>
        <pt x="141" y="187" on="1"/>
        <pt x="141" y="509" on="1"/>
        <pt x="28" y="509" on="1"/>
        <pt x="28" y="597" on="1"/>
        <pt x="141" y="597" on="1"/>
        <pt x="141" y="733" on="1"/>
        <pt x="235" y="733" on="1"/>
        <pt x="235" y="597" on="1"/>
        <pt x="346" y="597" on="1"/>
        <pt x="346" y="509" on="1"/>
      </contour>
    </TTGlyph>
    <TTGlyph name="daggerdbl" xMin="28" yMin="178" xMax="348" yMax="733">
      <contour>
        <pt x="235" y="303" on="1"/>
        <pt x="235" y="178" on="1"/>
        <pt x="142" y="178" on="1"/>
        <pt x="142" y="303" on="1"/>
        <pt x="30" y="303" on="1"/>
        <pt x="30" y="391" on="1"/>
        <pt x="142" y="391" on="1"/>
        <pt x="142" y="519" on="1"/>
        <pt x="28" y="519" on="1"/>
        <pt x="28" y="607" on="1"/>
        <pt x="142" y="607" on="1"/>
        <pt x="142" y="733" on="1"/>
        <pt x="235" y="733" on="1"/>
        <pt x="235" y="607" on="1"/>
        <pt x="346" y="607" on="1"/>
        <pt x="346" y="519" on="1"/>
        <pt x="235" y="519" on="1"/>
        <pt x="235" y="391" on="1"/>
        <pt x="348" y="391" on="1"/>
        <pt x="348" y="303" on="1"/>
      </contour>
    </TTGlyph>
    <TTGlyph name="dcaron" xMin="29" yMin="-8" xMax="541" yMax="734">
      <component glyphName="caron.alt" x="377" y="-5" flags="0x4"/>
      <component glyphName="d" x="0" y="0" flags="0x4"/>
    </TTGlyph>
    <TTGlyph name="dcroat" xMin="29" yMin="-8" xMax="436" yMax="733">
      <contour>
        <pt x="293" y="0" on="1"/>
        <pt x="293" y="38" on="1"/>
        <pt x="273" y="17" on="0"/>
        <pt x="221" y="-8" on="0"/>
        <pt x="189" y="-8" on="1"/>
        <pt x="155" y="-8" on="0"/>
        <pt x="96" y="23" on="0"/>
        <pt x="53" y="81" on="0"/>
        <pt x="29" y="165" on="0"/>
        <pt x="29" y="219" on="1"/>
        <pt x="29" y="270" on="0"/>
        <pt x="56" y="357" on="0"/>
        <pt x="102" y="419" on="0"/>
        <pt x="162" y="454" on="0"/>
        <pt x="195" y="454" on="1"/>
        <pt x="226" y="454" on="0"/>
        <pt x="269" y="437" on="0"/>
        <pt x="289" y="421" on="1"/>
        <pt x="289" y="551" on="1"/>
        <pt x="176" y="551" on="1"/>
        <pt x="176" y="635" on="1"/>
        <pt x="289" y="635" on="1"/>
        <pt x="289" y="733" on="1"/>
        <pt x="392" y="733" on="1"/>
        <pt x="392" y="635" on="1"/>
        <pt x="436" y="635" on="1"/>
        <pt x="436" y="551" on="1"/>
        <pt x="392" y="551" on="1"/>
        <pt x="392" y="0" on="1"/>
      </contour>
      <contour>
        <pt x="289" y="338" on="1"/>
        <pt x="276" y="352" on="0"/>
        <pt x="242" y="371" on="0"/>
        <pt x="220" y="371" on="1"/>
        <pt x="182" y="371" on="0"/>
        <pt x="132" y="295" on="0"/>
        <pt x="132" y="220" on="1"/>
        <pt x="132" y="144" on="0"/>
        <pt x="179" y="76" on="0"/>
        <pt x="219" y="76" on="1"/>
        <pt x="241" y="76" on="0"/>
        <pt x="275" y="93" on="0"/>
        <pt x="289" y="109" on="1"/>
      </contour>
    </TTGlyph>
    <TTGlyph name="degree" xMin="66" yMin="466" xMax="320" yMax="713">
      <contour>
        <pt x="320" y="589" on="1"/>
        <pt x="320" y="563" on="0"/>
        <pt x="302" y="519" on="0"/>
        <pt x="269" y="485" on="0"/>
        <pt x="221" y="466" on="0"/>
        <pt x="192" y="466" on="1"/>
        <pt x="163" y="466" on="0"/>
        <pt x="117" y="485" on="0"/>
        <pt x="84" y="519" on="0"/>
        <pt x="66" y="563" on="0"/>
        <pt x="66" y="589" on="1"/>
        <pt x="66" y="614" on="0"/>
        <pt x="84" y="660" on="0"/>
        <pt x="117" y="693" on="0"/>
        <pt x="163" y="713" on="0"/>
        <pt x="192" y="713" on="1"/>
        <pt x="221" y="713" on="0"/>
        <pt x="269" y="693" on="0"/>
        <pt x="302" y="660" on="0"/>
        <pt x="320" y="614" on="0"/>
      </contour>
      <contour>
        <pt x="250" y="589" on="1"/>
        <pt x="250" y="619" on="0"/>
        <pt x="218" y="656" on="0"/>
        <pt x="192" y="656" on="1"/>
        <pt x="166" y="656" on="0"/>
        <pt x="135" y="620" on="0"/>
        <pt x="135" y="589" on="1"/>
        <pt x="135" y="559" on="0"/>
        <pt x="166" y="522" on="0"/>
        <pt x="192" y="522" on="1"/>
        <pt x="218" y="522" on="0"/>
        <pt x="250" y="559" on="0"/>
      </contour>
    </TTGlyph>
    <TTGlyph name="degree.lin" xMin="50" yMin="465" xMax="327" yMax="737">
      <contour>
        <pt x="327" y="601" on="1"/>
        <pt x="327" y="574" on="0"/>
        <pt x="308" y="524" on="0"/>
        <pt x="272" y="487" on="0"/>
        <pt x="220" y="465" on="0"/>
        <pt x="188" y="465" on="1"/>
        <pt x="156" y="465" on="0"/>
        <pt x="105" y="487" on="0"/>
        <pt x="69" y="524" on="0"/>
        <pt x="50" y="574" on="0"/>
        <pt x="50" y="601" on="1"/>
        <pt x="50" y="629" on="0"/>
        <pt x="69" y="678" on="0"/>
        <pt x="105" y="715" on="0"/>
        <pt x="156" y="737" on="0"/>
        <pt x="188" y="737" on="1"/>
        <pt x="220" y="737" on="0"/>
        <pt x="272" y="715" on="0"/>
        <pt x="308" y="678" on="0"/>
        <pt x="327" y="629" on="0"/>
      </contour>
      <contour>
        <pt x="253" y="601" on="1"/>
        <pt x="253" y="636" on="0"/>
        <pt x="217" y="677" on="0"/>
        <pt x="188" y="677" on="1"/>
        <pt x="159" y="677" on="0"/>
        <pt x="124" y="636" on="0"/>
        <pt x="124" y="601" on="1"/>
        <pt x="124" y="566" on="0"/>
        <pt x="159" y="525" on="0"/>
        <pt x="188" y="525" on="1"/>
        <pt x="217" y="525" on="0"/>
        <pt x="253" y="566" on="0"/>
      </contour>
    </TTGlyph>
    <TTGlyph name="dieresis" xMin="80" yMin="501" xMax="351" yMax="613">
      <contour>
        <pt x="351" y="556" on="1"/>
        <pt x="351" y="533" on="0"/>
        <pt x="318" y="501" on="0"/>
        <pt x="295" y="501" on="1"/>
        <pt x="272" y="501" on="0"/>
        <pt x="238" y="533" on="0"/>
        <pt x="238" y="556" on="1"/>
        <pt x="238" y="580" on="0"/>
        <pt x="272" y="613" on="0"/>
        <pt x="295" y="613" on="1"/>
        <pt x="318" y="613" on="0"/>
        <pt x="351" y="580" on="0"/>
      </contour>
      <contour>
        <pt x="192" y="556" on="1"/>
        <pt x="192" y="533" on="0"/>
        <pt x="158" y="501" on="0"/>
        <pt x="135" y="501" on="1"/>
        <pt x="112" y="501" on="0"/>
        <pt x="80" y="533" on="0"/>
        <pt x="80" y="556" on="1"/>
        <pt x="80" y="580" on="0"/>
        <pt x="112" y="613" on="0"/>
        <pt x="135" y="613" on="1"/>
        <pt x="158" y="613" on="0"/>
        <pt x="192" y="580" on="0"/>
      </contour>
    </TTGlyph>
    <TTGlyph name="divide" xMin="43" yMin="161" xMax="355" yMax="510">
      <contour>
        <pt x="43" y="372" on="1"/>
        <pt x="355" y="372" on="1"/>
        <pt x="355" y="299" on="1"/>
        <pt x="43" y="299" on="1"/>
      </contour>
      <contour>
        <pt x="150" y="460" on="1"/>
        <pt x="150" y="481" on="0"/>
        <pt x="178" y="510" on="0"/>
        <pt x="199" y="510" on="1"/>
        <pt x="220" y="510" on="0"/>
        <pt x="248" y="481" on="0"/>
        <pt x="248" y="460" on="1"/>
        <pt x="248" y="440" on="0"/>
        <pt x="219" y="411" on="0"/>
        <pt x="198" y="411" on="1"/>
        <pt x="178" y="411" on="0"/>
        <pt x="150" y="440" on="0"/>
      </contour>
      <contour>
        <pt x="150" y="211" on="1"/>
        <pt x="150" y="231" on="0"/>
        <pt x="178" y="260" on="0"/>
        <pt x="199" y="260" on="1"/>
        <pt x="220" y="260" on="0"/>
        <pt x="248" y="231" on="0"/>
        <pt x="248" y="211" on="1"/>
        <pt x="248" y="190" on="0"/>
        <pt x="220" y="161" on="0"/>
        <pt x="199" y="161" on="1"/>
        <pt x="178" y="161" on="0"/>
        <pt x="150" y="190" on="0"/>
      </contour>
    </TTGlyph>
    <TTGlyph name="divide.lin" xMin="43" yMin="196" xMax="355" yMax="545">
      <component glyphName="divide" x="0" y="35" flags="0x204"/>
    </TTGlyph>
    <TTGlyph name="dollar" xMin="16" yMin="-86" xMax="393" yMax="745">
      <contour>
        <pt x="293" y="742" on="1"/>
        <pt x="284" y="666" on="1"/>
        <pt x="314" y="660" on="0"/>
        <pt x="365" y="635" on="0"/>
        <pt x="388" y="619" on="1"/>
        <pt x="348" y="530" on="1"/>
        <pt x="330" y="544" on="0"/>
        <pt x="293" y="565" on="0"/>
        <pt x="273" y="572" on="1"/>
        <pt x="250" y="373" on="1"/>
        <pt x="284" y="350" on="0"/>
        <pt x="338" y="306" on="0"/>
        <pt x="374" y="258" on="0"/>
        <pt x="393" y="204" on="0"/>
        <pt x="393" y="171" on="1"/>
        <pt x="393" y="131" on="0"/>
        <pt x="365" y="64" on="0"/>
        <pt x="315" y="16" on="0"/>
        <pt x="245" y="-11" on="0"/>
        <pt x="204" y="-11" on="1"/>
        <pt x="196" y="-86" on="1"/>
        <pt x="137" y="-83" on="1"/>
        <pt x="146" y="-4" on="1"/>
        <pt x="110" y="4" on="0"/>
        <pt x="43" y="34" on="0"/>
        <pt x="16" y="54" on="1"/>
        <pt x="59" y="143" on="1"/>
        <pt x="80" y="126" on="0"/>
        <pt x="130" y="97" on="0"/>
        <pt x="157" y="89" on="1"/>
        <pt x="182" y="304" on="1"/>
        <pt x="148" y="326" on="0"/>
        <pt x="96" y="368" on="0"/>
        <pt x="60" y="413" on="0"/>
        <pt x="42" y="465" on="0"/>
        <pt x="42" y="497" on="1"/>
        <pt x="42" y="532" on="0"/>
        <pt x="68" y="595" on="0"/>
        <pt x="116" y="643" on="0"/>
        <pt x="184" y="671" on="0"/>
        <pt x="226" y="672" on="1"/>
        <pt x="234" y="745" on="1"/>
      </contour>
      <contour>
        <pt x="291" y="166" on="1"/>
        <pt x="291" y="194" on="0"/>
        <pt x="264" y="240" on="0"/>
        <pt x="236" y="263" on="1"/>
        <pt x="215" y="82" on="1"/>
        <pt x="253" y="85" on="0"/>
        <pt x="291" y="131" on="0"/>
      </contour>
      <contour>
        <pt x="143" y="502" on="1"/>
        <pt x="143" y="477" on="0"/>
        <pt x="170" y="437" on="0"/>
        <pt x="196" y="414" on="1"/>
        <pt x="215" y="580" on="1"/>
        <pt x="180" y="578" on="0"/>
        <pt x="143" y="534" on="0"/>
      </contour>
    </TTGlyph>
    <TTGlyph name="dollar.lin" xMin="11" yMin="-96" xMax="420" yMax="818">
      <contour>
        <pt x="310" y="815" on="1"/>
        <pt x="300" y="731" on="1"/>
        <pt x="333" y="724" on="0"/>
        <pt x="390" y="698" on="0"/>
        <pt x="416" y="679" on="1"/>
        <pt x="370" y="587" on="1"/>
        <pt x="331" y="618" on="0"/>
        <pt x="289" y="631" on="1"/>
        <pt x="264" y="412" on="1"/>
        <pt x="304" y="385" on="0"/>
        <pt x="363" y="335" on="0"/>
        <pt x="401" y="282" on="0"/>
        <pt x="420" y="224" on="0"/>
        <pt x="420" y="189" on="1"/>
        <pt x="420" y="147" on="0"/>
        <pt x="391" y="74" on="0"/>
        <pt x="337" y="20" on="0"/>
        <pt x="261" y="-11" on="0"/>
        <pt x="213" y="-11" on="1"/>
        <pt x="204" y="-96" on="1"/>
        <pt x="144" y="-92" on="1"/>
        <pt x="154" y="-5" on="1"/>
        <pt x="116" y="3" on="0"/>
        <pt x="42" y="36" on="0"/>
        <pt x="11" y="59" on="1"/>
        <pt x="58" y="151" on="1"/>
        <pt x="81" y="134" on="0"/>
        <pt x="136" y="104" on="0"/>
        <pt x="165" y="96" on="1"/>
        <pt x="192" y="332" on="1"/>
        <pt x="187" y="336" on="1"/>
        <pt x="150" y="360" on="0"/>
        <pt x="94" y="407" on="0"/>
        <pt x="57" y="457" on="0"/>
        <pt x="39" y="513" on="0"/>
        <pt x="39" y="547" on="1"/>
        <pt x="39" y="584" on="0"/>
        <pt x="67" y="652" on="0"/>
        <pt x="119" y="705" on="0"/>
        <pt x="193" y="736" on="0"/>
        <pt x="240" y="737" on="1"/>
        <pt x="250" y="818" on="1"/>
      </contour>
      <contour>
        <pt x="310" y="184" on="1"/>
        <pt x="310" y="214" on="0"/>
        <pt x="281" y="263" on="0"/>
        <pt x="248" y="291" on="1"/>
        <pt x="225" y="89" on="1"/>
        <pt x="269" y="92" on="0"/>
        <pt x="310" y="148" on="0"/>
      </contour>
      <contour>
        <pt x="149" y="551" on="1"/>
        <pt x="149" y="523" on="0"/>
        <pt x="178" y="479" on="0"/>
        <pt x="208" y="454" on="1"/>
        <pt x="229" y="637" on="1"/>
        <pt x="191" y="634" on="0"/>
        <pt x="149" y="585" on="0"/>
      </contour>
    </TTGlyph>
    <TTGlyph name="dotaccent" xMin="152" yMin="500" xMax="265" yMax="613">
      <contour>
        <pt x="152" y="556" on="1"/>
        <pt x="152" y="580" on="0"/>
        <pt x="185" y="613" on="0"/>
        <pt x="209" y="613" on="1"/>
        <pt x="232" y="613" on="0"/>
        <pt x="265" y="580" on="0"/>
        <pt x="265" y="556" on="1"/>
        <pt x="265" y="533" on="0"/>
        <pt x="232" y="500" on="0"/>
        <pt x="209" y="500" on="1"/>
        <pt x="185" y="500" on="0"/>
        <pt x="152" y="533" on="0"/>
      </contour>
    </TTGlyph>
    <TTGlyph name="dotlessi" xMin="49" yMin="0" xMax="153" yMax="446">
      <contour>
        <pt x="49" y="0" on="1"/>
        <pt x="49" y="446" on="1"/>
        <pt x="153" y="446" on="1"/>
        <pt x="153" y="0" on="1"/>
      </contour>
    </TTGlyph>
    <TTGlyph name="e" xMin="28" yMin="-9" xMax="375" yMax="455">
      <contour>
        <pt x="375" y="240" on="1"/>
        <pt x="375" y="229" on="0"/>
        <pt x="374" y="201" on="0"/>
        <pt x="372" y="190" on="1"/>
        <pt x="129" y="190" on="1"/>
        <pt x="131" y="138" on="0"/>
        <pt x="183" y="76" on="0"/>
        <pt x="239" y="76" on="1"/>
        <pt x="261" y="76" on="0"/>
        <pt x="313" y="89" on="0"/>
        <pt x="339" y="99" on="1"/>
        <pt x="353" y="18" on="1"/>
        <pt x="319" y="5" on="0"/>
        <pt x="256" y="-9" on="0"/>
        <pt x="226" y="-9" on="1"/>
        <pt x="128" y="-9" on="0"/>
        <pt x="28" y="116" on="0"/>
        <pt x="28" y="221" on="1"/>
        <pt x="28" y="268" on="0"/>
        <pt x="52" y="353" on="0"/>
        <pt x="99" y="417" on="0"/>
        <pt x="167" y="455" on="0"/>
        <pt x="211" y="455" on="1"/>
        <pt x="251" y="455" on="0"/>
        <pt x="313" y="422" on="0"/>
        <pt x="354" y="364" on="0"/>
        <pt x="375" y="285" on="0"/>
      </contour>
      <contour>
        <pt x="283" y="256" on="1"/>
        <pt x="281" y="307" on="0"/>
        <pt x="245" y="371" on="0"/>
        <pt x="210" y="371" on="1"/>
        <pt x="177" y="371" on="0"/>
        <pt x="136" y="313" on="0"/>
        <pt x="131" y="256" on="1"/>
      </contour>
    </TTGlyph>
    <TTGlyph name="eacute" xMin="28" yMin="-9" xMax="375" yMax="664">
      <component glyphName="acute" x="48" y="0" flags="0x4"/>
      <component glyphName="e" x="0" y="0" flags="0x4"/>
    </TTGlyph>
    <TTGlyph name="ebreve" xMin="28" yMin="-9" xMax="375" yMax="626">
      <component glyphName="e" x="0" y="0" flags="0x204"/>
      <component glyphName="breve" x="-6" y="0" flags="0x4"/>
    </TTGlyph>
    <TTGlyph name="ecaron" xMin="28" yMin="-9" xMax="375" yMax="648">
      <component glyphName="caron" x="-4" y="0" flags="0x4"/>
      <component glyphName="e" x="0" y="0" flags="0x4"/>
    </TTGlyph>
    <TTGlyph name="ecircumflex" xMin="28" yMin="-9" xMax="375" yMax="653">
      <component glyphName="circumflex" x="-8" y="0" flags="0x4"/>
      <component glyphName="e" x="0" y="0" flags="0x4"/>
    </TTGlyph>
    <TTGlyph name="edieresis" xMin="28" yMin="-9" xMax="375" yMax="613">
      <component glyphName="dieresis" x="-6" y="0" flags="0x4"/>
      <component glyphName="e" x="0" y="0" flags="0x4"/>
    </TTGlyph>
    <TTGlyph name="edotaccent" xMin="28" yMin="-9" xMax="375" yMax="613">
      <component glyphName="e" x="0" y="0" flags="0x204"/>
      <component glyphName="dotaccent" x="0" y="0" flags="0x4"/>
    </TTGlyph>
    <TTGlyph name="egrave" xMin="28" yMin="-9" xMax="375" yMax="664">
      <component glyphName="e" x="0" y="0" flags="0x204"/>
      <component glyphName="grave" x="-73" y="0" flags="0x4"/>
    </TTGlyph>
    <TTGlyph name="eight" xMin="39" yMin="-11" xMax="409" yMax="672">
      <contour>
        <pt x="409" y="174" on="1"/>
        <pt x="409" y="136" on="0"/>
        <pt x="383" y="68" on="0"/>
        <pt x="335" y="18" on="0"/>
        <pt x="267" y="-11" on="0"/>
        <pt x="224" y="-11" on="1"/>
        <pt x="181" y="-11" on="0"/>
        <pt x="113" y="18" on="0"/>
        <pt x="65" y="68" on="0"/>
        <pt x="39" y="136" on="0"/>
        <pt x="39" y="174" on="1"/>
        <pt x="39" y="225" on="0"/>
        <pt x="84" y="314" on="0"/>
        <pt x="132" y="337" on="1"/>
        <pt x="49" y="388" on="0"/>
        <pt x="49" y="489" on="1"/>
        <pt x="49" y="527" on="0"/>
        <pt x="74" y="594" on="0"/>
        <pt x="120" y="643" on="0"/>
        <pt x="184" y="672" on="0"/>
        <pt x="224" y="672" on="1"/>
        <pt x="264" y="672" on="0"/>
        <pt x="328" y="643" on="0"/>
        <pt x="374" y="594" on="0"/>
        <pt x="399" y="527" on="0"/>
        <pt x="399" y="489" on="1"/>
        <pt x="399" y="438" on="0"/>
        <pt x="356" y="362" on="0"/>
        <pt x="317" y="337" on="1"/>
        <pt x="365" y="314" on="0"/>
        <pt x="409" y="225" on="0"/>
      </contour>
      <contour>
        <pt x="296" y="479" on="1"/>
        <pt x="296" y="526" on="0"/>
        <pt x="259" y="583" on="0"/>
        <pt x="225" y="583" on="1"/>
        <pt x="190" y="583" on="0"/>
        <pt x="152" y="526" on="0"/>
        <pt x="152" y="479" on="1"/>
        <pt x="152" y="431" on="0"/>
        <pt x="193" y="375" on="0"/>
        <pt x="225" y="375" on="1"/>
        <pt x="257" y="375" on="0"/>
        <pt x="296" y="431" on="0"/>
      </contour>
      <contour>
        <pt x="301" y="185" on="1"/>
        <pt x="301" y="235" on="0"/>
        <pt x="259" y="293" on="0"/>
        <pt x="224" y="293" on="1"/>
        <pt x="189" y="293" on="0"/>
        <pt x="147" y="235" on="0"/>
        <pt x="147" y="185" on="1"/>
        <pt x="147" y="140" on="0"/>
        <pt x="188" y="79" on="0"/>
        <pt x="223" y="79" on="1"/>
        <pt x="260" y="79" on="0"/>
        <pt x="301" y="140" on="0"/>
      </contour>
    </TTGlyph>
    <TTGlyph name="eight.lin" xMin="37" yMin="-11" xMax="449" yMax="738">
      <contour>
        <pt x="449" y="190" on="1"/>
        <pt x="449" y="148" on="0"/>
        <pt x="420" y="75" on="0"/>
        <pt x="366" y="20" on="0"/>
        <pt x="290" y="-11" on="0"/>
        <pt x="243" y="-11" on="1"/>
        <pt x="195" y="-11" on="0"/>
        <pt x="119" y="20" on="0"/>
        <pt x="66" y="75" on="0"/>
        <pt x="37" y="148" on="0"/>
        <pt x="37" y="190" on="1"/>
        <pt x="37" y="247" on="0"/>
        <pt x="87" y="344" on="0"/>
        <pt x="139" y="368" on="1"/>
        <pt x="96" y="394" on="0"/>
        <pt x="49" y="481" on="0"/>
        <pt x="49" y="536" on="1"/>
        <pt x="49" y="578" on="0"/>
        <pt x="76" y="652" on="0"/>
        <pt x="127" y="706" on="0"/>
        <pt x="199" y="738" on="0"/>
        <pt x="243" y="738" on="1"/>
        <pt x="287" y="738" on="0"/>
        <pt x="359" y="707" on="0"/>
        <pt x="409" y="652" on="0"/>
        <pt x="436" y="579" on="0"/>
        <pt x="436" y="537" on="1"/>
        <pt x="436" y="482" on="0"/>
        <pt x="388" y="393" on="0"/>
        <pt x="347" y="368" on="1"/>
        <pt x="399" y="344" on="0"/>
        <pt x="449" y="247" on="0"/>
      </contour>
      <contour>
        <pt x="327" y="524" on="1"/>
        <pt x="327" y="577" on="0"/>
        <pt x="285" y="642" on="0"/>
        <pt x="243" y="642" on="1"/>
        <pt x="202" y="642" on="0"/>
        <pt x="158" y="577" on="0"/>
        <pt x="158" y="524" on="1"/>
        <pt x="158" y="471" on="0"/>
        <pt x="205" y="410" on="0"/>
        <pt x="243" y="410" on="1"/>
        <pt x="281" y="410" on="0"/>
        <pt x="327" y="471" on="0"/>
      </contour>
      <contour>
        <pt x="335" y="203" on="1"/>
        <pt x="335" y="258" on="0"/>
        <pt x="284" y="323" on="0"/>
        <pt x="242" y="323" on="1"/>
        <pt x="201" y="323" on="0"/>
        <pt x="152" y="258" on="0"/>
        <pt x="152" y="203" on="1"/>
        <pt x="152" y="178" on="0"/>
        <pt x="164" y="135" on="0"/>
        <pt x="188" y="103" on="0"/>
        <pt x="221" y="84" on="0"/>
        <pt x="242" y="84" on="1"/>
        <pt x="287" y="84" on="0"/>
        <pt x="335" y="153" on="0"/>
      </contour>
    </TTGlyph>
    <TTGlyph name="ellipsis" xMin="48" yMin="-9" xMax="591" yMax="116">
      <contour>
        <pt x="48" y="54" on="1"/>
        <pt x="48" y="80" on="0"/>
        <pt x="83" y="116" on="0"/>
        <pt x="109" y="116" on="1"/>
        <pt x="136" y="116" on="0"/>
        <pt x="171" y="80" on="0"/>
        <pt x="171" y="54" on="1"/>
        <pt x="171" y="28" on="0"/>
        <pt x="136" y="-9" on="0"/>
        <pt x="109" y="-9" on="1"/>
        <pt x="83" y="-9" on="0"/>
        <pt x="48" y="28" on="0"/>
      </contour>
      <contour>
        <pt x="257" y="54" on="1"/>
        <pt x="257" y="80" on="0"/>
        <pt x="293" y="116" on="0"/>
        <pt x="319" y="116" on="1"/>
        <pt x="345" y="116" on="0"/>
        <pt x="381" y="80" on="0"/>
        <pt x="381" y="54" on="1"/>
        <pt x="381" y="28" on="0"/>
        <pt x="345" y="-9" on="0"/>
        <pt x="319" y="-9" on="1"/>
        <pt x="293" y="-9" on="0"/>
        <pt x="257" y="28" on="0"/>
      </contour>
      <contour>
        <pt x="467" y="54" on="1"/>
        <pt x="467" y="80" on="0"/>
        <pt x="503" y="116" on="0"/>
        <pt x="529" y="116" on="1"/>
        <pt x="555" y="116" on="0"/>
        <pt x="591" y="80" on="0"/>
        <pt x="591" y="54" on="1"/>
        <pt x="591" y="28" on="0"/>
        <pt x="555" y="-9" on="0"/>
        <pt x="529" y="-9" on="1"/>
        <pt x="503" y="-9" on="0"/>
        <pt x="467" y="28" on="0"/>
      </contour>
    </TTGlyph>
    <TTGlyph name="emacron" xMin="28" yMin="-9" xMax="375" yMax="581">
      <component glyphName="e" x="0" y="0" flags="0x204"/>
      <component glyphName="macron" x="-6" y="0" flags="0x4"/>
    </TTGlyph>
    <TTGlyph name="emdash" xMin="39" yMin="221" xMax="540" yMax="296">
      <contour>
        <pt x="39" y="221" on="1"/>
        <pt x="39" y="296" on="1"/>
        <pt x="540" y="296" on="1"/>
        <pt x="540" y="221" on="1"/>
      </contour>
    </TTGlyph>
    <TTGlyph name="emdash.cap" xMin="39" yMin="333" xMax="540" yMax="408">
      <component glyphName="emdash" x="0" y="112" flags="0x204"/>
    </TTGlyph>
    <TTGlyph name="endash" xMin="39" yMin="221" xMax="347" yMax="296">
      <contour>
        <pt x="39" y="221" on="1"/>
        <pt x="39" y="296" on="1"/>
        <pt x="347" y="296" on="1"/>
        <pt x="347" y="221" on="1"/>
      </contour>
    </TTGlyph>
    <TTGlyph name="endash.cap" xMin="39" yMin="333" xMax="347" yMax="408">
      <component glyphName="endash" x="0" y="112" flags="0x204"/>
    </TTGlyph>
    <TTGlyph name="eogonek" xMin="28" yMin="-205" xMax="375" yMax="455">
      <contour>
        <pt x="375" y="240" on="1"/>
        <pt x="375" y="229" on="0"/>
        <pt x="374" y="201" on="0"/>
        <pt x="372" y="190" on="1"/>
        <pt x="129" y="190" on="1"/>
        <pt x="131" y="138" on="0"/>
        <pt x="183" y="76" on="0"/>
        <pt x="239" y="76" on="1"/>
        <pt x="261" y="76" on="0"/>
        <pt x="313" y="89" on="0"/>
        <pt x="339" y="99" on="1"/>
        <pt x="352" y="19" on="1"/>
        <pt x="317" y="-16" on="0"/>
        <pt x="279" y="-82" on="0"/>
        <pt x="279" y="-106" on="1"/>
        <pt x="279" y="-123" on="0"/>
        <pt x="297" y="-142" on="0"/>
        <pt x="311" y="-142" on="1"/>
        <pt x="332" y="-142" on="0"/>
        <pt x="349" y="-125" on="1"/>
        <pt x="374" y="-165" on="1"/>
        <pt x="358" y="-182" on="0"/>
        <pt x="314" y="-205" on="0"/>
        <pt x="285" y="-205" on="1"/>
        <pt x="248" y="-205" on="0"/>
        <pt x="206" y="-161" on="0"/>
        <pt x="206" y="-126" on="1"/>
        <pt x="206" y="-97" on="0"/>
        <pt x="234" y="-41" on="0"/>
        <pt x="265" y="-6" on="1"/>
        <pt x="245" y="-9" on="0"/>
        <pt x="226" y="-9" on="1"/>
        <pt x="128" y="-9" on="0"/>
        <pt x="28" y="116" on="0"/>
        <pt x="28" y="221" on="1"/>
        <pt x="28" y="268" on="0"/>
        <pt x="52" y="353" on="0"/>
        <pt x="99" y="417" on="0"/>
        <pt x="167" y="455" on="0"/>
        <pt x="211" y="455" on="1"/>
        <pt x="251" y="455" on="0"/>
        <pt x="313" y="422" on="0"/>
        <pt x="354" y="364" on="0"/>
        <pt x="375" y="285" on="0"/>
      </contour>
      <contour>
        <pt x="283" y="256" on="1"/>
        <pt x="281" y="307" on="0"/>
        <pt x="245" y="371" on="0"/>
        <pt x="210" y="371" on="1"/>
        <pt x="177" y="371" on="0"/>
        <pt x="136" y="313" on="0"/>
        <pt x="131" y="256" on="1"/>
      </contour>
    </TTGlyph>
    <TTGlyph name="equal" xMin="46" yMin="215" xMax="300" yMax="456">
      <contour>
        <pt x="46" y="377" on="1"/>
        <pt x="46" y="456" on="1"/>
        <pt x="300" y="456" on="1"/>
        <pt x="300" y="377" on="1"/>
      </contour>
      <contour>
        <pt x="46" y="215" on="1"/>
        <pt x="46" y="294" on="1"/>
        <pt x="300" y="294" on="1"/>
        <pt x="300" y="215" on="1"/>
      </contour>
    </TTGlyph>
    <TTGlyph name="equal.lin" xMin="46" yMin="250" xMax="300" yMax="491">
      <component glyphName="equal" x="0" y="35" flags="0x204"/>
    </TTGlyph>
    <TTGlyph name="eth" xMin="30" yMin="-10" xMax="402" yMax="741">
      <contour>
        <pt x="69" y="557" on="1"/>
        <pt x="134" y="612" on="1"/>
        <pt x="96" y="645" on="0"/>
        <pt x="62" y="667" on="1"/>
        <pt x="121" y="741" on="1"/>
        <pt x="143" y="727" on="0"/>
        <pt x="185" y="693" on="0"/>
        <pt x="206" y="674" on="1"/>
        <pt x="271" y="729" on="1"/>
        <pt x="319" y="671" on="1"/>
        <pt x="311" y="664" on="0"/>
        <pt x="301" y="656" on="1"/>
        <pt x="293" y="649" on="0"/>
        <pt x="271" y="632" on="0"/>
        <pt x="259" y="621" on="1"/>
        <pt x="290" y="586" on="0"/>
        <pt x="342" y="504" on="0"/>
        <pt x="380" y="410" on="0"/>
        <pt x="402" y="304" on="0"/>
        <pt x="402" y="245" on="1"/>
        <pt x="402" y="187" on="0"/>
        <pt x="376" y="93" on="0"/>
        <pt x="328" y="26" on="0"/>
        <pt x="259" y="-10" on="0"/>
        <pt x="216" y="-10" on="1"/>
        <pt x="171" y="-10" on="0"/>
        <pt x="101" y="25" on="0"/>
        <pt x="54" y="88" on="0"/>
        <pt x="30" y="175" on="0"/>
        <pt x="30" y="226" on="1"/>
        <pt x="30" y="275" on="0"/>
        <pt x="53" y="356" on="0"/>
        <pt x="95" y="414" on="0"/>
        <pt x="153" y="446" on="0"/>
        <pt x="188" y="446" on="1"/>
        <pt x="215" y="446" on="0"/>
        <pt x="264" y="423" on="0"/>
        <pt x="283" y="400" on="1"/>
        <pt x="269" y="442" on="0"/>
        <pt x="218" y="523" on="0"/>
        <pt x="186" y="559" on="1"/>
        <pt x="171" y="547" on="0"/>
        <pt x="146" y="525" on="0"/>
        <pt x="136" y="517" on="1"/>
        <pt x="125" y="507" on="0"/>
        <pt x="116" y="500" on="1"/>
      </contour>
      <contour>
        <pt x="302" y="222" on="1"/>
        <pt x="302" y="289" on="0"/>
        <pt x="255" y="367" on="0"/>
        <pt x="213" y="367" on="1"/>
        <pt x="174" y="367" on="0"/>
        <pt x="132" y="290" on="0"/>
        <pt x="132" y="224" on="1"/>
        <pt x="132" y="157" on="0"/>
        <pt x="175" y="74" on="0"/>
        <pt x="217" y="74" on="1"/>
        <pt x="260" y="74" on="0"/>
        <pt x="302" y="157" on="0"/>
      </contour>
    </TTGlyph>
    <TTGlyph name="exclam" xMin="46" yMin="-9" xMax="171" yMax="733">
      <contour>
        <pt x="142" y="202" on="1"/>
        <pt x="74" y="202" on="1"/>
        <pt x="50" y="733" on="1"/>
        <pt x="165" y="733" on="1"/>
      </contour>
      <contour>
        <pt x="171" y="53" on="1"/>
        <pt x="171" y="27" on="0"/>
        <pt x="134" y="-9" on="0"/>
        <pt x="108" y="-9" on="1"/>
        <pt x="82" y="-9" on="0"/>
        <pt x="46" y="27" on="0"/>
        <pt x="46" y="53" on="1"/>
        <pt x="46" y="79" on="0"/>
        <pt x="82" y="116" on="0"/>
        <pt x="108" y="116" on="1"/>
        <pt x="134" y="116" on="0"/>
        <pt x="171" y="79" on="0"/>
      </contour>
    </TTGlyph>
    <TTGlyph name="exclamdown" xMin="46" yMin="0" xMax="170" yMax="742">
      <contour>
        <pt x="46" y="680" on="1"/>
        <pt x="46" y="706" on="0"/>
        <pt x="82" y="742" on="0"/>
        <pt x="108" y="742" on="1"/>
        <pt x="134" y="742" on="0"/>
        <pt x="170" y="706" on="0"/>
        <pt x="170" y="680" on="1"/>
        <pt x="170" y="654" on="0"/>
        <pt x="134" y="617" on="0"/>
        <pt x="108" y="617" on="1"/>
        <pt x="82" y="617" on="0"/>
        <pt x="46" y="654" on="0"/>
      </contour>
      <contour>
        <pt x="74" y="531" on="1"/>
        <pt x="143" y="531" on="1"/>
        <pt x="166" y="0" on="1"/>
        <pt x="51" y="0" on="1"/>
      </contour>
    </TTGlyph>
    <TTGlyph name="f" xMin="15" yMin="0" xMax="291" yMax="740">
      <contour>
        <pt x="282" y="642" on="1"/>
        <pt x="274" y="644" on="0"/>
        <pt x="255" y="646" on="0"/>
        <pt x="246" y="646" on="1"/>
        <pt x="214" y="646" on="0"/>
        <pt x="183" y="611" on="0"/>
        <pt x="183" y="562" on="1"/>
        <pt x="183" y="446" on="1"/>
        <pt x="276" y="446" on="1"/>
        <pt x="276" y="358" on="1"/>
        <pt x="183" y="358" on="1"/>
        <pt x="183" y="0" on="1"/>
        <pt x="80" y="0" on="1"/>
        <pt x="80" y="358" on="1"/>
        <pt x="15" y="358" on="1"/>
        <pt x="15" y="393" on="1"/>
        <pt x="80" y="450" on="1"/>
        <pt x="80" y="567" on="1"/>
        <pt x="80" y="652" on="0"/>
        <pt x="153" y="740" on="0"/>
        <pt x="228" y="740" on="1"/>
        <pt x="248" y="740" on="0"/>
        <pt x="280" y="735" on="0"/>
        <pt x="291" y="732" on="1"/>
      </contour>
    </TTGlyph>
    <TTGlyph name="f_f" xMin="15" yMin="0" xMax="564" yMax="740">
      <contour>
        <pt x="282" y="642" on="1"/>
        <pt x="274" y="644" on="0"/>
        <pt x="255" y="646" on="0"/>
        <pt x="246" y="646" on="1"/>
        <pt x="214" y="646" on="0"/>
        <pt x="183" y="611" on="0"/>
        <pt x="183" y="562" on="1"/>
        <pt x="183" y="446" on="1"/>
        <pt x="276" y="446" on="1"/>
        <pt x="276" y="358" on="1"/>
        <pt x="183" y="358" on="1"/>
        <pt x="183" y="0" on="1"/>
        <pt x="80" y="0" on="1"/>
        <pt x="80" y="358" on="1"/>
        <pt x="15" y="358" on="1"/>
        <pt x="15" y="393" on="1"/>
        <pt x="80" y="450" on="1"/>
        <pt x="80" y="567" on="1"/>
        <pt x="80" y="652" on="0"/>
        <pt x="153" y="740" on="0"/>
        <pt x="228" y="740" on="1"/>
        <pt x="248" y="740" on="0"/>
        <pt x="280" y="735" on="0"/>
        <pt x="291" y="732" on="1"/>
      </contour>
      <contour>
        <pt x="555" y="642" on="1"/>
        <pt x="547" y="644" on="0"/>
        <pt x="528" y="646" on="0"/>
        <pt x="519" y="646" on="1"/>
        <pt x="487" y="646" on="0"/>
        <pt x="456" y="611" on="0"/>
        <pt x="456" y="562" on="1"/>
        <pt x="456" y="446" on="1"/>
        <pt x="549" y="446" on="1"/>
        <pt x="549" y="358" on="1"/>
        <pt x="456" y="358" on="1"/>
        <pt x="456" y="0" on="1"/>
        <pt x="353" y="0" on="1"/>
        <pt x="353" y="358" on="1"/>
        <pt x="288" y="358" on="1"/>
        <pt x="288" y="393" on="1"/>
        <pt x="353" y="450" on="1"/>
        <pt x="353" y="567" on="1"/>
        <pt x="353" y="652" on="0"/>
        <pt x="426" y="740" on="0"/>
        <pt x="501" y="740" on="1"/>
        <pt x="521" y="740" on="0"/>
        <pt x="553" y="735" on="0"/>
        <pt x="564" y="732" on="1"/>
      </contour>
    </TTGlyph>
    <TTGlyph name="f_f_i" xMin="15" yMin="0" xMax="716" yMax="740">
      <contour>
        <pt x="282" y="642" on="1"/>
        <pt x="274" y="644" on="0"/>
        <pt x="255" y="646" on="0"/>
        <pt x="246" y="646" on="1"/>
        <pt x="214" y="646" on="0"/>
        <pt x="183" y="611" on="0"/>
        <pt x="183" y="562" on="1"/>
        <pt x="183" y="446" on="1"/>
        <pt x="276" y="446" on="1"/>
        <pt x="276" y="358" on="1"/>
        <pt x="183" y="358" on="1"/>
        <pt x="183" y="0" on="1"/>
        <pt x="80" y="0" on="1"/>
        <pt x="80" y="358" on="1"/>
        <pt x="15" y="358" on="1"/>
        <pt x="15" y="393" on="1"/>
        <pt x="80" y="450" on="1"/>
        <pt x="80" y="567" on="1"/>
        <pt x="80" y="652" on="0"/>
        <pt x="153" y="740" on="0"/>
        <pt x="228" y="740" on="1"/>
        <pt x="248" y="740" on="0"/>
        <pt x="280" y="735" on="0"/>
        <pt x="291" y="732" on="1"/>
      </contour>
      <contour>
        <pt x="555" y="642" on="1"/>
        <pt x="547" y="644" on="0"/>
        <pt x="528" y="646" on="0"/>
        <pt x="519" y="646" on="1"/>
        <pt x="487" y="646" on="0"/>
        <pt x="456" y="611" on="0"/>
        <pt x="456" y="562" on="1"/>
        <pt x="456" y="446" on="1"/>
        <pt x="549" y="446" on="1"/>
        <pt x="549" y="358" on="1"/>
        <pt x="456" y="358" on="1"/>
        <pt x="456" y="0" on="1"/>
        <pt x="353" y="0" on="1"/>
        <pt x="353" y="358" on="1"/>
        <pt x="288" y="358" on="1"/>
        <pt x="288" y="393" on="1"/>
        <pt x="353" y="450" on="1"/>
        <pt x="353" y="567" on="1"/>
        <pt x="353" y="652" on="0"/>
        <pt x="426" y="740" on="0"/>
        <pt x="501" y="740" on="1"/>
        <pt x="521" y="740" on="0"/>
        <pt x="553" y="735" on="0"/>
        <pt x="564" y="732" on="1"/>
      </contour>
      <contour>
        <pt x="716" y="584" on="1"/>
        <pt x="716" y="558" on="0"/>
        <pt x="680" y="519" on="0"/>
        <pt x="654" y="519" on="1"/>
        <pt x="628" y="519" on="0"/>
        <pt x="592" y="558" on="0"/>
        <pt x="592" y="584" on="1"/>
        <pt x="592" y="610" on="0"/>
        <pt x="628" y="650" on="0"/>
        <pt x="654" y="650" on="1"/>
        <pt x="680" y="650" on="0"/>
        <pt x="716" y="610" on="0"/>
      </contour>
      <contour>
        <pt x="602" y="0" on="1"/>
        <pt x="602" y="446" on="1"/>
        <pt x="706" y="446" on="1"/>
        <pt x="706" y="0" on="1"/>
      </contour>
    </TTGlyph>
    <TTGlyph name="f_f_l" xMin="15" yMin="0" xMax="705" yMax="740">
      <contour>
        <pt x="282" y="642" on="1"/>
        <pt x="274" y="644" on="0"/>
        <pt x="255" y="646" on="0"/>
        <pt x="246" y="646" on="1"/>
        <pt x="214" y="646" on="0"/>
        <pt x="183" y="611" on="0"/>
        <pt x="183" y="562" on="1"/>
        <pt x="183" y="446" on="1"/>
        <pt x="276" y="446" on="1"/>
        <pt x="276" y="358" on="1"/>
        <pt x="183" y="358" on="1"/>
        <pt x="183" y="0" on="1"/>
        <pt x="80" y="0" on="1"/>
        <pt x="80" y="358" on="1"/>
        <pt x="15" y="358" on="1"/>
        <pt x="15" y="393" on="1"/>
        <pt x="80" y="450" on="1"/>
        <pt x="80" y="567" on="1"/>
        <pt x="80" y="652" on="0"/>
        <pt x="153" y="740" on="0"/>
        <pt x="228" y="740" on="1"/>
        <pt x="248" y="740" on="0"/>
        <pt x="280" y="735" on="0"/>
        <pt x="291" y="732" on="1"/>
      </contour>
      <contour>
        <pt x="555" y="642" on="1"/>
        <pt x="547" y="644" on="0"/>
        <pt x="528" y="646" on="0"/>
        <pt x="519" y="646" on="1"/>
        <pt x="487" y="646" on="0"/>
        <pt x="456" y="611" on="0"/>
        <pt x="456" y="562" on="1"/>
        <pt x="456" y="446" on="1"/>
        <pt x="549" y="446" on="1"/>
        <pt x="549" y="358" on="1"/>
        <pt x="456" y="358" on="1"/>
        <pt x="456" y="0" on="1"/>
        <pt x="353" y="0" on="1"/>
        <pt x="353" y="358" on="1"/>
        <pt x="288" y="358" on="1"/>
        <pt x="288" y="393" on="1"/>
        <pt x="353" y="450" on="1"/>
        <pt x="353" y="567" on="1"/>
        <pt x="353" y="652" on="0"/>
        <pt x="426" y="740" on="0"/>
        <pt x="501" y="740" on="1"/>
        <pt x="521" y="740" on="0"/>
        <pt x="553" y="735" on="0"/>
        <pt x="564" y="732" on="1"/>
      </contour>
      <contour>
        <pt x="601" y="0" on="1"/>
        <pt x="601" y="733" on="1"/>
        <pt x="705" y="733" on="1"/>
        <pt x="705" y="0" on="1"/>
      </contour>
    </TTGlyph>
    <TTGlyph name="fi" xMin="15" yMin="0" xMax="443" yMax="740">
      <contour>
        <pt x="443" y="584" on="1"/>
        <pt x="443" y="558" on="0"/>
        <pt x="407" y="519" on="0"/>
        <pt x="381" y="519" on="1"/>
        <pt x="355" y="519" on="0"/>
        <pt x="319" y="558" on="0"/>
        <pt x="319" y="584" on="1"/>
        <pt x="319" y="610" on="0"/>
        <pt x="355" y="650" on="0"/>
        <pt x="381" y="650" on="1"/>
        <pt x="407" y="650" on="0"/>
        <pt x="443" y="610" on="0"/>
      </contour>
      <contour>
        <pt x="282" y="642" on="1"/>
        <pt x="274" y="644" on="0"/>
        <pt x="255" y="646" on="0"/>
        <pt x="246" y="646" on="1"/>
        <pt x="214" y="646" on="0"/>
        <pt x="183" y="611" on="0"/>
        <pt x="183" y="562" on="1"/>
        <pt x="183" y="446" on="1"/>
        <pt x="276" y="446" on="1"/>
        <pt x="276" y="358" on="1"/>
        <pt x="183" y="358" on="1"/>
        <pt x="183" y="0" on="1"/>
        <pt x="80" y="0" on="1"/>
        <pt x="80" y="358" on="1"/>
        <pt x="15" y="358" on="1"/>
        <pt x="15" y="393" on="1"/>
        <pt x="80" y="450" on="1"/>
        <pt x="80" y="567" on="1"/>
        <pt x="80" y="652" on="0"/>
        <pt x="153" y="740" on="0"/>
        <pt x="228" y="740" on="1"/>
        <pt x="248" y="740" on="0"/>
        <pt x="280" y="735" on="0"/>
        <pt x="291" y="732" on="1"/>
      </contour>
      <contour>
        <pt x="329" y="0" on="1"/>
        <pt x="329" y="446" on="1"/>
        <pt x="432" y="446" on="1"/>
        <pt x="432" y="0" on="1"/>
      </contour>
    </TTGlyph>
    <TTGlyph name="five" xMin="38" yMin="-10" xMax="387" yMax="662">
      <contour>
        <pt x="387" y="214" on="1"/>
        <pt x="387" y="164" on="0"/>
        <pt x="358" y="82" on="0"/>
        <pt x="304" y="23" on="0"/>
        <pt x="228" y="-10" on="0"/>
        <pt x="181" y="-10" on="1"/>
        <pt x="108" y="-10" on="0"/>
        <pt x="38" y="19" on="1"/>
        <pt x="64" y="111" on="1"/>
        <pt x="90" y="100" on="0"/>
        <pt x="144" y="86" on="0"/>
        <pt x="171" y="86" on="1"/>
        <pt x="222" y="86" on="0"/>
        <pt x="279" y="150" on="0"/>
        <pt x="279" y="208" on="1"/>
        <pt x="279" y="263" on="0"/>
        <pt x="218" y="323" on="0"/>
        <pt x="159" y="323" on="1"/>
        <pt x="137" y="323" on="0"/>
        <pt x="94" y="318" on="0"/>
        <pt x="74" y="313" on="1"/>
        <pt x="65" y="322" on="1"/>
        <pt x="65" y="662" on="1"/>
        <pt x="361" y="662" on="1"/>
        <pt x="361" y="565" on="1"/>
        <pt x="165" y="565" on="1"/>
        <pt x="165" y="412" on="1"/>
        <pt x="173" y="413" on="0"/>
        <pt x="192" y="414" on="0"/>
        <pt x="201" y="414" on="1"/>
        <pt x="245" y="414" on="0"/>
        <pt x="314" y="384" on="0"/>
        <pt x="362" y="331" on="0"/>
        <pt x="387" y="258" on="0"/>
      </contour>
    </TTGlyph>
    <TTGlyph name="five.lin" xMin="38" yMin="-11" xMax="429" yMax="726">
      <contour>
        <pt x="429" y="232" on="1"/>
        <pt x="429" y="178" on="0"/>
        <pt x="397" y="89" on="0"/>
        <pt x="337" y="24" on="0"/>
        <pt x="251" y="-11" on="0"/>
        <pt x="197" y="-11" on="1"/>
        <pt x="117" y="-11" on="0"/>
        <pt x="38" y="21" on="1"/>
        <pt x="68" y="117" on="1"/>
        <pt x="97" y="104" on="0"/>
        <pt x="156" y="89" on="0"/>
        <pt x="188" y="89" on="1"/>
        <pt x="248" y="89" on="0"/>
        <pt x="313" y="160" on="0"/>
        <pt x="313" y="225" on="1"/>
        <pt x="313" y="285" on="0"/>
        <pt x="243" y="358" on="0"/>
        <pt x="175" y="358" on="1"/>
        <pt x="152" y="358" on="0"/>
        <pt x="98" y="351" on="0"/>
        <pt x="78" y="345" on="1"/>
        <pt x="68" y="355" on="1"/>
        <pt x="68" y="726" on="1"/>
        <pt x="402" y="726" on="1"/>
        <pt x="402" y="623" on="1"/>
        <pt x="176" y="623" on="1"/>
        <pt x="176" y="450" on="1"/>
        <pt x="187" y="451" on="0"/>
        <pt x="210" y="453" on="0"/>
        <pt x="221" y="453" on="1"/>
        <pt x="270" y="453" on="0"/>
        <pt x="347" y="420" on="0"/>
        <pt x="401" y="361" on="0"/>
        <pt x="429" y="280" on="0"/>
      </contour>
    </TTGlyph>
    <TTGlyph name="fl" xMin="15" yMin="0" xMax="431" yMax="740">
      <contour>
        <pt x="282" y="642" on="1"/>
        <pt x="274" y="644" on="0"/>
        <pt x="255" y="646" on="0"/>
        <pt x="246" y="646" on="1"/>
        <pt x="214" y="646" on="0"/>
        <pt x="183" y="611" on="0"/>
        <pt x="183" y="562" on="1"/>
        <pt x="183" y="446" on="1"/>
        <pt x="276" y="446" on="1"/>
        <pt x="276" y="358" on="1"/>
        <pt x="183" y="358" on="1"/>
        <pt x="183" y="0" on="1"/>
        <pt x="80" y="0" on="1"/>
        <pt x="80" y="358" on="1"/>
        <pt x="15" y="358" on="1"/>
        <pt x="15" y="393" on="1"/>
        <pt x="80" y="450" on="1"/>
        <pt x="80" y="567" on="1"/>
        <pt x="80" y="652" on="0"/>
        <pt x="153" y="740" on="0"/>
        <pt x="228" y="740" on="1"/>
        <pt x="248" y="740" on="0"/>
        <pt x="280" y="735" on="0"/>
        <pt x="291" y="732" on="1"/>
      </contour>
      <contour>
        <pt x="328" y="0" on="1"/>
        <pt x="328" y="733" on="1"/>
        <pt x="431" y="733" on="1"/>
        <pt x="431" y="0" on="1"/>
      </contour>
    </TTGlyph>
    <TTGlyph name="florin" xMin="26" yMin="0" xMax="336" yMax="670">
      <contour>
        <pt x="320" y="568" on="1"/>
        <pt x="303" y="573" on="0"/>
        <pt x="283" y="573" on="1"/>
        <pt x="252" y="573" on="0"/>
        <pt x="220" y="538" on="0"/>
        <pt x="215" y="493" on="1"/>
        <pt x="206" y="409" on="1"/>
        <pt x="289" y="409" on="1"/>
        <pt x="285" y="322" on="1"/>
        <pt x="195" y="322" on="1"/>
        <pt x="158" y="0" on="1"/>
        <pt x="56" y="0" on="1"/>
        <pt x="93" y="322" on="1"/>
        <pt x="26" y="322" on="1"/>
        <pt x="29" y="353" on="1"/>
        <pt x="103" y="414" on="1"/>
        <pt x="113" y="499" on="1"/>
        <pt x="123" y="583" on="0"/>
        <pt x="200" y="670" on="0"/>
        <pt x="272" y="670" on="1"/>
        <pt x="292" y="670" on="0"/>
        <pt x="325" y="663" on="0"/>
        <pt x="336" y="660" on="1"/>
      </contour>
    </TTGlyph>
    <TTGlyph name="florin.lin" xMin="36" yMin="0" xMax="379" yMax="736">
      <contour>
        <pt x="360" y="630" on="1"/>
        <pt x="350" y="633" on="0"/>
        <pt x="328" y="637" on="0"/>
        <pt x="317" y="637" on="1"/>
        <pt x="280" y="637" on="0"/>
        <pt x="240" y="590" on="0"/>
        <pt x="234" y="537" on="1"/>
        <pt x="223" y="441" on="1"/>
        <pt x="326" y="441" on="1"/>
        <pt x="322" y="350" on="1"/>
        <pt x="212" y="350" on="1"/>
        <pt x="172" y="0" on="1"/>
        <pt x="66" y="0" on="1"/>
        <pt x="106" y="350" on="1"/>
        <pt x="36" y="350" on="1"/>
        <pt x="39" y="382" on="1"/>
        <pt x="117" y="443" on="1"/>
        <pt x="129" y="546" on="1"/>
        <pt x="139" y="640" on="0"/>
        <pt x="228" y="736" on="0"/>
        <pt x="306" y="736" on="1"/>
        <pt x="329" y="736" on="0"/>
        <pt x="367" y="729" on="0"/>
        <pt x="379" y="724" on="1"/>
      </contour>
    </TTGlyph>
    <TTGlyph name="four" xMin="15" yMin="-1" xMax="424" yMax="668">
      <contour>
        <pt x="353" y="159" on="1"/>
        <pt x="353" y="-1" on="1"/>
        <pt x="253" y="-1" on="1"/>
        <pt x="253" y="159" on="1"/>
        <pt x="15" y="159" on="1"/>
        <pt x="15" y="224" on="1"/>
        <pt x="282" y="668" on="1"/>
        <pt x="353" y="668" on="1"/>
        <pt x="353" y="254" on="1"/>
        <pt x="424" y="254" on="1"/>
        <pt x="424" y="159" on="1"/>
      </contour>
      <contour>
        <pt x="254" y="469" on="1"/>
        <pt x="132" y="252" on="1"/>
        <pt x="254" y="252" on="1"/>
      </contour>
    </TTGlyph>
    <TTGlyph name="four.lin" xMin="17" yMin="0" xMax="477" yMax="733">
      <contour>
        <pt x="398" y="174" on="1"/>
        <pt x="398" y="0" on="1"/>
        <pt x="291" y="0" on="1"/>
        <pt x="291" y="174" on="1"/>
        <pt x="17" y="174" on="1"/>
        <pt x="17" y="247" on="1"/>
        <pt x="318" y="733" on="1"/>
        <pt x="398" y="733" on="1"/>
        <pt x="398" y="274" on="1"/>
        <pt x="477" y="274" on="1"/>
        <pt x="477" y="174" on="1"/>
      </contour>
      <contour>
        <pt x="291" y="528" on="1"/>
        <pt x="139" y="273" on="1"/>
        <pt x="291" y="273" on="1"/>
      </contour>
    </TTGlyph>
    <TTGlyph name="fraction" xMin="18" yMin="-15" xMax="474" yMax="688">
      <contour>
        <pt x="67" y="-15" on="1"/>
        <pt x="18" y="19" on="1"/>
        <pt x="425" y="688" on="1"/>
        <pt x="474" y="654" on="1"/>
      </contour>
    </TTGlyph>
    <TTGlyph name="fraction.lin" xMin="19" yMin="-14" xMax="527" yMax="754">
      <contour>
        <pt x="70" y="-14" on="1"/>
        <pt x="19" y="22" on="1"/>
        <pt x="477" y="754" on="1"/>
        <pt x="527" y="719" on="1"/>
      </contour>
    </TTGlyph>
    <TTGlyph name="g" xMin="29" yMin="-207" xMax="392" yMax="453">
      <contour>
        <pt x="392" y="-35" on="1"/>
        <pt x="392" y="-129" on="0"/>
        <pt x="306" y="-207" on="0"/>
        <pt x="231" y="-207" on="1"/>
        <pt x="167" y="-207" on="0"/>
        <pt x="104" y="-187" on="1"/>
        <pt x="116" y="-98" on="1"/>
        <pt x="140" y="-107" on="0"/>
        <pt x="190" y="-116" on="0"/>
        <pt x="213" y="-116" on="1"/>
        <pt x="253" y="-116" on="0"/>
        <pt x="289" y="-78" on="0"/>
        <pt x="289" y="-36" on="1"/>
        <pt x="289" y="28" on="1"/>
        <pt x="270" y="12" on="0"/>
        <pt x="223" y="-8" on="0"/>
        <pt x="193" y="-8" on="1"/>
        <pt x="159" y="-8" on="0"/>
        <pt x="100" y="21" on="0"/>
        <pt x="55" y="78" on="0"/>
        <pt x="29" y="162" on="0"/>
        <pt x="29" y="217" on="1"/>
        <pt x="29" y="268" on="0"/>
        <pt x="56" y="354" on="0"/>
        <pt x="102" y="417" on="0"/>
        <pt x="163" y="453" on="0"/>
        <pt x="197" y="453" on="1"/>
        <pt x="228" y="453" on="0"/>
        <pt x="276" y="431" on="0"/>
        <pt x="293" y="414" on="1"/>
        <pt x="293" y="446" on="1"/>
        <pt x="392" y="446" on="1"/>
      </contour>
      <contour>
        <pt x="289" y="340" on="1"/>
        <pt x="275" y="354" on="0"/>
        <pt x="243" y="370" on="0"/>
        <pt x="221" y="370" on="1"/>
        <pt x="183" y="370" on="0"/>
        <pt x="132" y="289" on="0"/>
        <pt x="132" y="217" on="1"/>
        <pt x="132" y="144" on="0"/>
        <pt x="180" y="76" on="0"/>
        <pt x="222" y="76" on="1"/>
        <pt x="261" y="76" on="0"/>
        <pt x="289" y="106" on="1"/>
      </contour>
    </TTGlyph>
    <TTGlyph name="gbreve" xMin="29" yMin="-207" xMax="392" yMax="626">
      <component glyphName="g" x="0" y="0" flags="0x204"/>
      <component glyphName="breve" x="9" y="0" flags="0x4"/>
    </TTGlyph>
    <TTGlyph name="gcommaaccent" xMin="29" yMin="-207" xMax="392" yMax="727">
      <contour>
        <pt x="163" y="573" on="1"/>
        <pt x="163" y="594" on="0"/>
        <pt x="180" y="639" on="0"/>
        <pt x="210" y="681" on="0"/>
        <pt x="250" y="716" on="0"/>
        <pt x="273" y="727" on="1"/>
        <pt x="285" y="710" on="1"/>
        <pt x="256" y="686" on="0"/>
        <pt x="229" y="642" on="0"/>
        <pt x="223" y="616" on="1"/>
        <pt x="251" y="614" on="0"/>
        <pt x="284" y="580" on="0"/>
        <pt x="284" y="557" on="1"/>
        <pt x="284" y="534" on="0"/>
        <pt x="250" y="500" on="0"/>
        <pt x="227" y="500" on="1"/>
        <pt x="196" y="500" on="0"/>
        <pt x="163" y="541" on="0"/>
      </contour>
      <contour>
        <pt x="392" y="-35" on="1"/>
        <pt x="392" y="-129" on="0"/>
        <pt x="306" y="-207" on="0"/>
        <pt x="231" y="-207" on="1"/>
        <pt x="167" y="-207" on="0"/>
        <pt x="104" y="-187" on="1"/>
        <pt x="116" y="-98" on="1"/>
        <pt x="140" y="-107" on="0"/>
        <pt x="190" y="-116" on="0"/>
        <pt x="213" y="-116" on="1"/>
        <pt x="253" y="-116" on="0"/>
        <pt x="289" y="-78" on="0"/>
        <pt x="289" y="-36" on="1"/>
        <pt x="289" y="28" on="1"/>
        <pt x="270" y="12" on="0"/>
        <pt x="223" y="-8" on="0"/>
        <pt x="193" y="-8" on="1"/>
        <pt x="159" y="-8" on="0"/>
        <pt x="100" y="21" on="0"/>
        <pt x="55" y="78" on="0"/>
        <pt x="29" y="162" on="0"/>
        <pt x="29" y="217" on="1"/>
        <pt x="29" y="268" on="0"/>
        <pt x="56" y="354" on="0"/>
        <pt x="102" y="417" on="0"/>
        <pt x="163" y="453" on="0"/>
        <pt x="197" y="453" on="1"/>
        <pt x="228" y="453" on="0"/>
        <pt x="276" y="431" on="0"/>
        <pt x="293" y="414" on="1"/>
        <pt x="293" y="446" on="1"/>
        <pt x="392" y="446" on="1"/>
      </contour>
      <contour>
        <pt x="289" y="340" on="1"/>
        <pt x="275" y="354" on="0"/>
        <pt x="243" y="370" on="0"/>
        <pt x="221" y="370" on="1"/>
        <pt x="183" y="370" on="0"/>
        <pt x="132" y="289" on="0"/>
        <pt x="132" y="217" on="1"/>
        <pt x="132" y="144" on="0"/>
        <pt x="180" y="76" on="0"/>
        <pt x="222" y="76" on="1"/>
        <pt x="261" y="76" on="0"/>
        <pt x="289" y="106" on="1"/>
      </contour>
    </TTGlyph>
    <TTGlyph name="gdotaccent" xMin="29" yMin="-207" xMax="392" yMax="613">
      <component glyphName="g" x="0" y="0" flags="0x204"/>
      <component glyphName="dotaccent" x="16" y="0" flags="0x4"/>
    </TTGlyph>
    <TTGlyph name="germandbls" xMin="47" yMin="-94" xMax="429" yMax="740">
      <contour>
        <pt x="318" y="219" on="1"/>
        <pt x="369" y="200" on="0"/>
        <pt x="416" y="128" on="0"/>
        <pt x="416" y="77" on="1"/>
        <pt x="416" y="35" on="0"/>
        <pt x="387" y="-29" on="0"/>
        <pt x="339" y="-72" on="0"/>
        <pt x="275" y="-94" on="0"/>
        <pt x="239" y="-94" on="1"/>
        <pt x="228" y="-94" on="0"/>
        <pt x="204" y="-92" on="0"/>
        <pt x="194" y="-90" on="1"/>
        <pt x="203" y="-5" on="1"/>
        <pt x="211" y="-7" on="0"/>
        <pt x="224" y="-7" on="0"/>
        <pt x="232" y="-7" on="1"/>
        <pt x="270" y="-7" on="0"/>
        <pt x="315" y="37" on="0"/>
        <pt x="315" y="77" on="1"/>
        <pt x="315" y="112" on="0"/>
        <pt x="273" y="156" on="0"/>
        <pt x="228" y="157" on="1"/>
        <pt x="223" y="157" on="0"/>
        <pt x="214" y="157" on="0"/>
        <pt x="209" y="156" on="1"/>
        <pt x="205" y="169" on="1"/>
        <pt x="296" y="358" on="1"/>
        <pt x="150" y="358" on="1"/>
        <pt x="150" y="0" on="1"/>
        <pt x="47" y="0" on="1"/>
        <pt x="47" y="567" on="1"/>
        <pt x="47" y="652" on="0"/>
        <pt x="120" y="740" on="0"/>
        <pt x="195" y="740" on="1"/>
        <pt x="215" y="740" on="0"/>
        <pt x="247" y="735" on="0"/>
        <pt x="258" y="732" on="1"/>
        <pt x="249" y="642" on="1"/>
        <pt x="241" y="644" on="0"/>
        <pt x="222" y="646" on="0"/>
        <pt x="213" y="646" on="1"/>
        <pt x="181" y="646" on="0"/>
        <pt x="150" y="611" on="0"/>
        <pt x="150" y="562" on="1"/>
        <pt x="150" y="446" on="1"/>
        <pt x="426" y="446" on="1"/>
        <pt x="429" y="434" on="1"/>
      </contour>
    </TTGlyph>
    <TTGlyph name="grave" xMin="122" yMin="492" xMax="329" yMax="664">
      <contour>
        <pt x="297" y="492" on="1"/>
        <pt x="122" y="581" on="1"/>
        <pt x="174" y="664" on="1"/>
        <pt x="329" y="537" on="1"/>
      </contour>
    </TTGlyph>
    <TTGlyph name="greater" xMin="31" yMin="92" xMax="295" yMax="579">
      <contour>
        <pt x="94" y="92" on="1"/>
        <pt x="31" y="155" on="1"/>
        <pt x="182" y="336" on="1"/>
        <pt x="31" y="518" on="1"/>
        <pt x="94" y="579" on="1"/>
        <pt x="295" y="336" on="1"/>
      </contour>
    </TTGlyph>
    <TTGlyph name="greater.lin" xMin="31" yMin="127" xMax="295" yMax="614">
      <component glyphName="greater" x="0" y="35" flags="0x204"/>
    </TTGlyph>
    <TTGlyph name="guillemotleft" xMin="34" yMin="38" xMax="363" yMax="365">
      <contour>
        <pt x="267" y="38" on="1"/>
        <pt x="185" y="202" on="1"/>
        <pt x="267" y="365" on="1"/>
        <pt x="363" y="365" on="1"/>
        <pt x="278" y="202" on="1"/>
        <pt x="363" y="38" on="1"/>
      </contour>
      <contour>
        <pt x="115" y="38" on="1"/>
        <pt x="34" y="202" on="1"/>
        <pt x="115" y="365" on="1"/>
        <pt x="210" y="365" on="1"/>
        <pt x="126" y="202" on="1"/>
        <pt x="210" y="38" on="1"/>
      </contour>
    </TTGlyph>
    <TTGlyph name="guillemotleft.cap" xMin="34" yMin="206" xMax="363" yMax="533">
      <component glyphName="guillemotleft" x="0" y="168" flags="0x204"/>
    </TTGlyph>
    <TTGlyph name="guillemotright" xMin="26" yMin="38" xMax="355" yMax="365">
      <contour>
        <pt x="274" y="38" on="1"/>
        <pt x="178" y="38" on="1"/>
        <pt x="262" y="202" on="1"/>
        <pt x="178" y="365" on="1"/>
        <pt x="274" y="365" on="1"/>
        <pt x="355" y="202" on="1"/>
      </contour>
      <contour>
        <pt x="121" y="38" on="1"/>
        <pt x="26" y="38" on="1"/>
        <pt x="110" y="202" on="1"/>
        <pt x="26" y="365" on="1"/>
        <pt x="121" y="365" on="1"/>
        <pt x="202" y="202" on="1"/>
      </contour>
    </TTGlyph>
    <TTGlyph name="guillemotright.cap" xMin="26" yMin="207" xMax="355" yMax="534">
      <component glyphName="guillemotright" x="0" y="169" flags="0x204"/>
    </TTGlyph>
    <TTGlyph name="guilsinglleft" xMin="34" yMin="38" xMax="210" yMax="365">
      <contour>
        <pt x="115" y="38" on="1"/>
        <pt x="34" y="202" on="1"/>
        <pt x="115" y="365" on="1"/>
        <pt x="210" y="365" on="1"/>
        <pt x="126" y="202" on="1"/>
        <pt x="210" y="38" on="1"/>
      </contour>
    </TTGlyph>
    <TTGlyph name="guilsinglleft.cap" xMin="34" yMin="206" xMax="210" yMax="533">
      <component glyphName="guilsinglleft" x="0" y="168" flags="0x204"/>
    </TTGlyph>
    <TTGlyph name="guilsinglright" xMin="30" yMin="38" xMax="207" yMax="365">
      <contour>
        <pt x="126" y="38" on="1"/>
        <pt x="30" y="38" on="1"/>
        <pt x="115" y="202" on="1"/>
        <pt x="30" y="365" on="1"/>
        <pt x="126" y="365" on="1"/>
        <pt x="207" y="202" on="1"/>
      </contour>
    </TTGlyph>
    <TTGlyph name="guilsinglright.cap" xMin="30" yMin="206" xMax="207" yMax="533">
      <component glyphName="guilsinglright" x="0" y="168" flags="0x204"/>
    </TTGlyph>
    <TTGlyph name="h" xMin="46" yMin="0" xMax="392" yMax="733">
      <contour>
        <pt x="288" y="0" on="1"/>
        <pt x="288" y="306" on="1"/>
        <pt x="288" y="366" on="0"/>
        <pt x="237" y="366" on="1"/>
        <pt x="213" y="366" on="0"/>
        <pt x="169" y="339" on="0"/>
        <pt x="150" y="317" on="1"/>
        <pt x="150" y="0" on="1"/>
        <pt x="46" y="0" on="1"/>
        <pt x="46" y="733" on="1"/>
        <pt x="149" y="733" on="1"/>
        <pt x="149" y="379" on="1"/>
        <pt x="178" y="415" on="0"/>
        <pt x="242" y="455" on="0"/>
        <pt x="280" y="455" on="1"/>
        <pt x="337" y="455" on="0"/>
        <pt x="392" y="385" on="0"/>
        <pt x="392" y="329" on="1"/>
        <pt x="392" y="0" on="1"/>
      </contour>
    </TTGlyph>
    <TTGlyph name="hbar" xMin="2" yMin="0" xMax="392" yMax="733">
      <contour>
        <pt x="288" y="0" on="1"/>
        <pt x="288" y="306" on="1"/>
        <pt x="288" y="366" on="0"/>
        <pt x="237" y="366" on="1"/>
        <pt x="213" y="366" on="0"/>
        <pt x="169" y="339" on="0"/>
        <pt x="150" y="317" on="1"/>
        <pt x="150" y="0" on="1"/>
        <pt x="46" y="0" on="1"/>
        <pt x="46" y="551" on="1"/>
        <pt x="2" y="551" on="1"/>
        <pt x="2" y="635" on="1"/>
        <pt x="46" y="635" on="1"/>
        <pt x="46" y="733" on="1"/>
        <pt x="149" y="733" on="1"/>
        <pt x="149" y="635" on="1"/>
        <pt x="262" y="635" on="1"/>
        <pt x="262" y="551" on="1"/>
        <pt x="149" y="551" on="1"/>
        <pt x="149" y="379" on="1"/>
        <pt x="178" y="415" on="0"/>
        <pt x="242" y="455" on="0"/>
        <pt x="280" y="455" on="1"/>
        <pt x="337" y="455" on="0"/>
        <pt x="392" y="385" on="0"/>
        <pt x="392" y="329" on="1"/>
        <pt x="392" y="0" on="1"/>
      </contour>
    </TTGlyph>
    <TTGlyph name="hcoslug" xMin="50" yMin="-100" xMax="644" yMax="700">
      <contour>
        <pt x="273" y="18" on="1"/>
        <pt x="275" y="40" on="0"/>
        <pt x="254" y="40" on="1"/>
        <pt x="245" y="40" on="0"/>
        <pt x="234" y="29" on="0"/>
        <pt x="234" y="19" on="1"/>
        <pt x="235" y="-1" on="0"/>
        <pt x="255" y="-1" on="1"/>
        <pt x="270" y="-1" on="0"/>
        <pt x="273" y="13" on="1"/>
        <pt x="266" y="13" on="1"/>
        <pt x="264" y="6" on="0"/>
        <pt x="257" y="6" on="1"/>
        <pt x="247" y="6" on="0"/>
        <pt x="247" y="18" on="1"/>
      </contour>
      <contour>
        <pt x="254" y="35" on="1"/>
        <pt x="261" y="35" on="0"/>
        <pt x="261" y="23" on="1"/>
        <pt x="247" y="23" on="1"/>
        <pt x="247" y="35" on="0"/>
      </contour>
      <contour>
        <pt x="195" y="78" on="1"/>
        <pt x="187" y="78" on="0"/>
        <pt x="187" y="94" on="1"/>
        <pt x="187" y="109" on="0"/>
        <pt x="195" y="109" on="1"/>
        <pt x="203" y="109" on="0"/>
        <pt x="203" y="94" on="1"/>
        <pt x="203" y="78" on="0"/>
      </contour>
      <contour>
        <pt x="210" y="4" on="1"/>
        <pt x="202" y="4" on="0"/>
        <pt x="202" y="20" on="1"/>
        <pt x="202" y="35" on="0"/>
        <pt x="210" y="35" on="1"/>
        <pt x="218" y="35" on="0"/>
        <pt x="218" y="20" on="1"/>
        <pt x="218" y="4" on="0"/>
      </contour>
      <contour>
        <pt x="210" y="-1" on="1"/>
        <pt x="219" y="-1" on="0"/>
        <pt x="231" y="11" on="0"/>
        <pt x="231" y="20" on="1"/>
        <pt x="231" y="29" on="0"/>
        <pt x="219" y="40" on="0"/>
        <pt x="210" y="40" on="1"/>
        <pt x="201" y="40" on="0"/>
        <pt x="189" y="29" on="0"/>
        <pt x="189" y="20" on="1"/>
        <pt x="189" y="10" on="0"/>
        <pt x="201" y="-1" on="0"/>
      </contour>
      <contour>
        <pt x="546" y="4" on="1"/>
        <pt x="538" y="4" on="0"/>
        <pt x="538" y="20" on="1"/>
        <pt x="538" y="35" on="0"/>
        <pt x="546" y="35" on="1"/>
        <pt x="554" y="35" on="0"/>
        <pt x="554" y="20" on="1"/>
        <pt x="554" y="4" on="0"/>
      </contour>
      <contour>
        <pt x="546" y="-1" on="1"/>
        <pt x="555" y="-1" on="0"/>
        <pt x="567" y="11" on="0"/>
        <pt x="567" y="20" on="1"/>
        <pt x="567" y="29" on="0"/>
        <pt x="555" y="40" on="0"/>
        <pt x="546" y="40" on="1"/>
        <pt x="537" y="40" on="0"/>
        <pt x="525" y="29" on="0"/>
        <pt x="525" y="20" on="1"/>
        <pt x="525" y="10" on="0"/>
        <pt x="537" y="-1" on="0"/>
      </contour>
      <contour>
        <pt x="125" y="74" on="1"/>
        <pt x="155" y="74" on="1"/>
        <pt x="155" y="81" on="1"/>
        <pt x="145" y="81" on="1"/>
        <pt x="145" y="97" on="1"/>
        <pt x="149" y="97" on="1"/>
        <pt x="154" y="97" on="0"/>
        <pt x="155" y="89" on="1"/>
        <pt x="162" y="89" on="1"/>
        <pt x="162" y="112" on="1"/>
        <pt x="155" y="112" on="1"/>
        <pt x="154" y="104" on="0"/>
        <pt x="149" y="104" on="1"/>
        <pt x="145" y="104" on="1"/>
        <pt x="145" y="122" on="1"/>
        <pt x="157" y="122" on="1"/>
        <pt x="162" y="122" on="0"/>
        <pt x="166" y="117" on="0"/>
        <pt x="168" y="109" on="1"/>
        <pt x="176" y="109" on="1"/>
        <pt x="176" y="129" on="1"/>
        <pt x="125" y="129" on="1"/>
        <pt x="125" y="122" on="1"/>
        <pt x="132" y="122" on="1"/>
        <pt x="132" y="81" on="1"/>
        <pt x="125" y="81" on="1"/>
      </contour>
      <contour>
        <pt x="195" y="73" on="1"/>
        <pt x="204" y="73" on="0"/>
        <pt x="216" y="85" on="0"/>
        <pt x="216" y="94" on="1"/>
        <pt x="216" y="103" on="0"/>
        <pt x="204" y="114" on="0"/>
        <pt x="195" y="114" on="1"/>
        <pt x="186" y="114" on="0"/>
        <pt x="174" y="103" on="0"/>
        <pt x="174" y="94" on="1"/>
        <pt x="174" y="84" on="0"/>
        <pt x="186" y="73" on="0"/>
      </contour>
      <contour>
        <pt x="644" y="-100" on="1"/>
        <pt x="50" y="-100" on="1"/>
        <pt x="50" y="700" on="1"/>
        <pt x="644" y="700" on="1"/>
      </contour>
      <contour>
        <pt x="498" y="-1" on="1"/>
        <pt x="520" y="-1" on="0"/>
        <pt x="522" y="22" on="1"/>
        <pt x="514" y="22" on="1"/>
        <pt x="512" y="6" on="0"/>
        <pt x="500" y="6" on="1"/>
        <pt x="484" y="6" on="0"/>
        <pt x="484" y="28" on="1"/>
        <pt x="484" y="50" on="0"/>
        <pt x="498" y="50" on="1"/>
        <pt x="508" y="50" on="0"/>
        <pt x="513" y="34" on="1"/>
        <pt x="521" y="34" on="1"/>
        <pt x="521" y="56" on="1"/>
        <pt x="513" y="56" on="1"/>
        <pt x="512" y="50" on="1"/>
        <pt x="505" y="57" on="0"/>
        <pt x="496" y="57" on="1"/>
        <pt x="485" y="57" on="0"/>
        <pt x="469" y="41" on="0"/>
        <pt x="469" y="27" on="1"/>
        <pt x="469" y="-1" on="0"/>
      </contour>
      <contour>
        <pt x="372" y="80" on="1"/>
        <pt x="364" y="80" on="0"/>
        <pt x="364" y="93" on="1"/>
        <pt x="364" y="106" on="0"/>
        <pt x="372" y="106" on="1"/>
        <pt x="379" y="106" on="0"/>
        <pt x="379" y="93" on="1"/>
        <pt x="379" y="80" on="0"/>
      </contour>
      <contour>
        <pt x="276" y="0" on="1"/>
        <pt x="299" y="0" on="1"/>
        <pt x="299" y="7" on="1"/>
        <pt x="294" y="7" on="1"/>
        <pt x="294" y="32" on="1"/>
        <pt x="308" y="32" on="1"/>
        <pt x="308" y="7" on="1"/>
        <pt x="303" y="7" on="1"/>
        <pt x="303" y="0" on="1"/>
        <pt x="326" y="0" on="1"/>
        <pt x="326" y="7" on="1"/>
        <pt x="320" y="7" on="1"/>
        <pt x="320" y="59" on="1"/>
        <pt x="310" y="57" on="1"/>
        <pt x="306" y="59" on="0"/>
        <pt x="301" y="59" on="1"/>
        <pt x="293" y="59" on="0"/>
        <pt x="282" y="50" on="0"/>
        <pt x="282" y="40" on="1"/>
        <pt x="282" y="39" on="1"/>
        <pt x="275" y="39" on="1"/>
        <pt x="275" y="32" on="1"/>
        <pt x="282" y="32" on="1"/>
        <pt x="282" y="7" on="1"/>
        <pt x="276" y="7" on="1"/>
      </contour>
      <contour>
        <pt x="368" y="0" on="1"/>
        <pt x="394" y="0" on="1"/>
        <pt x="394" y="7" on="1"/>
        <pt x="386" y="7" on="1"/>
        <pt x="386" y="23" on="1"/>
        <pt x="390" y="32" on="0"/>
        <pt x="393" y="32" on="1"/>
        <pt x="393" y="31" on="1"/>
        <pt x="393" y="25" on="0"/>
        <pt x="399" y="25" on="1"/>
        <pt x="406" y="25" on="0"/>
        <pt x="406" y="32" on="1"/>
        <pt x="406" y="40" on="0"/>
        <pt x="398" y="40" on="1"/>
        <pt x="390" y="40" on="0"/>
        <pt x="386" y="29" on="1"/>
        <pt x="386" y="39" on="1"/>
        <pt x="368" y="39" on="1"/>
        <pt x="368" y="32" on="1"/>
        <pt x="374" y="32" on="1"/>
        <pt x="374" y="7" on="1"/>
        <pt x="368" y="7" on="1"/>
      </contour>
      <contour>
        <pt x="352" y="73" on="1"/>
        <pt x="358" y="73" on="1"/>
        <pt x="362" y="81" on="1"/>
        <pt x="367" y="73" on="0"/>
        <pt x="376" y="73" on="1"/>
        <pt x="385" y="73" on="0"/>
        <pt x="392" y="87" on="0"/>
        <pt x="392" y="94" on="1"/>
        <pt x="392" y="114" on="0"/>
        <pt x="377" y="114" on="1"/>
        <pt x="367" y="114" on="0"/>
        <pt x="364" y="105" on="1"/>
        <pt x="364" y="132" on="1"/>
        <pt x="346" y="132" on="1"/>
        <pt x="346" y="125" on="1"/>
        <pt x="352" y="125" on="1"/>
      </contour>
      <contour>
        <pt x="400" y="75" on="1"/>
        <pt x="393" y="75" on="0"/>
        <pt x="393" y="68" on="1"/>
        <pt x="393" y="59" on="0"/>
        <pt x="404" y="59" on="1"/>
        <pt x="416" y="59" on="0"/>
        <pt x="422" y="75" on="1"/>
        <pt x="435" y="106" on="1"/>
        <pt x="440" y="106" on="1"/>
        <pt x="440" y="113" on="1"/>
        <pt x="423" y="113" on="1"/>
        <pt x="423" y="106" on="1"/>
        <pt x="428" y="106" on="1"/>
        <pt x="420" y="86" on="1"/>
        <pt x="411" y="106" on="1"/>
        <pt x="417" y="106" on="1"/>
        <pt x="417" y="113" on="1"/>
        <pt x="392" y="113" on="1"/>
        <pt x="392" y="106" on="1"/>
        <pt x="397" y="106" on="1"/>
        <pt x="399" y="101" on="0"/>
        <pt x="403" y="93" on="1"/>
        <pt x="406" y="87" on="0"/>
        <pt x="411" y="77" on="0"/>
        <pt x="413" y="73" on="1"/>
        <pt x="411" y="65" on="0"/>
        <pt x="405" y="65" on="1"/>
        <pt x="407" y="67" on="0"/>
        <pt x="405" y="75" on="0"/>
      </contour>
      <contour>
        <pt x="247" y="428" on="1"/>
        <pt x="247" y="441" on="0"/>
        <pt x="262" y="457" on="0"/>
        <pt x="274" y="457" on="1"/>
        <pt x="287" y="457" on="0"/>
        <pt x="303" y="436" on="0"/>
        <pt x="303" y="419" on="1"/>
        <pt x="303" y="406" on="0"/>
        <pt x="293" y="382" on="0"/>
        <pt x="285" y="369" on="1"/>
        <pt x="268" y="386" on="0"/>
        <pt x="247" y="411" on="0"/>
      </contour>
      <contour>
        <pt x="302" y="74" on="1"/>
        <pt x="309" y="74" on="1"/>
        <pt x="310" y="78" on="1"/>
        <pt x="312" y="76" on="0"/>
        <pt x="318" y="73" on="0"/>
        <pt x="323" y="73" on="1"/>
        <pt x="337" y="73" on="0"/>
        <pt x="337" y="86" on="1"/>
        <pt x="337" y="92" on="0"/>
        <pt x="329" y="97" on="0"/>
        <pt x="320" y="99" on="0"/>
        <pt x="313" y="101" on="0"/>
        <pt x="313" y="104" on="1"/>
        <pt x="313" y="108" on="0"/>
        <pt x="318" y="108" on="1"/>
        <pt x="323" y="108" on="0"/>
        <pt x="328" y="101" on="1"/>
        <pt x="335" y="101" on="1"/>
        <pt x="335" y="114" on="1"/>
        <pt x="329" y="114" on="1"/>
        <pt x="327" y="109" on="1"/>
        <pt x="324" y="114" on="0"/>
        <pt x="316" y="114" on="1"/>
        <pt x="309" y="114" on="0"/>
        <pt x="302" y="107" on="0"/>
        <pt x="302" y="102" on="1"/>
        <pt x="302" y="96" on="0"/>
        <pt x="309" y="91" on="0"/>
        <pt x="318" y="88" on="0"/>
        <pt x="326" y="86" on="0"/>
        <pt x="326" y="83" on="1"/>
        <pt x="326" y="79" on="0"/>
        <pt x="321" y="79" on="1"/>
        <pt x="315" y="79" on="0"/>
        <pt x="309" y="88" on="1"/>
        <pt x="302" y="88" on="1"/>
      </contour>
      <contour>
        <pt x="261" y="219" on="1"/>
        <pt x="238" y="219" on="0"/>
        <pt x="209" y="250" on="0"/>
        <pt x="209" y="273" on="1"/>
        <pt x="209" y="297" on="0"/>
        <pt x="225" y="313" on="1"/>
        <pt x="239" y="300" on="0"/>
        <pt x="278" y="257" on="0"/>
        <pt x="299" y="231" on="1"/>
        <pt x="284" y="219" on="0"/>
      </contour>
      <contour>
        <pt x="274" y="122" on="1"/>
        <pt x="274" y="113" on="1"/>
        <pt x="267" y="113" on="1"/>
        <pt x="267" y="106" on="1"/>
        <pt x="274" y="106" on="1"/>
        <pt x="274" y="86" on="1"/>
        <pt x="274" y="73" on="0"/>
        <pt x="286" y="73" on="1"/>
        <pt x="297" y="73" on="0"/>
        <pt x="300" y="86" on="1"/>
        <pt x="295" y="88" on="1"/>
        <pt x="294" y="81" on="0"/>
        <pt x="290" y="81" on="1"/>
        <pt x="286" y="81" on="0"/>
        <pt x="286" y="86" on="1"/>
        <pt x="286" y="106" on="1"/>
        <pt x="299" y="106" on="1"/>
        <pt x="299" y="113" on="1"/>
        <pt x="286" y="113" on="1"/>
        <pt x="286" y="124" on="1"/>
      </contour>
      <contour>
        <pt x="428" y="306" on="1"/>
        <pt x="435" y="295" on="0"/>
        <pt x="457" y="281" on="0"/>
        <pt x="471" y="281" on="1"/>
        <pt x="492" y="281" on="0"/>
        <pt x="521" y="312" on="0"/>
        <pt x="521" y="335" on="1"/>
        <pt x="521" y="358" on="0"/>
        <pt x="492" y="387" on="0"/>
        <pt x="471" y="387" on="1"/>
        <pt x="436" y="387" on="0"/>
        <pt x="411" y="349" on="1"/>
        <pt x="409" y="369" on="0"/>
        <pt x="382" y="387" on="0"/>
        <pt x="362" y="386" on="1"/>
        <pt x="371" y="401" on="0"/>
        <pt x="371" y="420" on="1"/>
        <pt x="371" y="433" on="0"/>
        <pt x="359" y="460" on="0"/>
        <pt x="335" y="481" on="0"/>
        <pt x="299" y="494" on="0"/>
        <pt x="276" y="494" on="1"/>
        <pt x="251" y="494" on="0"/>
        <pt x="211" y="480" on="0"/>
        <pt x="182" y="456" on="0"/>
        <pt x="167" y="425" on="0"/>
        <pt x="167" y="409" on="1"/>
        <pt x="167" y="387" on="0"/>
        <pt x="182" y="357" on="0"/>
        <pt x="198" y="340" on="1"/>
        <pt x="116" y="312" on="0"/>
        <pt x="116" y="249" on="1"/>
        <pt x="116" y="229" on="0"/>
        <pt x="133" y="195" on="0"/>
        <pt x="163" y="170" on="0"/>
        <pt x="202" y="156" on="0"/>
        <pt x="225" y="156" on="1"/>
        <pt x="288" y="156" on="0"/>
        <pt x="329" y="201" on="1"/>
        <pt x="354" y="175" on="0"/>
        <pt x="391" y="156" on="0"/>
        <pt x="414" y="156" on="1"/>
        <pt x="446" y="156" on="0"/>
        <pt x="492" y="206" on="0"/>
        <pt x="494" y="250" on="1"/>
        <pt x="487" y="252" on="1"/>
        <pt x="479" y="239" on="0"/>
        <pt x="460" y="223" on="0"/>
        <pt x="444" y="223" on="1"/>
        <pt x="429" y="223" on="0"/>
        <pt x="401" y="242" on="0"/>
        <pt x="382" y="264" on="1"/>
        <pt x="393" y="279" on="0"/>
        <pt x="417" y="299" on="0"/>
      </contour>
      <contour>
        <pt x="219" y="74" on="1"/>
        <pt x="241" y="74" on="1"/>
        <pt x="241" y="81" on="1"/>
        <pt x="237" y="81" on="1"/>
        <pt x="237" y="96" on="1"/>
        <pt x="237" y="106" on="0"/>
        <pt x="244" y="106" on="1"/>
        <pt x="250" y="106" on="0"/>
        <pt x="250" y="99" on="1"/>
        <pt x="250" y="81" on="1"/>
        <pt x="246" y="81" on="1"/>
        <pt x="246" y="74" on="1"/>
        <pt x="268" y="74" on="1"/>
        <pt x="268" y="81" on="1"/>
        <pt x="262" y="81" on="1"/>
        <pt x="262" y="100" on="1"/>
        <pt x="262" y="114" on="0"/>
        <pt x="250" y="114" on="1"/>
        <pt x="241" y="114" on="0"/>
        <pt x="236" y="103" on="1"/>
        <pt x="236" y="113" on="1"/>
        <pt x="219" y="113" on="1"/>
        <pt x="219" y="106" on="1"/>
        <pt x="225" y="106" on="1"/>
        <pt x="225" y="81" on="1"/>
        <pt x="219" y="81" on="1"/>
      </contour>
      <contour>
        <pt x="446" y="33" on="1"/>
        <pt x="446" y="26" on="1"/>
        <pt x="452" y="26" on="1"/>
        <pt x="450" y="21" on="0"/>
        <pt x="446" y="17" on="1"/>
        <pt x="443" y="20" on="0"/>
        <pt x="438" y="26" on="0"/>
        <pt x="434" y="30" on="1"/>
        <pt x="445" y="35" on="0"/>
        <pt x="445" y="42" on="1"/>
        <pt x="445" y="47" on="0"/>
        <pt x="438" y="54" on="0"/>
        <pt x="431" y="54" on="1"/>
        <pt x="423" y="54" on="0"/>
        <pt x="414" y="46" on="0"/>
        <pt x="414" y="40" on="1"/>
        <pt x="414" y="34" on="0"/>
        <pt x="420" y="28" on="1"/>
        <pt x="407" y="24" on="0"/>
        <pt x="407" y="13" on="1"/>
        <pt x="407" y="-1" on="0"/>
        <pt x="425" y="-1" on="1"/>
        <pt x="434" y="-1" on="0"/>
        <pt x="440" y="5" on="1"/>
        <pt x="445" y="-1" on="0"/>
        <pt x="452" y="-1" on="1"/>
        <pt x="462" y="-1" on="0"/>
        <pt x="465" y="11" on="1"/>
        <pt x="460" y="12" on="1"/>
        <pt x="459" y="7" on="0"/>
        <pt x="456" y="7" on="1"/>
        <pt x="453" y="7" on="0"/>
        <pt x="450" y="12" on="1"/>
        <pt x="453" y="15" on="0"/>
        <pt x="457" y="21" on="0"/>
        <pt x="459" y="26" on="1"/>
        <pt x="464" y="26" on="1"/>
        <pt x="464" y="33" on="1"/>
      </contour>
      <contour>
        <pt x="429" y="6" on="1"/>
        <pt x="419" y="6" on="0"/>
        <pt x="419" y="16" on="1"/>
        <pt x="419" y="21" on="0"/>
        <pt x="423" y="25" on="1"/>
        <pt x="427" y="21" on="0"/>
        <pt x="433" y="14" on="0"/>
        <pt x="437" y="9" on="1"/>
        <pt x="433" y="6" on="0"/>
      </contour>
      <contour>
        <pt x="294" y="42" on="1"/>
        <pt x="294" y="49" on="0"/>
        <pt x="297" y="54" on="0"/>
        <pt x="300" y="54" on="1"/>
        <pt x="302" y="54" on="0"/>
        <pt x="303" y="53" on="1"/>
        <pt x="302" y="51" on="0"/>
        <pt x="302" y="49" on="1"/>
        <pt x="302" y="44" on="0"/>
        <pt x="308" y="44" on="1"/>
        <pt x="308" y="39" on="1"/>
        <pt x="294" y="39" on="1"/>
      </contour>
      <contour>
        <pt x="425" y="43" on="1"/>
        <pt x="425" y="48" on="0"/>
        <pt x="430" y="48" on="1"/>
        <pt x="436" y="48" on="0"/>
        <pt x="436" y="42" on="1"/>
        <pt x="436" y="36" on="0"/>
        <pt x="431" y="33" on="1"/>
        <pt x="425" y="39" on="0"/>
      </contour>
      <contour>
        <pt x="312" y="342" on="1"/>
        <pt x="342" y="362" on="0"/>
        <pt x="354" y="376" on="1"/>
        <pt x="371" y="359" on="0"/>
        <pt x="367" y="321" on="0"/>
        <pt x="353" y="296" on="1"/>
        <pt x="343" y="307" on="0"/>
        <pt x="324" y="330" on="0"/>
      </contour>
      <contour>
        <pt x="366" y="18" on="1"/>
        <pt x="368" y="40" on="0"/>
        <pt x="347" y="40" on="1"/>
        <pt x="339" y="40" on="0"/>
        <pt x="327" y="28" on="0"/>
        <pt x="327" y="19" on="1"/>
        <pt x="327" y="-1" on="0"/>
        <pt x="348" y="-1" on="1"/>
        <pt x="362" y="-1" on="0"/>
        <pt x="366" y="13" on="1"/>
        <pt x="359" y="13" on="1"/>
        <pt x="358" y="6" on="0"/>
        <pt x="350" y="6" on="1"/>
        <pt x="340" y="6" on="0"/>
        <pt x="340" y="18" on="1"/>
      </contour>
      <contour>
        <pt x="347" y="35" on="1"/>
        <pt x="354" y="35" on="0"/>
        <pt x="354" y="23" on="1"/>
        <pt x="340" y="23" on="1"/>
        <pt x="340" y="35" on="0"/>
      </contour>
      <contour>
        <pt x="124" y="0" on="1"/>
        <pt x="153" y="0" on="1"/>
        <pt x="153" y="7" on="1"/>
        <pt x="145" y="7" on="1"/>
        <pt x="145" y="25" on="1"/>
        <pt x="167" y="25" on="1"/>
        <pt x="167" y="7" on="1"/>
        <pt x="159" y="7" on="1"/>
        <pt x="159" y="0" on="1"/>
        <pt x="188" y="0" on="1"/>
        <pt x="188" y="7" on="1"/>
        <pt x="180" y="7" on="1"/>
        <pt x="180" y="48" on="1"/>
        <pt x="188" y="48" on="1"/>
        <pt x="188" y="55" on="1"/>
        <pt x="159" y="55" on="1"/>
        <pt x="159" y="48" on="1"/>
        <pt x="167" y="48" on="1"/>
        <pt x="167" y="32" on="1"/>
        <pt x="145" y="32" on="1"/>
        <pt x="145" y="48" on="1"/>
        <pt x="153" y="48" on="1"/>
        <pt x="153" y="55" on="1"/>
        <pt x="124" y="55" on="1"/>
        <pt x="124" y="48" on="1"/>
        <pt x="132" y="48" on="1"/>
        <pt x="132" y="7" on="1"/>
        <pt x="124" y="7" on="1"/>
      </contour>
      <contour>
        <pt x="576" y="13" on="1"/>
        <pt x="569" y="13" on="0"/>
        <pt x="569" y="6" on="1"/>
        <pt x="569" y="-1" on="0"/>
        <pt x="576" y="-1" on="1"/>
        <pt x="583" y="-1" on="0"/>
        <pt x="583" y="6" on="1"/>
        <pt x="583" y="13" on="0"/>
      </contour>
    </TTGlyph>
    <TTGlyph name="hungarumlaut" xMin="77" yMin="493" xMax="380" yMax="698">
      <contour>
        <pt x="116" y="501" on="1"/>
        <pt x="77" y="532" on="1"/>
        <pt x="168" y="698" on="1"/>
        <pt x="239" y="644" on="1"/>
      </contour>
      <contour>
        <pt x="255" y="493" on="1"/>
        <pt x="216" y="524" on="1"/>
        <pt x="310" y="690" on="1"/>
        <pt x="380" y="636" on="1"/>
      </contour>
    </TTGlyph>
    <TTGlyph name="hyphen" xMin="37" yMin="215" xMax="228" yMax="300">
      <contour>
        <pt x="37" y="215" on="1"/>
        <pt x="37" y="300" on="1"/>
        <pt x="228" y="300" on="1"/>
        <pt x="228" y="215" on="1"/>
      </contour>
    </TTGlyph>
    <TTGlyph name="hyphen.cap" xMin="37" yMin="328" xMax="228" yMax="413">
      <component glyphName="hyphen" x="0" y="113" flags="0x204"/>
    </TTGlyph>
    <TTGlyph name="i" xMin="38" yMin="0" xMax="162" yMax="650">
      <contour>
        <pt x="162" y="584" on="1"/>
        <pt x="162" y="558" on="0"/>
        <pt x="126" y="519" on="0"/>
        <pt x="100" y="519" on="1"/>
        <pt x="74" y="519" on="0"/>
        <pt x="38" y="558" on="0"/>
        <pt x="38" y="584" on="1"/>
        <pt x="38" y="610" on="0"/>
        <pt x="74" y="650" on="0"/>
        <pt x="100" y="650" on="1"/>
        <pt x="126" y="650" on="0"/>
        <pt x="162" y="610" on="0"/>
      </contour>
      <contour>
        <pt x="48" y="0" on="1"/>
        <pt x="48" y="446" on="1"/>
        <pt x="152" y="446" on="1"/>
        <pt x="152" y="0" on="1"/>
      </contour>
    </TTGlyph>
    <TTGlyph name="i.dot" xMin="38" yMin="0" xMax="162" yMax="650">
      <contour>
        <pt x="162" y="584" on="1"/>
        <pt x="162" y="558" on="0"/>
        <pt x="126" y="519" on="0"/>
        <pt x="100" y="519" on="1"/>
        <pt x="74" y="519" on="0"/>
        <pt x="38" y="558" on="0"/>
        <pt x="38" y="584" on="1"/>
        <pt x="38" y="610" on="0"/>
        <pt x="74" y="650" on="0"/>
        <pt x="100" y="650" on="1"/>
        <pt x="126" y="650" on="0"/>
        <pt x="162" y="610" on="0"/>
      </contour>
      <contour>
        <pt x="48" y="0" on="1"/>
        <pt x="48" y="446" on="1"/>
        <pt x="152" y="446" on="1"/>
        <pt x="152" y="0" on="1"/>
      </contour>
    </TTGlyph>
    <TTGlyph name="iacute" xMin="49" yMin="0" xMax="255" yMax="664">
      <component glyphName="acute" x="-57" y="0" flags="0x4"/>
      <component glyphName="dotlessi" x="0" y="0" flags="0x4"/>
    </TTGlyph>
    <TTGlyph name="ibreve" xMin="-25" yMin="0" xMax="229" yMax="626">
      <component glyphName="dotlessi" x="0" y="0" flags="0x204"/>
      <component glyphName="breve" x="-113" y="0" flags="0x4"/>
    </TTGlyph>
    <TTGlyph name="icircumflex" xMin="-42" yMin="0" xMax="246" yMax="653">
      <component glyphName="circumflex" x="-115" y="0" flags="0x4"/>
      <component glyphName="dotlessi" x="0" y="0" flags="0x4"/>
    </TTGlyph>
    <TTGlyph name="idieresis" xMin="-33" yMin="0" xMax="238" yMax="613">
      <component glyphName="dieresis" x="-113" y="0" flags="0x4"/>
      <component glyphName="dotlessi" x="0" y="0" flags="0x4"/>
    </TTGlyph>
    <TTGlyph name="igrave" xMin="-58" yMin="0" xMax="153" yMax="664">
      <component glyphName="dotlessi" x="0" y="0" flags="0x204"/>
      <component glyphName="grave" x="-180" y="0" flags="0x4"/>
    </TTGlyph>
    <TTGlyph name="imacron" xMin="-23" yMin="0" xMax="227" yMax="581">
      <component glyphName="dotlessi" x="0" y="0" flags="0x204"/>
      <component glyphName="macron" x="-113" y="0" flags="0x4"/>
    </TTGlyph>
    <TTGlyph name="iogonek" xMin="11" yMin="-203" xMax="179" yMax="650">
      <contour>
        <pt x="179" y="-163" on="1"/>
        <pt x="163" y="-180" on="0"/>
        <pt x="119" y="-203" on="0"/>
        <pt x="90" y="-203" on="1"/>
        <pt x="53" y="-203" on="0"/>
        <pt x="11" y="-159" on="0"/>
        <pt x="11" y="-124" on="1"/>
        <pt x="12" y="-95" on="0"/>
        <pt x="39" y="-38" on="0"/>
        <pt x="70" y="0" on="1"/>
        <pt x="48" y="0" on="1"/>
        <pt x="48" y="446" on="1"/>
        <pt x="152" y="446" on="1"/>
        <pt x="152" y="0" on="1"/>
        <pt x="132" y="0" on="1"/>
        <pt x="106" y="-37" on="0"/>
        <pt x="84" y="-84" on="0"/>
        <pt x="84" y="-104" on="1"/>
        <pt x="84" y="-121" on="0"/>
        <pt x="102" y="-140" on="0"/>
        <pt x="116" y="-140" on="1"/>
        <pt x="127" y="-140" on="0"/>
        <pt x="146" y="-131" on="0"/>
        <pt x="154" y="-123" on="1"/>
      </contour>
      <contour>
        <pt x="162" y="584" on="1"/>
        <pt x="162" y="558" on="0"/>
        <pt x="126" y="519" on="0"/>
        <pt x="100" y="519" on="1"/>
        <pt x="74" y="519" on="0"/>
        <pt x="38" y="558" on="0"/>
        <pt x="38" y="584" on="1"/>
        <pt x="38" y="610" on="0"/>
        <pt x="74" y="650" on="0"/>
        <pt x="100" y="650" on="1"/>
        <pt x="126" y="650" on="0"/>
        <pt x="162" y="610" on="0"/>
      </contour>
    </TTGlyph>
</ttFont>
